<?xml version="1.0" standalone="no"?>
<!DOCTYPE svg PUBLIC "-//W3C//DTD SVG 1.1//EN" "http://www.w3.org/Graphics/SVG/1.1/DTD/svg11.dtd" >
<svg xmlns="http://www.w3.org/2000/svg" xmlns:xlink="http://www.w3.org/1999/xlink" version="1.1">
<metadata>
Created by FontForge 20201107 at Fri May  9 06:26:15 2025
 By 
(c) Letteralle Studios. 2022. All Rights Reserved


</metadata>
<defs>
<font id="Halagar-ExtraBold" horiz-adv-x="1087" >
  <font-face 
    font-family="Halagar ExtBd"
    font-weight="800"
    font-stretch="normal"
    units-per-em="2048"
    panose-1="0 0 0 0 0 0 0 0 0 0"
    ascent="1638"
    descent="-410"
    x-height="1061"
    cap-height="1391"
    bbox="-199 -530 2910 2154"
    underline-thickness="102"
    underline-position="-255"
    unicode-range="U+000D-FB05"
  />
<missing-glyph horiz-adv-x="512" 
 />
    <glyph glyph-name="f_f" unicode="ff" horiz-adv-x="1486" 
d="M37 754v307h92v49q0 84 24 146.5t67.5 99t97.5 58t121 25.5t130.5 -0.5t132.5 -17.5v-299q-95 24 -149 12t-55 -73h204v-307h-163v-754h-410v754h-92zM780 754v307h92v49q0 84 24 146.5t68 99t98 58t121 25.5t130.5 -0.5t132.5 -17.5v-299q-95 24 -149.5 12t-55.5 -73
h205v-307h-164v-754h-410v754h-92z" />
    <glyph glyph-name="fi" unicode="fi" horiz-adv-x="1312" 
d="M37 754v307h92v49q0 84 24 146.5t67.5 99t97.5 58t121 25.5t130.5 -0.5t132.5 -17.5v-299q-95 24 -149 12t-55 -73h204v-307h-163v-754h-410v754h-92zM803 1348q0 101 62 163t163 62t163 -62t62 -163t-62 -163.5t-163 -62.5t-163 62.5t-62 163.5zM1233 0h-410v1061h410
v-1061z" />
    <glyph glyph-name="fl" unicode="fl" horiz-adv-x="1267" 
d="M37 754v307h92v49q0 84 24 146.5t67.5 99t97.5 58t121 25.5t130.5 -0.5t132.5 -17.5v-299q-95 24 -149 12t-55 -73h204v-307h-163v-754h-410v754h-92zM1210 1417v-1417h-409v1417h409z" />
    <glyph glyph-name="f_f_i" unicode="ffi" horiz-adv-x="2056" 
d="M37 754v307h92v49q0 84 24 146.5t67.5 99t97.5 58t121 25.5t130.5 -0.5t132.5 -17.5v-299q-95 24 -149 12t-55 -73h204v-307h-163v-754h-410v754h-92zM780 754v307h92v49q0 84 24 146.5t68 99t98 58t121 25.5t130.5 -0.5t132.5 -17.5v-299q-95 24 -149.5 12t-55.5 -73
h205v-307h-164v-754h-410v754h-92zM1546 1348q0 101 62.5 163t163.5 62t163 -62t62 -163t-62 -163.5t-163 -62.5t-163.5 62.5t-62.5 163.5zM1976 0h-409v1061h409v-1061z" />
    <glyph glyph-name="f_f_l" unicode="ffl" horiz-adv-x="2011" 
d="M37 754v307h92v49q0 84 24 146.5t67.5 99t97.5 58t121 25.5t130.5 -0.5t132.5 -17.5v-299q-95 24 -149 12t-55 -73h204v-307h-163v-754h-410v754h-92zM780 754v307h92v49q0 84 24 146.5t68 99t98 58t121 25.5t130.5 -0.5t132.5 -17.5v-299q-95 24 -149.5 12t-55.5 -73
h205v-307h-164v-754h-410v754h-92zM1954 1417v-1417h-410v1417h410z" />
    <glyph glyph-name="longs_t" unicode="&#x17f;t" horiz-adv-x="684" 
 />
    <glyph glyph-name=".notdef" horiz-adv-x="512" 
 />
    <glyph glyph-name="uni0000" horiz-adv-x="0" 
 />
    <glyph glyph-name="uni0000" horiz-adv-x="0" 
 />
    <glyph glyph-name="uni000D" unicode="&#xd;" horiz-adv-x="512" 
 />
    <glyph glyph-name="space" unicode=" " horiz-adv-x="499" 
 />
    <glyph glyph-name="exclam" unicode="!" horiz-adv-x="526" 
d="M111 500l-52 891h410l-51 -891h-307zM33 209q0 103 63.5 166t167.5 63q103 0 166.5 -63t63.5 -166q0 -104 -63.5 -168t-166.5 -64q-104 0 -167.5 64t-63.5 168z" />
    <glyph glyph-name="quotedbl" unicode="&#x22;" horiz-adv-x="811" 
d="M88 862l-51 529h348l-51 -529h-246zM477 862l-51 529h348l-51 -529h-246z" />
    <glyph glyph-name="numbersign" unicode="#" horiz-adv-x="1282" 
d="M342 1391h311l-45 -330h180l46 330h311l-45 -330h137v-307h-180l-23 -156h158v-307h-199l-41 -291h-311l41 291h-180l-41 -291h-311l40 291h-145v307h186l23 156h-164v307h207zM565 754l-22 -156h180l22 156h-180z" />
    <glyph glyph-name="dollar" unicode="$" horiz-adv-x="1128" 
d="M666 965q0 69 -33.5 106t-79.5 37q-38 0 -65 -27t-27 -75q0 -39 34.5 -70.5t89.5 -55.5t121.5 -48.5t133 -58.5t121.5 -77t89.5 -112.5t34.5 -157.5q0 -97 -28.5 -174.5t-79.5 -129.5t-115.5 -85t-142.5 -49v-230h-307v230q-78 16 -143 49t-116.5 85t-80.5 129.5
t-29 174.5v63h410v-63q0 -70 36 -107.5t84 -37.5q42 0 72.5 27.5t30.5 76.5q0 31 -21.5 57t-57.5 46t-83 38.5t-99 39t-103.5 44.5t-98.5 57t-83 73t-57.5 98t-21.5 127q0 97 28 174.5t79 129.5t114 85t140 49v215h307v-217q159 -35 257.5 -143.5t98.5 -294.5v-48h-409v50z
" />
    <glyph glyph-name="percent" unicode="%" horiz-adv-x="1406" 
d="M326 678q-144 0 -211.5 89.5t-67.5 272.5q0 184 67.5 272.5t211.5 88.5q142 0 210 -88.5t68 -272.5q0 -183 -68 -272.5t-210 -89.5zM1237 1391l-819 -1391h-242l823 1391h238zM326 844q30 0 41.5 40.5t11.5 155.5t-11.5 156t-41.5 41q-31 0 -42.5 -40.5t-11.5 -156.5
t11.5 -156t42.5 -40zM1081 -23q-143 0 -210.5 90t-67.5 273q0 184 67 272t211 88q142 0 210.5 -88.5t68.5 -271.5q0 -182 -68.5 -272.5t-210.5 -90.5zM1081 143q30 0 42 41.5t12 155.5t-12 155.5t-42 41.5q-31 0 -42 -40.5t-11 -156.5t11 -156.5t42 -40.5z" />
    <glyph glyph-name="ampersand" unicode="&#x26;" horiz-adv-x="1445" 
d="M1399 0h-449l-55 70q-145 -97 -336 -97q-124 0 -223 33t-161 89t-95 128t-33 152q0 135 75 233.5t220 143.5l-35 43q-104 127 -104 266q0 152 124 254t337 102q93 0 181.5 -27t161.5 -77t117.5 -131.5t44.5 -182.5v-88h-409v88q0 52 -24 81.5t-62 29.5q-68 0 -68 -66
q0 -65 47 -122l256 -316q39 99 60 187h325q-31 -104 -47.5 -156t-51.5 -142t-71 -157zM700 309l-215 264q-26 -42 -26 -106q0 -82 37 -134t104 -52q52 0 100 28z" />
    <glyph glyph-name="quotesingle" unicode="'" horiz-adv-x="475" 
d="M84 862l-51 529h409l-51 -529h-307z" />
    <glyph glyph-name="parenleft" unicode="(" horiz-adv-x="753" 
d="M369 1593h348q-126 -184 -191.5 -430t-65.5 -495.5t65.5 -495.5t191.5 -430h-348q-108 110 -183 262t-111 318t-36 345.5t36 345.5t111 318t183 262z" />
    <glyph glyph-name="parenright" unicode=")" horiz-adv-x="753" 
d="M37 1593h348q108 -110 183 -262t111 -318t36 -345.5t-36 -345.5t-111 -318t-183 -262h-348q126 184 191.5 430t65.5 495.5t-65.5 495.5t-191.5 430z" />
    <glyph glyph-name="asterisk" unicode="*" horiz-adv-x="870" 
d="M731 1266l98 -246l-225 -78l189 -223l-222 -148l-137 240l-137 -240l-221 148l188 223l-225 78l98 246l189 -103l-25 254h266l-24 -254z" />
    <glyph glyph-name="plus" unicode="+" horiz-adv-x="876" 
d="M39 516v307h246v246h307v-246h246v-307h-246v-246h-307v246h-246z" />
    <glyph glyph-name="comma" unicode="," horiz-adv-x="499" 
d="M319 -178h-286l45 551h389z" />
    <glyph glyph-name="hyphen" unicode="-" horiz-adv-x="643" 
d="M35 436v328h573v-328h-573z" />
    <glyph glyph-name="period" unicode="." horiz-adv-x="579" 
d="M59 209q0 103 64 166t168 63q103 0 166 -63t63 -166q0 -104 -63 -168t-166 -64q-104 0 -168 64t-64 168z" />
    <glyph glyph-name="slash" unicode="/" horiz-adv-x="1011" 
d="M641 1536h330l-600 -1712h-330z" />
    <glyph glyph-name="zero" unicode="0" horiz-adv-x="1159" 
d="M580 1417q283 0 409.5 -175.5t126.5 -545.5t-126.5 -546.5t-409.5 -176.5t-410 176.5t-127 546.5q0 369 127 545t410 176zM580 281q60 0 83 90t23 325q0 234 -23 324t-83 90t-83.5 -90.5t-23.5 -323.5q0 -234 23.5 -324.5t83.5 -90.5z" />
    <glyph glyph-name="one" unicode="1" horiz-adv-x="661" 
d="M602 0h-409v1042h-158v349h567v-1391z" />
    <glyph glyph-name="two" unicode="2" horiz-adv-x="1138" 
d="M76 0v369l155 102q92 61 159.5 112t135.5 114t104 125.5t36 121.5q0 87 -31 126.5t-76 39.5t-75.5 -39.5t-30.5 -126.5v-125h-410v125q0 119 45 212.5t120.5 148.5t167.5 83.5t193 28.5q81 0 156.5 -17t143 -54.5t118 -92t80 -134t29.5 -175.5q0 -77 -29.5 -153
t-84.5 -146.5t-119 -131.5t-148 -126l-51 -39h411v-348h-999z" />
    <glyph glyph-name="three" unicode="3" horiz-adv-x="1138" 
d="M412 866h20q132 0 183 31.5t51 106.5q0 51 -32 78.5t-75 27.5t-74.5 -27.5t-31.5 -78.5v-84h-410v84q0 86 29.5 156.5t80 117.5t118.5 79t142.5 46t155.5 14q82 0 156.5 -14t143 -46t118.5 -79t79.5 -117.5t29.5 -156.5q0 -212 -199 -299q199 -104 199 -318
q0 -107 -44.5 -189t-120.5 -130t-167.5 -71.5t-194.5 -23.5q-81 0 -155.5 14t-142.5 46.5t-118.5 79.5t-80 117.5t-29.5 156.5v84h410v-84q0 -50 31.5 -78t74.5 -28t75 28t32 78q0 172 -234 172h-20v307z" />
    <glyph glyph-name="four" unicode="4" horiz-adv-x="1228" 
d="M406 596h249v416zM1065 0h-410v248h-612v342l481 801h541v-795h121v-348h-121v-248z" />
    <glyph glyph-name="five" unicode="5" horiz-adv-x="1138" 
d="M561 616q-51 0 -78 -45h-409l53 820h883v-349h-496l-8 -135q79 29 158 29q68 0 127.5 -13.5t116.5 -48t97.5 -88t65.5 -139t25 -194.5q0 -105 -30 -188t-79.5 -137t-118.5 -89.5t-142.5 -50.5t-156.5 -15q-82 0 -155.5 15t-142.5 50.5t-118.5 89.5t-79.5 137t-30 188v36
h410v-36q0 -93 30 -132.5t76 -39.5t76.5 39.5t30.5 132.5q0 163 -105 163z" />
    <glyph glyph-name="six" unicode="6" horiz-adv-x="1136" 
d="M1063 975h-410q0 53 -22 94t-62 41q-42 0 -64 -56.5t-28 -183.5q84 41 178 41q68 0 130 -15t119 -50t98.5 -87.5t66.5 -133.5t25 -183q0 -212 -131.5 -340.5t-382.5 -128.5q-283 0 -410 176.5t-127 546.5q0 369 127 545t410 176q227 0 355 -111t128 -331zM580 281
q46 0 69 47.5t23 111.5q0 72 -28.5 117t-65.5 45q-38 0 -67.5 -36.5t-29.5 -102.5q0 -94 27 -138t72 -44z" />
    <glyph glyph-name="seven" unicode="7" horiz-adv-x="1044" 
d="M979 1391v-349q-107 -123 -186 -267.5t-121.5 -283t-62 -260t-19.5 -231.5h-410q0 308 81.5 561.5t262.5 480.5h-483v349h938z" />
    <glyph glyph-name="eight" unicode="8" horiz-adv-x="1208" 
d="M604 1417q268 0 400.5 -107.5t132.5 -297.5q0 -196 -164 -310q92 -55 142 -136.5t50 -182.5q0 -190 -143.5 -300t-417.5 -110t-417.5 110t-143.5 300q0 101 50.5 182.5t142.5 136.5q-164 114 -164 310q0 190 132 297.5t400 107.5zM604 852q88 0 88 129t-88 129t-88 -129
t88 -129zM604 281q56 0 86.5 42.5t30.5 110.5q0 67 -30.5 109.5t-86.5 42.5t-86.5 -42.5t-30.5 -109.5q0 -68 30.5 -110.5t86.5 -42.5z" />
    <glyph glyph-name="nine" unicode="9" horiz-adv-x="1136" 
d="M74 416h409q0 -53 22 -94t62 -41q42 0 64 56t28 183q-84 -41 -178 -41q-87 0 -162 25t-138.5 77.5t-100.5 146.5t-37 220q0 212 131.5 340.5t382.5 128.5q283 0 410 -176.5t127 -546.5q0 -369 -127 -545t-410 -176q-226 0 -354.5 111.5t-128.5 331.5zM557 1110
q-46 0 -69 -47.5t-23 -112.5q0 -72 28.5 -117t65.5 -45t66.5 37t29.5 103q0 94 -26.5 138t-71.5 44z" />
    <glyph glyph-name="colon" unicode=":" horiz-adv-x="526" 
d="M33 854q0 103 63.5 166t167.5 63q103 0 166.5 -63t63.5 -166q0 -104 -63.5 -167.5t-166.5 -63.5q-104 0 -167.5 63.5t-63.5 167.5zM33 209q0 103 63.5 166t167.5 63q103 0 166.5 -63t63.5 -166q0 -104 -63.5 -168t-166.5 -64q-104 0 -167.5 64t-63.5 168z" />
    <glyph glyph-name="semicolon" unicode=";" horiz-adv-x="526" 
d="M33 854q0 103 63.5 166t167.5 63q103 0 166.5 -63t63.5 -166q0 -104 -63.5 -167.5t-166.5 -63.5q-104 0 -167.5 63.5t-63.5 167.5zM319 -178h-286l45 551h389z" />
    <glyph glyph-name="less" unicode="&#x3c;" horiz-adv-x="759" 
d="M723 197l-686 278v330l686 278v-329l-397 -113l397 -115v-329z" />
    <glyph glyph-name="equal" unicode="=" horiz-adv-x="831" 
d="M37 670v307h758v-307h-758zM37 281v307h758v-307h-758z" />
    <glyph glyph-name="greater" unicode="&#x3e;" horiz-adv-x="759" 
d="M723 475l-686 -278v329l397 115l-397 113v329l686 -278v-330z" />
    <glyph glyph-name="question" unicode="?" horiz-adv-x="1138" 
d="M721 500h-389q0 71 24.5 132.5t62 101.5t80.5 77t80.5 62.5t62 55.5t24.5 58q0 58 -32 89.5t-75 31.5t-74.5 -31.5t-31.5 -89.5v-63h-410v63q0 89 29.5 162t80 122t118.5 82.5t142.5 48.5t155.5 15t156 -15t143.5 -48.5t118.5 -82.5t79.5 -122t29.5 -162
q0 -52 -20.5 -98.5t-54 -81t-73.5 -66t-79.5 -59.5t-73 -55t-54 -59.5t-20.5 -67.5zM307 209q0 103 64 166t168 63q103 0 166 -63t63 -166q0 -104 -63 -168t-166 -64q-104 0 -168 64t-64 168z" />
    <glyph glyph-name="at" unicode="@" horiz-adv-x="1992" 
d="M881 -449q-206 0 -365.5 57.5t-259.5 162t-150.5 244t-50.5 309.5q0 244 76.5 447t217 345.5t346.5 221.5t456 79q173 0 310 -38t225 -101.5t145.5 -152t81.5 -184.5t24 -204q0 -87 -12 -173t-37.5 -173t-69 -160.5t-101 -131t-140 -90t-180.5 -32.5q-38 0 -77.5 7.5
t-84.5 25t-85.5 53.5t-66.5 87q-40 -81 -120 -127t-170 -46q-58 0 -109.5 20.5t-94 61.5t-67 109.5t-24.5 155.5q0 58 5 116.5t17.5 124.5t31.5 125t50 114t70 94.5t94.5 63t120.5 23.5q152 0 207 -139l14 117h389l-61 -496q-35 -199 57 -199q44 0 76 90t43.5 182t11.5 154
q0 70 -12.5 128t-46.5 115.5t-89.5 97.5t-147.5 64.5t-214 24.5q-182 0 -323 -53t-232.5 -152.5t-138.5 -239.5t-47 -317q0 -245 133 -382.5t412 -137.5q128 0 253 37l-36 -303q-111 -25 -254 -25zM1038 393l21 174q7 59 -8 91t-45 32q-37 0 -62 -72.5t-32 -143.5t-7 -126
q0 -51 11.5 -64.5t37.5 -13.5q31 0 54 32t30 91z" />
    <glyph glyph-name="A" unicode="A" horiz-adv-x="1239" 
d="M1212 0h-444l-25 164h-249l-23 -164h-444l290 1391h605zM541 492h155l-80 536z" />
    <glyph glyph-name="B" unicode="B" horiz-adv-x="1208" 
d="M78 0v1391h540q245 0 377.5 -95.5t132.5 -263.5q0 -205 -178 -301q103 -46 157 -128.5t54 -194.5q0 -187 -132.5 -297.5t-375.5 -110.5h-575zM578 1063h-70v-207h70q52 0 81 31t29 74q0 42 -29 72t-81 30zM612 590h-104v-262h104q52 0 81.5 38.5t29.5 92.5q0 53 -29.5 92
t-81.5 39z" />
    <glyph glyph-name="C" unicode="C" horiz-adv-x="1187" 
d="M604 1090q-61 0 -83.5 -60.5t-22.5 -230.5v-205q0 -171 22.5 -232t83.5 -61t84 52t23 169v41h430v-41q0 -143 -40.5 -250.5t-114 -172t-169 -95.5t-213.5 -31q-289 0 -423 172.5t-134 550.5t134 549.5t423 171.5q118 0 213.5 -31t169 -95.5t114 -172t40.5 -250.5v-82
h-430v82q0 113 -26 167.5t-81 54.5z" />
    <glyph glyph-name="D" unicode="D" horiz-adv-x="1216" 
d="M78 0v1391h485q300 0 453 -178t153 -519q0 -339 -153 -516.5t-453 -177.5h-485zM543 1063h-35v-735h35q99 0 140.5 89t41.5 277q0 190 -41.5 279.5t-140.5 89.5z" />
    <glyph glyph-name="E" unicode="E" horiz-adv-x="1024" 
d="M76 0v1391h872v-328h-442v-199h381v-327h-381v-209h463v-328h-893z" />
    <glyph glyph-name="F" unicode="F" horiz-adv-x="1003" 
d="M506 0h-430v1391h872v-328h-442v-225h381v-328h-381v-510z" />
    <glyph glyph-name="G" unicode="G" horiz-adv-x="1189" 
d="M604 1090q-61 0 -83.5 -60.5t-22.5 -230.5v-205q0 -171 22.5 -232t83.5 -61q105 0 105 160v8h-134v276h566v-223q0 -143 -40.5 -250.5t-114 -172t-169 -95.5t-213.5 -31q-289 0 -423 172.5t-134 550.5t134 549.5t423 171.5q118 0 213.5 -31t169 -95.5t114 -172
t40.5 -250.5v-51h-430v51q0 113 -26 167.5t-81 54.5z" />
    <glyph glyph-name="H" unicode="H" horiz-adv-x="1220" 
d="M1143 0h-430v410h-205v-410h-430v1391h430v-654h205v654h430v-1391z" />
    <glyph glyph-name="I" unicode="I" horiz-adv-x="569" 
d="M500 0h-430v1391h430v-1391z" />
    <glyph glyph-name="J" unicode="J" horiz-adv-x="882" 
d="M819 532q0 -129 -31 -229t-81.5 -160.5t-119.5 -99.5t-138.5 -53.5t-146.5 -15.5t-136 7.5t-113 22.5v328q336 -80 336 174v885h430v-859z" />
    <glyph glyph-name="K" unicode="K" horiz-adv-x="1226" 
d="M508 0h-430v1391h430v-504l217 504h442l-303 -629l326 -762h-485l-195 541h-2v-541z" />
    <glyph glyph-name="L" unicode="L" horiz-adv-x="997" 
d="M76 0v1391h430v-1043h436v-348h-866z" />
    <glyph glyph-name="M" unicode="M" horiz-adv-x="1585" 
d="M483 0h-399v1391h602l107 -762l106 762h602v-1391h-399v901l-156 -901h-307l-156 901v-901z" />
    <glyph glyph-name="N" unicode="N" horiz-adv-x="1310" 
d="M479 0h-399v1391h553l198 -838v838h400v-1391h-553l-199 788v-788z" />
    <glyph glyph-name="O" unicode="O" horiz-adv-x="1208" 
d="M604 301q61 0 84 61t23 232v205q0 169 -23 230t-84 61t-83.5 -60.5t-22.5 -230.5v-205q0 -171 22.5 -232t83.5 -61zM604 1417q289 0 423 -171.5t134 -549.5t-134 -550.5t-423 -172.5t-423 172.5t-134 550.5t134 549.5t423 171.5z" />
    <glyph glyph-name="P" unicode="P" horiz-adv-x="1183" 
d="M508 0h-430v1391h540q255 0 387 -136.5t132 -382.5q0 -247 -132.5 -385.5t-386.5 -138.5h-110v-348zM578 1063h-70v-387h70q54 0 82 51.5t28 142.5q0 90 -28 141.5t-82 51.5z" />
    <glyph glyph-name="Q" unicode="Q" horiz-adv-x="1208" 
d="M1163 -41l-368 -250l-179 264h-12q-289 0 -423 172.5t-134 550.5t134 549.5t423 171.5t423 -171.5t134 -549.5q0 -404 -157 -577zM604 301q61 0 84 61t23 232v205q0 169 -23 230t-84 61t-83.5 -60.5t-22.5 -230.5v-205q0 -171 22.5 -232t83.5 -61z" />
    <glyph glyph-name="R" unicode="R" horiz-adv-x="1202" 
d="M508 389v-389h-430v1391h540q256 0 387.5 -131t131.5 -373q0 -138 -49.5 -244t-145.5 -170l223 -473h-485l-141 389h-13h-18zM578 1063h-70v-367h70q54 0 82 50t28 139q0 178 -110 178z" />
    <glyph glyph-name="S" unicode="S" horiz-adv-x="1177" 
d="M690 965q0 62 -34 96.5t-78 34.5q-37 0 -65 -24.5t-28 -65.5q0 -31 27.5 -57t73 -44t103.5 -40.5t118.5 -44.5t118.5 -58t103.5 -79t73 -109.5t27.5 -147.5q0 -94 -30.5 -170.5t-82 -128.5t-121 -87t-146.5 -51t-160 -16q-84 0 -161 16t-147.5 51t-122 87t-82 128.5
t-30.5 170.5v63h430v-63q0 -62 37 -96.5t86 -34.5q41 0 70.5 24.5t29.5 65.5q0 31 -27.5 57t-73 44t-103.5 40.5t-118.5 44.5t-118.5 58t-103.5 79t-73 109.5t-27.5 147.5q0 94 30 170.5t81 128t120 86.5t144.5 51t157.5 16t157.5 -16t144.5 -51t119.5 -87t80.5 -129
t30 -171v-48h-430v50z" />
    <glyph glyph-name="T" unicode="T" horiz-adv-x="1093" 
d="M55 1391h983v-328h-276v-1063h-430v1063h-277v328z" />
    <glyph glyph-name="U" unicode="U" horiz-adv-x="1179" 
d="M1112 475q0 -119 -29.5 -209.5t-77 -145t-117.5 -88.5t-141 -46.5t-157 -12.5t-157 12.5t-141 46.5t-117.5 88.5t-77 145t-29.5 209.5v916h430v-959q0 -131 92 -131t92 131v959h430v-916z" />
    <glyph glyph-name="V" unicode="V" horiz-adv-x="1239" 
d="M27 1391h444l145 -1029l152 1029h444l-290 -1391h-605z" />
    <glyph glyph-name="W" unicode="W" horiz-adv-x="1810" 
d="M35 1391h440l80 -897l88 897h524l88 -897l80 897h441l-215 -1391h-586l-70 877l-69 -877h-586z" />
    <glyph glyph-name="X" unicode="X" horiz-adv-x="1230" 
d="M37 0l252 721l-232 670h473l86 -416l84 416h474l-232 -670l252 -721h-473l-105 465l-106 -465h-473z" />
    <glyph glyph-name="Y" unicode="Y" horiz-adv-x="1222" 
d="M825 0h-430v479l-368 912h415l179 -443l180 443h395l-371 -914v-477z" />
    <glyph glyph-name="Z" unicode="Z" horiz-adv-x="1191" 
d="M1126 328v-328h-1046v283l528 780h-510v328h1037v-283l-529 -780h520z" />
    <glyph glyph-name="bracketleft" unicode="[" horiz-adv-x="628" 
d="M35 -307v2005h559v-307h-150v-1391h150v-307h-559z" />
    <glyph glyph-name="backslash" unicode="\" horiz-adv-x="1011" 
d="M41 1536h330l600 -1712h-330z" />
    <glyph glyph-name="bracketright" unicode="]" horiz-adv-x="628" 
d="M594 1698v-2005h-559v307h149v1391h-149v307h559z" />
    <glyph glyph-name="asciicircum" unicode="^" horiz-adv-x="1116" 
d="M41 504l321 651h392l321 -651h-344l-172 375l-174 -375h-344z" />
    <glyph glyph-name="underscore" unicode="_" horiz-adv-x="917" 
d="M39 -330v307h840v-307h-840z" />
    <glyph glyph-name="grave" unicode="`" horiz-adv-x="589" 
d="M371 1513l184 -358h-315l-205 358h336z" />
    <glyph glyph-name="a" unicode="a" horiz-adv-x="1081" 
d="M1026 0h-410v70q-107 -93 -262 -93q-129 0 -221 76t-92 219q0 163 100.5 252.5t259.5 89.5q130 0 215 -57v127q0 43 -20 67.5t-47 24.5q-28 0 -49 -24.5t-21 -67.5v-18h-409v18q0 83 27 151t72.5 113.5t107.5 76.5t130 44.5t142 13.5q93 0 175.5 -22.5t151.5 -68.5
t109.5 -125.5t40.5 -182.5v-684zM453 315q0 -35 25.5 -53t60.5 -18q32 0 54.5 16t22.5 45v21q0 29 -23 46t-54 17q-35 0 -60.5 -19.5t-25.5 -54.5z" />
    <glyph glyph-name="b" unicode="b" horiz-adv-x="1083" 
d="M475 0h-409v1417h409v-479q78 145 236 145q161 0 246 -140.5t85 -416.5q0 -274 -84 -411.5t-247 -137.5q-157 0 -236 146v-123zM545 776q-70 0 -70 -129v-233q0 -129 70 -129q69 0 69 129v233q0 129 -69 129z" />
    <glyph glyph-name="c" unicode="c" horiz-adv-x="1036" 
d="M530 776q-69 0 -69 -129v-233q0 -129 69 -129q56 0 56 129v10h409v-21q0 -96 -28.5 -171.5t-74 -122.5t-108 -77.5t-125 -42.5t-129.5 -12q-489 0 -489 553t489 553q69 0 130 -10t124.5 -39t108.5 -74.5t73.5 -123.5t28.5 -179v-122h-409v112q0 129 -56 129z" />
    <glyph glyph-name="d" unicode="d" horiz-adv-x="1083" 
d="M1018 0h-410v123q-79 -146 -235 -146q-163 0 -247.5 137.5t-84.5 411.5q0 276 85.5 416.5t246.5 140.5q157 0 235 -145v479h410v-1417zM539 776q-70 0 -70 -129v-233q0 -129 70 -129q69 0 69 129v233q0 129 -69 129z" />
    <glyph glyph-name="e" unicode="e" horiz-adv-x="1036" 
d="M530 -23q-489 0 -489 553t489 553q69 0 130 -10t124.5 -39t108.5 -74.5t73.5 -123.5t28.5 -179v-190h-534v-53q0 -129 69 -129q56 0 56 129v6h409v-17q0 -96 -28.5 -171.5t-74 -122.5t-108 -77.5t-125 -42.5t-129.5 -12zM530 776q-28 0 -48.5 -28.5t-20.5 -96.5h125v6
q0 119 -56 119z" />
    <glyph glyph-name="f" unicode="f" horiz-adv-x="743" 
d="M37 754v307h92v49q0 84 24 146.5t67.5 99t97.5 58t121 25.5t130.5 -0.5t132.5 -17.5v-299q-95 24 -149 12t-55 -73h204v-307h-163v-754h-410v754h-92z" />
    <glyph glyph-name="g" unicode="g" horiz-adv-x="1083" 
d="M172 -322v308q75 -16 127.5 -24t106 -11.5t87.5 5t62 27t40.5 52.5t12.5 84v43q-79 -146 -235 -146q-332 0 -332 535q0 532 332 532q157 0 235 -145v123h410v-911q0 -142 -48 -247.5t-130 -165.5t-190.5 -86.5t-229.5 -18.5t-248 46zM539 774q-70 0 -70 -129v-190
q0 -129 70 -129q69 0 69 129v190q0 129 -69 129z" />
    <glyph glyph-name="h" unicode="h" 
d="M475 0h-409v1417h409v-530q61 196 262 196q44 0 84 -10.5t77.5 -37t64 -66.5t43 -103t16.5 -143v-723h-410v618q0 65 -22 98.5t-53 33.5q-25 0 -43.5 -22.5t-18.5 -57.5v-670z" />
    <glyph glyph-name="i" unicode="i" horiz-adv-x="569" 
d="M59 1348q0 101 62.5 163t163.5 62t163 -62t62 -163t-62 -163.5t-163 -62.5t-163.5 62.5t-62.5 163.5zM489 0h-409v1061h409v-1061z" />
    <glyph glyph-name="j" unicode="j" horiz-adv-x="593" 
d="M84 1348q0 -101 62 -163.5t163 -62.5t163.5 62.5t62.5 163.5t-62.5 163t-163.5 62t-163 -62t-62 -163zM-147 -354v307q53 -11 99 -7.5t79.5 19.5t53 57t19.5 105v934h410v-903q0 -190 -87 -319.5t-237 -179t-337 -13.5z" />
    <glyph glyph-name="k" unicode="k" horiz-adv-x="1132" 
d="M477 0h-409v1417h409v-706l164 350h455l-262 -449l272 -612h-442l-185 483h-2v-483z" />
    <glyph glyph-name="l" unicode="l" horiz-adv-x="524" 
d="M467 1417v-1417h-410v1417h410z" />
    <glyph glyph-name="m" unicode="m" horiz-adv-x="1630" 
d="M483 0h-409v1061h409v-174q33 105 102 150.5t156 45.5q94 0 167.5 -56t99.5 -181q29 127 101 182t169 55q42 0 80 -10.5t75 -37t63.5 -66.5t43 -103t16.5 -143v-723h-409v618q0 66 -18.5 99t-47.5 33q-24 0 -42.5 -22.5t-18.5 -57.5v-670h-410v618q0 66 -18 99t-47 33
q-25 0 -43.5 -22.5t-18.5 -57.5v-670z" />
    <glyph glyph-name="n" unicode="n" 
d="M475 0h-409v1061h409v-174q61 196 262 196q44 0 84 -10.5t77.5 -37t64 -66.5t43 -103t16.5 -143v-723h-410v618q0 65 -22 98.5t-53 33.5q-25 0 -43.5 -22.5t-18.5 -57.5v-670z" />
    <glyph glyph-name="o" unicode="o" horiz-adv-x="1060" 
d="M530 776q-69 0 -69 -129v-233q0 -129 69 -129q70 0 70 129v233q0 129 -70 129zM530 -23q-489 0 -489 553t489 553q490 0 490 -553t-490 -553z" />
    <glyph glyph-name="p" unicode="p" horiz-adv-x="1083" 
d="M475 -346h-409v1407h409v-123q78 145 236 145q161 0 246 -140.5t85 -416.5q0 -274 -84 -411.5t-247 -137.5q-157 0 -236 146v-469zM545 776q-70 0 -70 -129v-233q0 -129 70 -129q69 0 69 129v233q0 129 -69 129z" />
    <glyph glyph-name="q" unicode="q" horiz-adv-x="1083" 
d="M1018 -346h-410v469q-79 -146 -235 -146q-163 0 -247.5 137.5t-84.5 411.5q0 276 85.5 416.5t246.5 140.5q157 0 235 -145v123h410v-1407zM539 776q-70 0 -70 -129v-233q0 -129 70 -129q69 0 69 129v233q0 129 -69 129z" />
    <glyph glyph-name="r" unicode="r" horiz-adv-x="872" 
d="M473 0h-410v1061h410v-178q64 200 272 200q45 0 89 -8v-411q-80 32 -193 32q-168 0 -168 -94v-602z" />
    <glyph glyph-name="s" unicode="s" horiz-adv-x="1005" 
d="M571 725q0 25 -18 38t-43 13q-27 0 -45.5 -13t-18.5 -38q0 -19 22.5 -33.5t59 -23.5t83 -21t95 -25t95 -36t83 -53t59 -79t22.5 -110q0 -77 -26 -139.5t-70 -104t-104 -70t-125 -41t-136 -12.5q-90 0 -170.5 21t-147 63t-106 115t-39.5 168v10h389v-10q0 -28 18.5 -42.5
t45.5 -14.5q25 0 43 14.5t18 42.5q0 17 -28.5 30t-73.5 24.5t-100 25.5t-110 37.5t-100 55.5t-73.5 86t-28.5 122q0 94 39 165t105.5 112t146.5 61t170 20t169 -20t145.5 -61t105.5 -112t39 -165v-45h-390v45z" />
    <glyph glyph-name="t" unicode="t" horiz-adv-x="786" 
d="M750 313v-307q-132 -36 -245.5 -26t-197 53t-131 120t-47.5 173v428h-92v307h92v225h410v-225h163v-307h-163v-336q0 -59 28 -86.5t74.5 -27t108.5 8.5z" />
    <glyph glyph-name="u" unicode="u" 
d="M66 1061h409v-619q0 -64 22.5 -97.5t53.5 -33.5q24 0 42.5 22.5t18.5 57.5v670h410v-1061h-410v174q-62 -197 -262 -197q-56 0 -104.5 18.5t-90 58t-65.5 112.5t-24 172v723z" />
    <glyph glyph-name="v" unicode="v" horiz-adv-x="1077" 
d="M436 1061l103 -737l102 737h422l-279 -1061h-491l-279 1061h422z" />
    <glyph glyph-name="w" unicode="w" horiz-adv-x="1595" 
d="M23 1061h419l56 -725l104 725h391l105 -725l55 725h420l-215 -1061h-502l-57 631l-60 -631h-501z" />
    <glyph glyph-name="x" unicode="x" 
d="M457 0h-443l262 530l-262 531h443l88 -328l86 328h442l-262 -531l262 -530h-442l-86 328z" />
    <glyph glyph-name="y" unicode="y" horiz-adv-x="1077" 
d="M14 1061h422l96 -715l109 715h422l-250 -1012q-67 -272 -218.5 -362.5t-428.5 -28.5v307q153 -33 230.5 -15t88.5 81h-192z" />
    <glyph glyph-name="z" unicode="z" horiz-adv-x="950" 
d="M39 0v231l367 523h-336v307h841v-264l-344 -490h340v-307h-868z" />
    <glyph glyph-name="braceleft" unicode="{" horiz-adv-x="813" 
d="M711 -12h65v-307h-168q-179 0 -286 94.5t-107 271.5v328q0 160 -147 160h-31v307h31q147 0 147 159v328q0 177 107.5 272t285.5 95h168v-307h-65q-86 0 -86 -60v-328q0 -230 -183 -313q183 -83 183 -313v-328q0 -59 86 -59z" />
    <glyph glyph-name="bar" unicode="|" horiz-adv-x="368" 
d="M31 1475h307v-1668h-307v1668z" />
    <glyph glyph-name="braceright" unicode="}" horiz-adv-x="813" 
d="M102 1389h-65v307h168q178 0 285.5 -95t107.5 -272v-328q0 -159 147 -159h31v-307h-31q-147 0 -147 -160v-328q0 -177 -107 -271.5t-286 -94.5h-168v307h65q86 0 86 59v328q0 230 183 313q-183 83 -183 313v328q0 60 -86 60z" />
    <glyph glyph-name="asciitilde" unicode="~" horiz-adv-x="835" 
d="M565 553q-59 0 -153.5 31.5t-128.5 31.5q-26 0 -44 -17t-18 -46h-184q0 74 24.5 142t79.5 116.5t129 48.5q59 0 154 -31.5t129 -31.5q26 0 43.5 16.5t17.5 46.5h185q0 -74 -25 -142t-80 -116.5t-129 -48.5z" />
    <glyph glyph-name="exclamdown" unicode="&#xa1;" horiz-adv-x="526" 
d="M33 1026q0 104 63.5 167.5t167.5 63.5q103 0 166.5 -63.5t63.5 -167.5q0 -103 -63.5 -166t-166.5 -63q-104 0 -167.5 63t-63.5 166zM59 -156l52 891h307l51 -891h-410z" />
    <glyph glyph-name="cent" unicode="&#xa2;" horiz-adv-x="1036" 
d="M530 776q-69 0 -69 -129v-233q0 -129 69 -129q56 0 56 129v10h409v-21q0 -94 -26 -168t-73 -122t-102 -77t-122 -44v-234h-307v238q-324 84 -324 534q0 451 324 535v231h307v-225q67 -13 122 -41t102 -75t73 -123t26 -175v-122h-409v112q0 129 -56 129z" />
    <glyph glyph-name="sterling" unicode="&#xa3;" horiz-adv-x="1138" 
d="M473 989q0 -60 20.5 -111t56 -104.5t46.5 -77.5h186v-143h-174q-34 -127 -151 -205h606v-348h-1000v348q123 97 154 205h-158v143h131q-7 10 -43 53.5t-52.5 69t-34 77t-17.5 108.5q0 98 45 178t119.5 130.5t167.5 77.5t194 27q80 0 155.5 -17t143.5 -54.5t118 -92
t80 -134t30 -175.5v-125h-410v125q0 87 -30.5 126.5t-75.5 39.5t-76 -28.5t-31 -92.5z" />
    <glyph glyph-name="currency" unicode="&#xa4;" horiz-adv-x="1374" 
d="M1141 608q0 -110 -37 -194l223 -158l-289 -291l-157 225q-89 -36 -195 -36q-108 0 -192 34l-158 -223l-291 291l223 156q-37 84 -37 196q0 111 37 195l-223 155l291 289l158 -221q87 35 192 35q103 0 195 -37l157 223l289 -289l-223 -157q37 -92 37 -193zM539 606
q0 -66 40.5 -106.5t106.5 -40.5t107 40.5t41 106.5t-41 107t-107 41t-106.5 -41t-40.5 -107z" />
    <glyph glyph-name="yen" unicode="&#xa5;" horiz-adv-x="1255" 
d="M834 0h-412v178h-156v144h156v40h-156v144h135l-358 885h395l199 -492l201 492h374l-358 -885h135v-144h-155v-40h155v-144h-155v-178z" />
    <glyph glyph-name="brokenbar" unicode="&#xa6;" horiz-adv-x="368" 
d="M31 1475h307v-746h-307v746zM31 553h307v-746h-307v746z" />
    <glyph glyph-name="section" unicode="&#xa7;" horiz-adv-x="1019" 
d="M627 1028q0 51 -27 79t-63 28q-30 0 -52 -20t-22 -54q0 -28 28.5 -50t74 -39.5t100.5 -36.5t110 -47t100.5 -64t74 -94t28.5 -132q0 -179 -131 -276q59 -75 59 -183q0 -74 -24 -135.5t-65.5 -103t-97 -69.5t-117 -41t-128.5 -13q-84 0 -159.5 21t-138 63t-99.5 114
t-37 164v51h344v-51q0 -49 29.5 -76.5t68.5 -27.5q33 0 56.5 19.5t23.5 51.5q0 28 -28.5 50.5t-74 40.5t-100.5 37t-110 47t-100.5 64t-74 94t-28.5 132q0 182 131 275q-59 75 -59 182q0 75 24 136.5t64.5 103t95.5 70t115.5 41t126.5 12.5t126.5 -12.5t115.5 -41t95.5 -70
t64.5 -103t24 -136.5v-39h-344v39zM524 502q16 -8 35 -8q30 0 51 23t21 52q0 38 -37 56l-109 49q-15 6 -26 6q-27 0 -46.5 -23.5t-19.5 -52.5q0 -38 35 -55z" />
    <glyph glyph-name="dieresis" unicode="&#xa8;" horiz-adv-x="946" 
d="M39 1376q0 94 57 150.5t152 56.5q92 0 148.5 -56.5t56.5 -150.5t-56.5 -151.5t-148.5 -57.5q-95 0 -152 57.5t-57 151.5zM494 1376q0 94 56.5 150.5t151.5 56.5q92 0 148.5 -56.5t56.5 -150.5t-56.5 -151.5t-148.5 -57.5q-95 0 -151.5 57.5t-56.5 151.5z" />
    <glyph glyph-name="copyright" unicode="&#xa9;" horiz-adv-x="1380" 
d="M690 -27q-157 0 -281.5 56t-203 154.5t-119.5 229t-41 283.5q0 152 41 282t119.5 228.5t203 154.5t281.5 56t281.5 -56t203 -154.5t119.5 -228.5t41 -282q0 -153 -41 -283.5t-119.5 -229t-203 -154.5t-281.5 -56zM690 178q116 0 202.5 39.5t137 111t74.5 163t24 204.5
q0 112 -24 203t-74.5 162.5t-137 111t-202.5 39.5t-202.5 -39.5t-137 -111t-74.5 -162.5t-24 -203q0 -113 24 -204.5t74.5 -163t137 -111t202.5 -39.5zM643 696q0 115 11.5 156t41.5 41q54 0 54 -111v-41h215v41q0 141 -73 208t-196 67q-144 0 -211 -86t-67 -275
q0 -188 67.5 -274t210.5 -86q123 0 196 66.5t73 207.5v21h-215v-21q0 -59 -11.5 -84.5t-42.5 -25.5q-30 0 -41.5 40.5t-11.5 155.5z" />
    <glyph glyph-name="ordfeminine" unicode="&#xaa;" horiz-adv-x="557" 
d="M524 877h-205v53q-48 -66 -131 -66q-64 0 -109.5 38.5t-45.5 109.5q0 79 53.5 120.5t126.5 41.5q64 0 106 -33v78q0 22 -9.5 33.5t-22.5 11.5q-15 0 -25 -11.5t-10 -33.5v-21h-205v21q0 100 69.5 149t170.5 49q99 0 168 -49t69 -149v-342zM238 1034q0 -17 13 -27t30 -10
q16 0 27 8.5t11 22.5v10q0 15 -11 24t-27 9q-17 0 -30 -10t-13 -27z" />
    <glyph glyph-name="guillemotleft" unicode="&#xab;" horiz-adv-x="1599" 
d="M514 530l381 -530h-506l-340 530l340 531h506zM1169 530l381 -530h-506l-339 530l339 531h506z" />
    <glyph glyph-name="logicalnot" unicode="&#xac;" horiz-adv-x="1470" 
 />
    <glyph glyph-name="registered" unicode="&#xae;" horiz-adv-x="718" 
d="M360 696q-155 0 -239 101.5t-84 259.5t84 259t239 101t238.5 -101t83.5 -259t-83.5 -259.5t-238.5 -101.5zM360 799q114 0 167 70.5t53 187.5t-53 187.5t-167 70.5t-166.5 -70.5t-52.5 -187.5t52.5 -187.5t166.5 -70.5zM506 883l-53 114q47 35 47 109q0 125 -131 125
h-136v-348h109v92h8l35 -92h121zM358 1149q29 0 29 -45q0 -47 -29 -47h-16v92h16z" />
    <glyph glyph-name="macron" unicode="&#xaf;" horiz-adv-x="729" 
d="M37 1167v226h655v-226h-655z" />
    <glyph glyph-name="degree" unicode="&#xb0;" horiz-adv-x="753" 
d="M717 1075q0 -151 -87.5 -247.5t-250.5 -96.5q-164 0 -253 96.5t-89 247.5q0 149 89 245.5t253 96.5q162 0 250 -96t88 -246zM487 1075q0 53 -27 85t-81 32q-52 0 -80.5 -32t-28.5 -85q0 -54 28 -86.5t81 -32.5q54 0 81 32t27 87z" />
    <glyph glyph-name="plusminus" unicode="&#xb1;" horiz-adv-x="876" 
d="M39 664v307h246v246h307v-246h246v-307h-246v-246h-307v246h-246zM39 0v307h799v-307h-799z" />
    <glyph glyph-name="twosuperior" unicode="&#xb2;" horiz-adv-x="595" 
d="M51 709v184l78 51q207 137 207 238q0 39 -10.5 55t-32.5 16t-32.5 -16t-10.5 -55v-64h-215v64q0 115 78 175t186 60t185 -60t77 -175q0 -123 -170 -267l-26 -22h186v-184h-500z" />
    <glyph glyph-name="threesuperior" unicode="&#xb3;" horiz-adv-x="595" 
d="M219 1143h8q67 0 88 14.5t21 52.5q0 22 -13 33.5t-30 11.5q-19 0 -31 -11.5t-12 -33.5v-41h-215v41q0 54 22 95t60 65t83.5 35.5t96.5 11.5q52 0 97.5 -11.5t84 -35.5t60.5 -65t22 -95q0 -103 -100 -149q100 -53 100 -158q0 -54 -22 -95t-60.5 -65t-84 -35.5t-97.5 -11.5
q-51 0 -96.5 11.5t-83.5 35.5t-60 65t-22 95v41h215v-41q0 -23 11 -35t26 -12q20 0 34.5 13t14.5 34q0 42 -22.5 64t-86.5 22h-8v154z" />
    <glyph glyph-name="acute" unicode="&#xb4;" horiz-adv-x="589" 
d="M350 1155h-315l184 358h336z" />
    <glyph glyph-name="paragraph" unicode="&#xb6;" horiz-adv-x="1503" 
d="M473 532q-139 0 -237 59.5t-143.5 155t-45.5 216.5q0 89 26.5 165.5t78 135.5t134 93t187.5 34h983v-1391h-430v1063h-123v-1063h-430v532z" />
    <glyph glyph-name="periodcentered" unicode="&#xb7;" horiz-adv-x="526" 
d="M33 637q0 103 63.5 166t167.5 63q103 0 166.5 -63t63.5 -166q0 -104 -63.5 -167.5t-166.5 -63.5q-104 0 -167.5 63.5t-63.5 167.5z" />
    <glyph glyph-name="cedilla" unicode="&#xb8;" horiz-adv-x="452" 
d="M96 0h160l-18 -74q92 -18 137 -65.5t45 -116.5q0 -105 -97 -167t-290 -62v225q149 0 149 45q0 12 -6 19.5t-31.5 13.5t-72.5 6z" />
    <glyph glyph-name="onesuperior" unicode="&#xb9;" horiz-adv-x="356" 
d="M326 696h-215v510h-80v185h295v-695z" />
    <glyph glyph-name="ordmasculine" unicode="&#xba;" horiz-adv-x="555" 
d="M276 1018q35 0 35 65v117q0 64 -35 64q-34 0 -34 -64v-117q0 -65 34 -65zM276 864q-243 0 -243 277q0 276 243 276q246 0 246 -276q0 -277 -246 -277z" />
    <glyph glyph-name="guillemotright" unicode="&#xbb;" horiz-adv-x="1599" 
d="M705 0l380 530l-380 531h505l340 -531l-340 -530h-505zM49 0l381 530l-381 531h506l340 -531l-340 -530h-506z" />
    <glyph glyph-name="onequarter" unicode="&#xbc;" horiz-adv-x="1228" 
d="M1108 1391l-819 -1391h-242l823 1391h238zM338 696h-215v510h-80v185h295v-695zM803 309h108v183zM1126 0h-215v125h-307v170l242 401h280v-387h60v-184h-60v-125z" />
    <glyph glyph-name="onehalf" unicode="&#xbd;" horiz-adv-x="1275" 
d="M872 1391h238l-819 -1391h-242zM340 1391v-695h-215v510h-80v185h295zM721 0v184l76 52q96 65 152.5 123t56.5 114q0 72 -43 72t-43 -72v-63h-215v63q0 115 78 175.5t186 60.5t185 -60.5t77 -175.5q0 -129 -162 -262l-33 -27h185v-184h-500z" />
    <glyph glyph-name="threequarters" unicode="&#xbe;" horiz-adv-x="1353" 
d="M229 1143h11q65 0 85.5 14.5t20.5 52.5q0 22 -13 33.5t-30 11.5q-19 0 -31 -11.5t-12 -33.5v-41h-215v41q0 54 22 95t60 65t83.5 35.5t96.5 11.5q52 0 97.5 -11.5t84 -35.5t60.5 -65t22 -95q0 -103 -100 -149q100 -53 100 -158q0 -54 -22 -95t-60.5 -65t-84 -35.5
t-97.5 -11.5q-51 0 -96.5 11.5t-83.5 35.5t-60 65t-22 95v41h215v-41q0 -23 11 -35t26 -12q20 0 34.5 13t14.5 34q0 42 -22 64t-84 22h-11v154zM1231 1391l-819 -1391h-242l823 1391h238zM926 309h108v183zM1249 0h-215v125h-307v170l242 401h280v-387h60v-184h-60v-125z
" />
    <glyph glyph-name="questiondown" unicode="&#xbf;" horiz-adv-x="1138" 
d="M831 1026q0 -103 -63.5 -166t-167.5 -63q-103 0 -166 63t-63 166q0 104 63 167.5t166 63.5q104 0 167.5 -63.5t63.5 -167.5zM418 735h389q0 -71 -24.5 -132.5t-62 -101.5t-80.5 -77t-80.5 -62.5t-62 -55.5t-24.5 -58q0 -58 32 -89.5t75 -31.5t74.5 31.5t31.5 89.5v63h410
v-63q0 -111 -45 -196t-121 -134.5t-167.5 -74.5t-193.5 -25q-81 0 -156 15t-143 48.5t-118 82.5t-79.5 122t-29.5 162q0 52 20.5 98.5t54 81t73.5 66t79.5 59.5t73 55t54 59.5t20.5 67.5z" />
    <glyph glyph-name="Agrave" unicode="&#xc0;" horiz-adv-x="1239" 
d="M1210 0h-444l-25 164h-249l-23 -164h-444l290 1391h605zM539 492h155l-80 536zM696 1864l185 -359h-316l-205 359h336z" />
    <glyph glyph-name="Aacute" unicode="&#xc1;" horiz-adv-x="1239" 
d="M1210 0h-444l-25 164h-249l-23 -164h-444l290 1391h605zM539 492h155l-80 536zM676 1505h-316l185 359h336z" />
    <glyph glyph-name="Acircumflex" unicode="&#xc2;" horiz-adv-x="1239" 
d="M1210 0h-444l-25 164h-249l-23 -164h-444l290 1391h605zM539 492h155l-80 536zM451 1864h335l185 -359h-275l-78 152l-77 -152h-275z" />
    <glyph glyph-name="Atilde" unicode="&#xc3;" horiz-adv-x="1239" 
d="M1210 0h-444l-25 164h-249l-23 -164h-444l290 1391h605zM539 492h155l-80 536zM727 1497q-48 0 -113 32t-88 32q-26 0 -43.5 -17t-17.5 -47h-184q0 74 24.5 142t79.5 116.5t129 48.5q48 0 113 -31.5t88 -31.5q26 0 43.5 16.5t17.5 46.5h185q0 -74 -25 -142t-80 -116.5
t-129 -48.5z" />
    <glyph glyph-name="Adieresis" unicode="&#xc4;" horiz-adv-x="1239" 
d="M1210 0h-444l-25 164h-249l-23 -164h-444l290 1391h605zM539 492h155l-80 536zM184 1726q0 94 57 150.5t152 56.5q92 0 148.5 -56.5t56.5 -150.5t-56.5 -151t-148.5 -57q-95 0 -152 57t-57 151zM639 1726q0 94 57 150.5t152 56.5q92 0 148.5 -56.5t56.5 -150.5
t-56.5 -151t-148.5 -57q-95 0 -152 57t-57 151z" />
    <glyph glyph-name="Aring" unicode="&#xc5;" horiz-adv-x="1239" 
d="M1210 0h-444l-25 164h-249l-23 -164h-444l290 1391h605zM539 492h155l-80 536zM618 1513q-138 0 -214 83.5t-76 207.5t76 207.5t214 83.5q140 0 215.5 -83.5t75.5 -207.5t-75.5 -207.5t-215.5 -83.5zM618 1718q36 0 57 25.5t21 60.5t-21 60.5t-57 25.5t-55.5 -25.5
t-19.5 -60.5t19.5 -60.5t55.5 -25.5z" />
    <glyph glyph-name="AE" unicode="&#xc6;" horiz-adv-x="1820" 
d="M862 0v164h-313l-60 -164h-454l594 1391h1106v-328h-443v-199h381v-327h-381v-209h463v-328h-893zM666 492h196v544z" />
    <glyph glyph-name="Ccedilla" unicode="&#xc7;" horiz-adv-x="1187" 
d="M604 1090q-61 0 -83.5 -60.5t-22.5 -230.5v-205q0 -171 22.5 -232t83.5 -61t84 52t23 169v41h430v-41q0 -143 -40.5 -250.5t-114 -172t-169 -95.5t-213.5 -31q-289 0 -423 172.5t-134 550.5t134 549.5t423 171.5q118 0 213.5 -31t169 -95.5t114 -172t40.5 -250.5v-82
h-430v82q0 113 -26 167.5t-81 54.5zM483 0h160l-18 -74q92 -18 137 -65.5t45 -116.5q0 -105 -97 -167t-290 -62v225q149 0 149 45q0 12 -6 19.5t-31.5 13.5t-72.5 6z" />
    <glyph glyph-name="Egrave" unicode="&#xc8;" horiz-adv-x="1024" 
d="M76 0v1391h872v-328h-442v-199h381v-327h-381v-209h463v-328h-893zM588 1864l184 -359h-315l-205 359h336z" />
    <glyph glyph-name="Eacute" unicode="&#xc9;" horiz-adv-x="1024" 
d="M76 0v1391h872v-328h-442v-199h381v-327h-381v-209h463v-328h-893zM567 1505h-315l184 359h336z" />
    <glyph glyph-name="Ecircumflex" unicode="&#xca;" horiz-adv-x="1024" 
d="M76 0v1391h872v-328h-442v-199h381v-327h-381v-209h463v-328h-893zM342 1864h336l184 -359h-274l-78 152l-78 -152h-274z" />
    <glyph glyph-name="Edieresis" unicode="&#xcb;" horiz-adv-x="1024" 
d="M76 0v1391h872v-328h-442v-199h381v-327h-381v-209h463v-328h-893zM76 1726q0 94 57 150.5t152 56.5q92 0 148 -56.5t56 -150.5t-56 -151t-148 -57q-95 0 -152 57t-57 151zM530 1726q0 94 57 150.5t152 56.5q92 0 148.5 -56.5t56.5 -150.5t-56.5 -151t-148.5 -57
q-95 0 -152 57t-57 151z" />
    <glyph glyph-name="Igrave" unicode="&#xcc;" horiz-adv-x="569" 
d="M500 0h-430v1391h430v-1391zM360 1864l185 -359h-316l-204 359h335z" />
    <glyph glyph-name="Iacute" unicode="&#xcd;" horiz-adv-x="569" 
d="M500 0h-430v1391h430v-1391zM340 1505h-315l184 359h336z" />
    <glyph glyph-name="Icircumflex" unicode="&#xce;" horiz-adv-x="569" 
d="M500 0h-430v1391h430v-1391zM115 1864h336l184 -359h-275l-77 152l-78 -152h-275z" />
    <glyph glyph-name="Idieresis" unicode="&#xcf;" horiz-adv-x="569" 
d="M500 0h-430v1391h430v-1391zM-152 1726q0 94 57 150.5t152 56.5q92 0 148.5 -56.5t56.5 -150.5t-56.5 -151t-148.5 -57q-95 0 -152 57t-57 151zM303 1726q0 94 57 150.5t152 56.5q92 0 148.5 -56.5t56.5 -150.5t-56.5 -151t-148.5 -57q-95 0 -152 57t-57 151z" />
    <glyph glyph-name="Eth" unicode="&#xd0;" horiz-adv-x="1216" 
d="M78 584h-76v204h76v603h485q300 0 453 -178t153 -519q0 -339 -153 -516.5t-453 -177.5h-485v584zM543 1063h-35v-275h94v-204h-94v-256h35q99 0 140.5 89t41.5 277q0 190 -41.5 279.5t-140.5 89.5z" />
    <glyph glyph-name="Ntilde" unicode="&#xd1;" horiz-adv-x="1310" 
d="M479 0h-399v1391h553l198 -838v838h400v-1391h-553l-199 788v-788zM772 1497q-48 0 -113 32t-88 32q-26 0 -43.5 -17t-17.5 -47h-184q0 74 24.5 142t79.5 116.5t129 48.5q48 0 113 -31.5t88 -31.5q26 0 43.5 16.5t17.5 46.5h185q0 -74 -25 -142t-80 -116.5t-129 -48.5z
" />
    <glyph glyph-name="Ograve" unicode="&#xd2;" horiz-adv-x="1208" 
d="M602 301q61 0 84 61t23 232v205q0 169 -23 230t-84 61t-83.5 -60.5t-22.5 -230.5v-205q0 -171 22.5 -232t83.5 -61zM602 1417q289 0 423 -171.5t134 -549.5t-134 -550.5t-423 -172.5t-423 172.5t-134 550.5t134 549.5t423 171.5zM680 1864l184 -359h-315l-205 359h336z
" />
    <glyph glyph-name="Oacute" unicode="&#xd3;" horiz-adv-x="1208" 
d="M602 301q61 0 84 61t23 232v205q0 169 -23 230t-84 61t-83.5 -60.5t-22.5 -230.5v-205q0 -171 22.5 -232t83.5 -61zM602 1417q289 0 423 -171.5t134 -549.5t-134 -550.5t-423 -172.5t-423 172.5t-134 550.5t134 549.5t423 171.5zM659 1505h-315l184 359h336z" />
    <glyph glyph-name="Ocircumflex" unicode="&#xd4;" horiz-adv-x="1208" 
d="M602 301q61 0 84 61t23 232v205q0 169 -23 230t-84 61t-83.5 -60.5t-22.5 -230.5v-205q0 -171 22.5 -232t83.5 -61zM602 1417q289 0 423 -171.5t134 -549.5t-134 -550.5t-423 -172.5t-423 172.5t-134 550.5t134 549.5t423 171.5zM434 1864h336l184 -359h-274l-78 152
l-78 -152h-274z" />
    <glyph glyph-name="Otilde" unicode="&#xd5;" horiz-adv-x="1208" 
d="M602 301q61 0 84 61t23 232v205q0 169 -23 230t-84 61t-83.5 -60.5t-22.5 -230.5v-205q0 -171 22.5 -232t83.5 -61zM602 1417q289 0 423 -171.5t134 -549.5t-134 -550.5t-423 -172.5t-423 172.5t-134 550.5t134 549.5t423 171.5zM711 1497q-48 0 -113 32t-88 32
q-26 0 -43.5 -17t-17.5 -47h-185q0 74 25 142t80 116.5t129 48.5q48 0 112.5 -31.5t87.5 -31.5q26 0 44 17t18 46h184q0 -74 -24.5 -142t-79.5 -116.5t-129 -48.5z" />
    <glyph glyph-name="Odieresis" unicode="&#xd6;" horiz-adv-x="1208" 
d="M602 301q61 0 84 61t23 232v205q0 169 -23 230t-84 61t-83.5 -60.5t-22.5 -230.5v-205q0 -171 22.5 -232t83.5 -61zM602 1417q289 0 423 -171.5t134 -549.5t-134 -550.5t-423 -172.5t-423 172.5t-134 550.5t134 549.5t423 171.5zM168 1726q0 94 57 150.5t152 56.5
q92 0 148.5 -56.5t56.5 -150.5t-56.5 -151t-148.5 -57q-95 0 -152 57t-57 151zM623 1726q0 94 56.5 150.5t151.5 56.5q92 0 148.5 -56.5t56.5 -150.5t-56.5 -151t-148.5 -57q-95 0 -151.5 57t-56.5 151z" />
    <glyph glyph-name="multiply" unicode="&#xd7;" horiz-adv-x="860" 
d="M821 502l-217 -217l-174 174l-174 -174l-217 217l174 174l-174 174l217 217l174 -174l174 174l217 -217l-174 -174z" />
    <glyph glyph-name="Oslash" unicode="&#xd8;" horiz-adv-x="1208" 
d="M602 301q61 0 84 61t23 232v205q0 169 -23 230t-84 61t-83.5 -60.5t-22.5 -230.5v-205q0 -171 22.5 -232t83.5 -61zM602 1417q289 0 423 -171.5t134 -549.5t-134 -550.5t-423 -172.5t-423 172.5t-134 550.5t134 549.5t423 171.5zM1020 1417h203l-1037 -1444h-202z" />
    <glyph glyph-name="Ugrave" unicode="&#xd9;" horiz-adv-x="1200" 
d="M1122 475q0 -119 -29.5 -209.5t-77 -145t-117.5 -88.5t-141 -46.5t-157 -12.5t-157 12.5t-141 46.5t-117.5 88.5t-77 145t-29.5 209.5v916h430v-959q0 -131 92 -131t92 131v959h430v-916zM676 1864l184 -359h-315l-205 359h336z" />
    <glyph glyph-name="Uacute" unicode="&#xda;" horiz-adv-x="1200" 
d="M1122 475q0 -119 -29.5 -209.5t-77 -145t-117.5 -88.5t-141 -46.5t-157 -12.5t-157 12.5t-141 46.5t-117.5 88.5t-77 145t-29.5 209.5v916h430v-959q0 -131 92 -131t92 131v959h430v-916zM655 1505h-315l184 359h336z" />
    <glyph glyph-name="Ucircumflex" unicode="&#xdb;" horiz-adv-x="1200" 
d="M1122 475q0 -119 -29.5 -209.5t-77 -145t-117.5 -88.5t-141 -46.5t-157 -12.5t-157 12.5t-141 46.5t-117.5 88.5t-77 145t-29.5 209.5v916h430v-959q0 -131 92 -131t92 131v959h430v-916zM430 1864h336l184 -359h-274l-78 152l-78 -152h-274z" />
    <glyph glyph-name="Udieresis" unicode="&#xdc;" horiz-adv-x="1200" 
d="M1122 475q0 -119 -29.5 -209.5t-77 -145t-117.5 -88.5t-141 -46.5t-157 -12.5t-157 12.5t-141 46.5t-117.5 88.5t-77 145t-29.5 209.5v916h430v-959q0 -131 92 -131t92 131v959h430v-916zM164 1726q0 94 57 150.5t152 56.5q92 0 148.5 -56.5t56.5 -150.5t-56.5 -151
t-148.5 -57q-95 0 -152 57t-57 151zM618 1726q0 94 57 150.5t152 56.5q92 0 148.5 -56.5t56.5 -150.5t-56.5 -151t-148.5 -57q-95 0 -152 57t-57 151z" />
    <glyph glyph-name="Yacute" unicode="&#xdd;" horiz-adv-x="1222" 
d="M823 0h-430v479l-368 912h415l178 -443l181 443h395l-371 -914v-477zM647 1505h-315l184 359h336z" />
    <glyph glyph-name="Thorn" unicode="&#xde;" horiz-adv-x="1218" 
d="M508 0h-430v1391h430v-164h55q149 0 266 -40t191 -111.5t112.5 -168.5t38.5 -213t-38.5 -212t-112.5 -167.5t-191 -111t-266 -39.5h-55v-164zM543 899h-35v-407h35q87 0 131.5 54.5t44.5 149.5q0 94 -44.5 148.5t-131.5 54.5z" />
    <glyph glyph-name="germandbls" unicode="&#xdf;" horiz-adv-x="1153" 
d="M561 1110q-84 0 -84 -106v-1004h-409v1004q0 86 27.5 156t74.5 117t110.5 79t134 46.5t146.5 14.5t146 -14.5t133.5 -46.5t110.5 -79t74.5 -117t27.5 -156q0 -156 -129 -242q92 -56 139 -146t47 -200q0 -91 -33.5 -169.5t-97.5 -139t-166.5 -95.5t-232.5 -35h-35v314
q15 -6 35 -6q56 0 84 47t28 131q0 178 -112 178h-41v225h14q46 0 68 42t22 96q0 106 -82 106z" />
    <glyph glyph-name="agrave" unicode="&#xe0;" horiz-adv-x="1081" 
d="M1024 0h-410v70q-107 -93 -262 -93q-129 0 -221 76t-92 219q0 163 100.5 252.5t259.5 89.5q130 0 215 -57v127q0 43 -20 67.5t-47 24.5q-28 0 -49 -24.5t-21 -67.5v-18h-409v18q0 83 27 151t72.5 113.5t107.5 76.5t130 44.5t142 13.5q93 0 175.5 -22.5t151.5 -68.5
t109.5 -125.5t40.5 -182.5v-684zM451 315q0 -35 25.5 -53t60.5 -18q32 0 54.5 16t22.5 45v21q0 29 -23 46t-54 17q-35 0 -60.5 -19.5t-25.5 -54.5zM616 1513l185 -358h-316l-204 358h335z" />
    <glyph glyph-name="aacute" unicode="&#xe1;" horiz-adv-x="1081" 
d="M1024 0h-410v70q-107 -93 -262 -93q-129 0 -221 76t-92 219q0 163 100.5 252.5t259.5 89.5q130 0 215 -57v127q0 43 -20 67.5t-47 24.5q-28 0 -49 -24.5t-21 -67.5v-18h-409v18q0 83 27 151t72.5 113.5t107.5 76.5t130 44.5t142 13.5q93 0 175.5 -22.5t151.5 -68.5
t109.5 -125.5t40.5 -182.5v-684zM451 315q0 -35 25.5 -53t60.5 -18q32 0 54.5 16t22.5 45v21q0 29 -23 46t-54 17q-35 0 -60.5 -19.5t-25.5 -54.5zM596 1155h-315l184 358h336z" />
    <glyph glyph-name="acircumflex" unicode="&#xe2;" horiz-adv-x="1081" 
d="M1024 0h-410v70q-107 -93 -262 -93q-129 0 -221 76t-92 219q0 163 100.5 252.5t259.5 89.5q130 0 215 -57v127q0 43 -20 67.5t-47 24.5q-28 0 -49 -24.5t-21 -67.5v-18h-409v18q0 83 27 151t72.5 113.5t107.5 76.5t130 44.5t142 13.5q93 0 175.5 -22.5t151.5 -68.5
t109.5 -125.5t40.5 -182.5v-684zM451 315q0 -35 25.5 -53t60.5 -18q32 0 54.5 16t22.5 45v21q0 29 -23 46t-54 17q-35 0 -60.5 -19.5t-25.5 -54.5zM371 1513h336l184 -358h-275l-77 152l-78 -152h-275z" />
    <glyph glyph-name="atilde" unicode="&#xe3;" horiz-adv-x="1081" 
d="M1024 0h-410v70q-107 -93 -262 -93q-129 0 -221 76t-92 219q0 163 100.5 252.5t259.5 89.5q130 0 215 -57v127q0 43 -20 67.5t-47 24.5q-28 0 -49 -24.5t-21 -67.5v-18h-409v18q0 83 27 151t72.5 113.5t107.5 76.5t130 44.5t142 13.5q93 0 175.5 -22.5t151.5 -68.5
t109.5 -125.5t40.5 -182.5v-684zM451 315q0 -35 25.5 -53t60.5 -18q32 0 54.5 16t22.5 45v21q0 29 -23 46t-54 17q-35 0 -60.5 -19.5t-25.5 -54.5zM647 1147q-48 0 -113 31.5t-88 31.5q-26 0 -43.5 -16.5t-17.5 -46.5h-184q0 74 24.5 142t79.5 116.5t129 48.5
q48 0 113 -31.5t88 -31.5q26 0 43.5 16.5t17.5 46.5h185q0 -74 -25 -142t-80 -116.5t-129 -48.5z" />
    <glyph glyph-name="adieresis" unicode="&#xe4;" horiz-adv-x="1081" 
d="M1024 0h-410v70q-107 -93 -262 -93q-129 0 -221 76t-92 219q0 163 100.5 252.5t259.5 89.5q130 0 215 -57v127q0 43 -20 67.5t-47 24.5q-28 0 -49 -24.5t-21 -67.5v-18h-409v18q0 83 27 151t72.5 113.5t107.5 76.5t130 44.5t142 13.5q93 0 175.5 -22.5t151.5 -68.5
t109.5 -125.5t40.5 -182.5v-684zM451 315q0 -35 25.5 -53t60.5 -18q32 0 54.5 16t22.5 45v21q0 29 -23 46t-54 17q-35 0 -60.5 -19.5t-25.5 -54.5zM104 1376q0 94 57 150.5t152 56.5q92 0 148.5 -56.5t56.5 -150.5t-56.5 -151.5t-148.5 -57.5q-95 0 -152 57.5t-57 151.5z
M559 1376q0 94 57 150.5t152 56.5q92 0 148.5 -56.5t56.5 -150.5t-56.5 -151.5t-148.5 -57.5q-95 0 -152 57.5t-57 151.5z" />
    <glyph glyph-name="aring" unicode="&#xe5;" horiz-adv-x="1081" 
d="M1024 0h-410v70q-107 -93 -262 -93q-129 0 -221 76t-92 219q0 163 100.5 252.5t259.5 89.5q130 0 215 -57v127q0 43 -20 67.5t-47 24.5q-28 0 -49 -24.5t-21 -67.5v-18h-409v18q0 83 27 151t72.5 113.5t107.5 76.5t130 44.5t142 13.5q93 0 175.5 -22.5t151.5 -68.5
t109.5 -125.5t40.5 -182.5v-684zM451 315q0 -35 25.5 -53t60.5 -18q32 0 54.5 16t22.5 45v21q0 29 -23 46t-54 17q-35 0 -60.5 -19.5t-25.5 -54.5zM539 1163q-138 0 -214.5 83.5t-76.5 207.5t76.5 207.5t214.5 83.5q139 0 214.5 -83.5t75.5 -207.5t-75.5 -207.5
t-214.5 -83.5zM539 1368q36 0 56.5 25.5t20.5 60.5t-20.5 60.5t-56.5 25.5t-56 -25.5t-20 -60.5t20 -60.5t56 -25.5z" />
    <glyph glyph-name="ae" unicode="&#xe6;" horiz-adv-x="1617" 
d="M1104 -23q-134 0 -232 66.5t-157 179.5q-28 -120 -127 -183t-226 -63q-129 0 -221 76t-92 219q0 163 101 252.5t260 89.5q130 0 215 -57v127q0 43 -20.5 67.5t-47.5 24.5q-28 0 -49 -24.5t-21 -67.5v-18h-409v18q0 83 27 151t72.5 113.5t107.5 76.5t130 44.5t142 13.5
q172 0 297 -77q107 77 250 77q69 0 130 -10t124.5 -39t108.5 -74.5t73.5 -123.5t28.5 -179v-174h-535v-69q0 -129 70 -129q55 0 55 129v10h410v-21q0 -96 -28.5 -171.5t-74 -122.5t-108 -77.5t-125 -42.5t-129.5 -12zM1104 776q-20 0 -34 -12t-21 -26.5t-10.5 -38.5
t-4 -37.5t-0.5 -34.5h125v20q0 129 -55 129zM461 315q0 -35 25.5 -53t60.5 -18q32 0 55 16t23 45v21q0 29 -23.5 46t-54.5 17q-35 0 -60.5 -19.5t-25.5 -54.5z" />
    <glyph glyph-name="ccedilla" unicode="&#xe7;" horiz-adv-x="1036" 
d="M530 776q-69 0 -69 -129v-233q0 -129 69 -129q56 0 56 129v10h409v-21q0 -96 -28.5 -171.5t-74 -122.5t-108 -77.5t-125 -42.5t-129.5 -12q-489 0 -489 553t489 553q69 0 130 -10t124.5 -39t108.5 -74.5t73.5 -123.5t28.5 -179v-122h-409v112q0 129 -56 129zM408 0h159
l-18 -74q92 -18 137 -65.5t45 -116.5q0 -105 -97 -167t-290 -62v225q150 0 150 45q0 12 -6 19.5t-32 13.5t-73 6z" />
    <glyph glyph-name="egrave" unicode="&#xe8;" horiz-adv-x="1036" 
d="M530 -23q-489 0 -489 553t489 553q69 0 130 -10t124.5 -39t108.5 -74.5t73.5 -123.5t28.5 -179v-190h-534v-53q0 -129 69 -129q56 0 56 129v6h409v-17q0 -96 -28.5 -171.5t-74 -122.5t-108 -77.5t-125 -42.5t-129.5 -12zM530 776q-28 0 -48.5 -28.5t-20.5 -96.5h125v6
q0 119 -56 119zM594 1513l184 -358h-315l-205 358h336z" />
    <glyph glyph-name="eacute" unicode="&#xe9;" horiz-adv-x="1036" 
d="M530 -23q-489 0 -489 553t489 553q69 0 130 -10t124.5 -39t108.5 -74.5t73.5 -123.5t28.5 -179v-190h-534v-53q0 -129 69 -129q56 0 56 129v6h409v-17q0 -96 -28.5 -171.5t-74 -122.5t-108 -77.5t-125 -42.5t-129.5 -12zM530 776q-28 0 -48.5 -28.5t-20.5 -96.5h125v6
q0 119 -56 119zM573 1155h-315l184 358h336z" />
    <glyph glyph-name="ecircumflex" unicode="&#xea;" horiz-adv-x="1036" 
d="M530 -23q-489 0 -489 553t489 553q69 0 130 -10t124.5 -39t108.5 -74.5t73.5 -123.5t28.5 -179v-190h-534v-53q0 -129 69 -129q56 0 56 129v6h409v-17q0 -96 -28.5 -171.5t-74 -122.5t-108 -77.5t-125 -42.5t-129.5 -12zM530 776q-28 0 -48.5 -28.5t-20.5 -96.5h125v6
q0 119 -56 119zM348 1513h336l184 -358h-274l-78 152l-78 -152h-274z" />
    <glyph glyph-name="edieresis" unicode="&#xeb;" horiz-adv-x="1036" 
d="M530 -23q-489 0 -489 553t489 553q69 0 130 -10t124.5 -39t108.5 -74.5t73.5 -123.5t28.5 -179v-190h-534v-53q0 -129 69 -129q56 0 56 129v6h409v-17q0 -96 -28.5 -171.5t-74 -122.5t-108 -77.5t-125 -42.5t-129.5 -12zM530 776q-28 0 -48.5 -28.5t-20.5 -96.5h125v6
q0 119 -56 119zM82 1376q0 94 57 150.5t152 56.5q92 0 148.5 -56.5t56.5 -150.5t-56.5 -151.5t-148.5 -57.5q-95 0 -152 57.5t-57 151.5zM537 1376q0 94 56.5 150.5t151.5 56.5q92 0 148.5 -56.5t56.5 -150.5t-56.5 -151.5t-148.5 -57.5q-95 0 -151.5 57.5t-56.5 151.5z" />
    <glyph glyph-name="igrave" unicode="&#xec;" horiz-adv-x="475" 
d="M489 0h-409v1061h409v-1061zM313 1513l185 -358h-316l-205 358h336z" />
    <glyph glyph-name="iacute" unicode="&#xed;" horiz-adv-x="475" 
d="M489 0h-409v1061h409v-1061zM293 1155h-316l185 358h336z" />
    <glyph glyph-name="icircumflex" unicode="&#xee;" horiz-adv-x="475" 
d="M489 0h-409v1061h409v-1061zM68 1513h335l185 -358h-275l-77 152l-78 -152h-275z" />
    <glyph glyph-name="idieresis" unicode="&#xef;" horiz-adv-x="475" 
d="M489 0h-409v1061h409v-1061zM-199 1376q0 94 57 150.5t152 56.5q92 0 148.5 -56.5t56.5 -150.5t-56.5 -151.5t-148.5 -57.5q-95 0 -152 57.5t-57 151.5zM256 1376q0 94 57 150.5t152 56.5q92 0 148.5 -56.5t56.5 -150.5t-56.5 -151.5t-148.5 -57.5q-95 0 -152 57.5
t-57 151.5z" />
    <glyph glyph-name="eth" unicode="&#xf0;" horiz-adv-x="1060" 
d="M297 1391h377q9 -8 55 -54l195 54l53 -199l-119 -31q162 -286 162 -631q0 -553 -490 -553q-489 0 -489 553q0 122 33.5 214t91.5 146t129 80.5t154 26.5q45 0 88 -6q-6 15 -16.5 39.5t-14.5 34.5l-187 -49l-53 196l137 37q-50 78 -106 142zM530 776q-69 0 -69 -129v-233
q0 -129 69 -129q70 0 70 129v233q0 129 -70 129z" />
    <glyph glyph-name="ntilde" unicode="&#xf1;" 
d="M473 0h-410v1061h410v-174q61 196 262 196q44 0 84 -10.5t77.5 -37t64 -66.5t43 -103t16.5 -143v-723h-410v618q0 65 -22 98.5t-53 33.5q-25 0 -43.5 -22.5t-18.5 -57.5v-670zM651 1147q-48 0 -112.5 31.5t-87.5 31.5q-26 0 -44 -17t-18 -46h-184q0 74 24.5 142
t79.5 116.5t129 48.5q48 0 113 -31.5t88 -31.5q26 0 43.5 16.5t17.5 46.5h185q0 -74 -25 -142t-80 -116.5t-129 -48.5z" />
    <glyph glyph-name="ograve" unicode="&#xf2;" horiz-adv-x="1060" 
d="M528 776q-69 0 -69 -129v-233q0 -129 69 -129q70 0 70 129v233q0 129 -70 129zM528 -23q-489 0 -489 553t489 553q490 0 490 -553t-490 -553zM627 1513l184 -358h-315l-205 358h336z" />
    <glyph glyph-name="oacute" unicode="&#xf3;" horiz-adv-x="1060" 
d="M528 776q-69 0 -69 -129v-233q0 -129 69 -129q70 0 70 129v233q0 129 -70 129zM528 -23q-489 0 -489 553t489 553q490 0 490 -553t-490 -553zM565 1155h-315l184 358h336z" />
    <glyph glyph-name="ocircumflex" unicode="&#xf4;" horiz-adv-x="1060" 
d="M528 776q-69 0 -69 -129v-233q0 -129 69 -129q70 0 70 129v233q0 129 -70 129zM528 -23q-489 0 -489 553t489 553q490 0 490 -553t-490 -553zM360 1513h336l185 -358h-275l-78 152l-77 -152h-275z" />
    <glyph glyph-name="otilde" unicode="&#xf5;" horiz-adv-x="1060" 
d="M528 776q-69 0 -69 -129v-233q0 -129 69 -129q70 0 70 129v233q0 129 -70 129zM528 -23q-489 0 -489 553t489 553q490 0 490 -553t-490 -553zM637 1147q-48 0 -113 31.5t-88 31.5q-26 0 -43.5 -16.5t-17.5 -46.5h-185q0 74 25 142t80 116.5t129 48.5q48 0 113 -31.5
t88 -31.5q26 0 43.5 16.5t17.5 46.5h184q0 -74 -24.5 -142t-79.5 -116.5t-129 -48.5z" />
    <glyph glyph-name="odieresis" unicode="&#xf6;" horiz-adv-x="1060" 
d="M528 776q-69 0 -69 -129v-233q0 -129 69 -129q70 0 70 129v233q0 129 -70 129zM528 -23q-489 0 -489 553t489 553q490 0 490 -553t-490 -553zM94 1376q0 94 57 150.5t152 56.5q92 0 148.5 -56.5t56.5 -150.5t-56.5 -151.5t-148.5 -57.5q-95 0 -152 57.5t-57 151.5z
M549 1376q0 94 57 150.5t152 56.5q92 0 148.5 -56.5t56.5 -150.5t-56.5 -151.5t-148.5 -57.5q-95 0 -152 57.5t-57 151.5z" />
    <glyph glyph-name="divide" unicode="&#xf7;" horiz-adv-x="794" 
d="M193 1067q0 94 56 150.5t150 56.5t150.5 -56.5t56.5 -150.5t-56.5 -150.5t-150.5 -56.5t-150 56.5t-56 150.5zM39 795h719v-277h-719v277zM193 248q0 93 56.5 150t149.5 57t150 -57t57 -150q0 -94 -56.5 -151.5t-150.5 -57.5q-93 0 -149.5 57.5t-56.5 151.5z" />
    <glyph glyph-name="oslash" unicode="&#xf8;" horiz-adv-x="1060" 
d="M528 776q-69 0 -69 -129v-233q0 -129 69 -129q70 0 70 129v233q0 129 -70 129zM528 -23q-489 0 -489 553t489 553q490 0 490 -553t-490 -553zM836 1083h176l-795 -1106h-176z" />
    <glyph glyph-name="ugrave" unicode="&#xf9;" 
d="M63 1061h410v-619q0 -64 22.5 -97.5t53.5 -33.5q24 0 42.5 22.5t18.5 57.5v670h410v-1061h-410v174q-62 -197 -262 -197q-56 0 -104.5 18.5t-90.5 58t-66 112.5t-24 172v723zM641 1513l184 -358h-315l-205 358h336z" />
    <glyph glyph-name="uacute" unicode="&#xfa;" 
d="M63 1061h410v-619q0 -64 22.5 -97.5t53.5 -33.5q24 0 42.5 22.5t18.5 57.5v670h410v-1061h-410v174q-62 -197 -262 -197q-56 0 -104.5 18.5t-90.5 58t-66 112.5t-24 172v723zM580 1155h-316l185 358h335z" />
    <glyph glyph-name="ucircumflex" unicode="&#xfb;" 
d="M63 1061h410v-619q0 -64 22.5 -97.5t53.5 -33.5q24 0 42.5 22.5t18.5 57.5v670h410v-1061h-410v174q-62 -197 -262 -197q-56 0 -104.5 18.5t-90.5 58t-66 112.5t-24 172v723zM375 1513h336l184 -358h-274l-78 152l-78 -152h-275z" />
    <glyph glyph-name="udieresis" unicode="&#xfc;" 
d="M63 1061h410v-619q0 -64 22.5 -97.5t53.5 -33.5q24 0 42.5 22.5t18.5 57.5v670h410v-1061h-410v174q-62 -197 -262 -197q-56 0 -104.5 18.5t-90.5 58t-66 112.5t-24 172v723zM109 1376q0 94 56.5 150.5t151.5 56.5q92 0 148.5 -56.5t56.5 -150.5t-56.5 -151.5
t-148.5 -57.5q-95 0 -151.5 57.5t-56.5 151.5zM563 1376q0 94 57 150.5t152 56.5q92 0 148.5 -56.5t56.5 -150.5t-56.5 -151.5t-148.5 -57.5q-95 0 -152 57.5t-57 151.5z" />
    <glyph glyph-name="yacute" unicode="&#xfd;" horiz-adv-x="1077" 
d="M12 1061h422l96 -715l109 715h422l-250 -1012q-67 -272 -218.5 -362.5t-428.5 -28.5v307q153 -33 230.5 -15t88.5 81h-192zM573 1155h-315l184 358h336z" />
    <glyph glyph-name="thorn" unicode="&#xfe;" horiz-adv-x="1083" 
d="M475 -346h-409v1763h409v-479q78 145 236 145q161 0 246 -140.5t85 -416.5q0 -274 -84 -411.5t-247 -137.5q-157 0 -236 146v-469zM545 287q25 0 38 16t21 67.5t8 149.5q0 147 -16 200.5t-51 53.5q-31 0 -50.5 -33.5t-19.5 -95.5v-229q0 -62 19.5 -95.5t50.5 -33.5z" />
    <glyph glyph-name="ydieresis" unicode="&#xff;" horiz-adv-x="1077" 
d="M12 1061h422l96 -715l109 715h422l-250 -1012q-67 -272 -218.5 -362.5t-428.5 -28.5v307q153 -33 230.5 -15t88.5 81h-192zM102 1376q0 94 57 150.5t152 56.5q92 0 148.5 -56.5t56.5 -150.5t-56.5 -151.5t-148.5 -57.5q-95 0 -152 57.5t-57 151.5zM557 1376
q0 94 57 150.5t152 56.5q92 0 148.5 -56.5t56.5 -150.5t-56.5 -151.5t-148.5 -57.5q-95 0 -152 57.5t-57 151.5z" />
    <glyph glyph-name="Amacron" unicode="&#x100;" horiz-adv-x="1239" 
d="M1210 0h-444l-25 164h-249l-23 -164h-444l290 1391h605zM539 492h155l-80 536zM293 1518v225h655v-225h-655z" />
    <glyph glyph-name="amacron" unicode="&#x101;" horiz-adv-x="1081" 
d="M1024 0h-410v70q-107 -93 -262 -93q-129 0 -221 76t-92 219q0 163 100.5 252.5t259.5 89.5q130 0 215 -57v127q0 43 -20 67.5t-47 24.5q-28 0 -49 -24.5t-21 -67.5v-18h-409v18q0 83 27 151t72.5 113.5t107.5 76.5t130 44.5t142 13.5q93 0 175.5 -22.5t151.5 -68.5
t109.5 -125.5t40.5 -182.5v-684zM451 315q0 -35 25.5 -53t60.5 -18q32 0 54.5 16t22.5 45v21q0 29 -23 46t-54 17q-35 0 -60.5 -19.5t-25.5 -54.5zM213 1167v226h655v-226h-655z" />
    <glyph glyph-name="Abreve" unicode="&#x102;" horiz-adv-x="1239" 
d="M1210 0h-444l-25 164h-249l-23 -164h-444l290 1391h605zM539 492h155l-80 536zM956 1853q0 -159 -99.5 -248t-235.5 -89q-64 0 -123.5 21.5t-107.5 62t-76.5 106.5t-28.5 147h225q0 -51 33 -78.5t78 -27.5t77.5 27.5t32.5 78.5h225z" />
    <glyph glyph-name="abreve" unicode="&#x103;" horiz-adv-x="1081" 
d="M1024 0h-410v70q-107 -93 -262 -93q-129 0 -221 76t-92 219q0 163 100.5 252.5t259.5 89.5q130 0 215 -57v127q0 43 -20 67.5t-47 24.5q-28 0 -49 -24.5t-21 -67.5v-18h-409v18q0 83 27 151t72.5 113.5t107.5 76.5t130 44.5t142 13.5q93 0 175.5 -22.5t151.5 -68.5
t109.5 -125.5t40.5 -182.5v-684zM451 315q0 -35 25.5 -53t60.5 -18q32 0 54.5 16t22.5 45v21q0 29 -23 46t-54 17q-35 0 -60.5 -19.5t-25.5 -54.5zM877 1503q0 -159 -100 -248.5t-236 -89.5t-236 89.5t-100 248.5h225q0 -51 33 -78.5t78 -27.5t77.5 27.5t32.5 78.5h226z" />
    <glyph glyph-name="Aogonek" unicode="&#x104;" horiz-adv-x="1239" 
d="M1210 0h-444l-25 164h-249l-23 -164h-444l290 1391h605zM539 492h155l-80 536zM1135 8q-42 -33 -69.5 -70.5t-27.5 -68.5q0 -30 28.5 -48t86.5 -18v-225q-178 0 -271.5 57.5t-93.5 145.5q0 58 42.5 117.5t123.5 109.5h181z" />
    <glyph glyph-name="aogonek" unicode="&#x105;" horiz-adv-x="1081" 
d="M1024 0h-410v70q-107 -93 -262 -93q-129 0 -221 76t-92 219q0 163 100.5 252.5t259.5 89.5q130 0 215 -57v127q0 43 -20 67.5t-47 24.5q-28 0 -49 -24.5t-21 -67.5v-18h-409v18q0 83 27 151t72.5 113.5t107.5 76.5t130 44.5t142 13.5q93 0 175.5 -22.5t151.5 -68.5
t109.5 -125.5t40.5 -182.5v-684zM451 315q0 -35 25.5 -53t60.5 -18q32 0 54.5 16t22.5 45v21q0 29 -23 46t-54 17q-35 0 -60.5 -19.5t-25.5 -54.5zM911 8q-42 -32 -69 -70t-27 -69q0 -30 28.5 -48t86.5 -18v-225q-178 0 -271.5 57.5t-93.5 145.5q0 58 42.5 117.5
t123.5 109.5h180z" />
    <glyph glyph-name="Cacute" unicode="&#x106;" horiz-adv-x="1187" 
d="M604 1090q-61 0 -83.5 -60.5t-22.5 -230.5v-205q0 -171 22.5 -232t83.5 -61t84 52t23 169v41h430v-41q0 -143 -40.5 -250.5t-114 -172t-169 -95.5t-213.5 -31q-289 0 -423 172.5t-134 550.5t134 549.5t423 171.5q118 0 213.5 -31t169 -95.5t114 -172t40.5 -250.5v-82
h-430v82q0 113 -26 167.5t-81 54.5zM629 1505h-316l185 359h336z" />
    <glyph glyph-name="cacute" unicode="&#x107;" horiz-adv-x="1036" 
d="M530 776q-69 0 -69 -129v-233q0 -129 69 -129q56 0 56 129v10h409v-21q0 -96 -28.5 -171.5t-74 -122.5t-108 -77.5t-125 -42.5t-129.5 -12q-489 0 -489 553t489 553q69 0 130 -10t124.5 -39t108.5 -74.5t73.5 -123.5t28.5 -179v-122h-409v112q0 129 -56 129zM553 1155
h-315l184 358h336z" />
    <glyph glyph-name="Ccircumflex" unicode="&#x108;" horiz-adv-x="1187" 
d="M604 1090q-61 0 -83.5 -60.5t-22.5 -230.5v-205q0 -171 22.5 -232t83.5 -61t84 52t23 169v41h430v-41q0 -143 -40.5 -250.5t-114 -172t-169 -95.5t-213.5 -31q-289 0 -423 172.5t-134 550.5t134 549.5t423 171.5q118 0 213.5 -31t169 -95.5t114 -172t40.5 -250.5v-82
h-430v82q0 113 -26 167.5t-81 54.5zM424 1864h336l184 -359h-274l-78 152l-78 -152h-274z" />
    <glyph glyph-name="ccircumflex" unicode="&#x109;" horiz-adv-x="1036" 
d="M530 776q-69 0 -69 -129v-233q0 -129 69 -129q56 0 56 129v10h409v-21q0 -96 -28.5 -171.5t-74 -122.5t-108 -77.5t-125 -42.5t-129.5 -12q-489 0 -489 553t489 553q69 0 130 -10t124.5 -39t108.5 -74.5t73.5 -123.5t28.5 -179v-122h-409v112q0 129 -56 129zM348 1513
h336l184 -358h-274l-78 152l-78 -152h-274z" />
    <glyph glyph-name="Cdotaccent" unicode="&#x10a;" horiz-adv-x="1187" 
d="M604 1090q-61 0 -83.5 -60.5t-22.5 -230.5v-205q0 -171 22.5 -232t83.5 -61t84 52t23 169v41h430v-41q0 -143 -40.5 -250.5t-114 -172t-169 -95.5t-213.5 -31q-289 0 -423 172.5t-134 550.5t134 549.5t423 171.5q118 0 213.5 -31t169 -95.5t114 -172t40.5 -250.5v-82
h-430v82q0 113 -26 167.5t-81 54.5zM387 1726q0 94 57 150.5t152 56.5q92 0 148.5 -56.5t56.5 -150.5t-56.5 -151t-148.5 -57q-95 0 -152 57t-57 151z" />
    <glyph glyph-name="cdotaccent" unicode="&#x10b;" horiz-adv-x="1036" 
d="M530 776q-69 0 -69 -129v-233q0 -129 69 -129q56 0 56 129v10h409v-21q0 -96 -28.5 -171.5t-74 -122.5t-108 -77.5t-125 -42.5t-129.5 -12q-489 0 -489 553t489 553q69 0 130 -10t124.5 -39t108.5 -74.5t73.5 -123.5t28.5 -179v-122h-409v112q0 129 -56 129zM311 1376
q0 94 57 150.5t152 56.5q92 0 148.5 -56.5t56.5 -150.5t-56.5 -151.5t-148.5 -57.5q-95 0 -152 57.5t-57 151.5z" />
    <glyph glyph-name="Ccaron" unicode="&#x10c;" horiz-adv-x="1187" 
d="M604 1090q-61 0 -83.5 -60.5t-22.5 -230.5v-205q0 -171 22.5 -232t83.5 -61t84 52t23 169v41h430v-41q0 -143 -40.5 -250.5t-114 -172t-169 -95.5t-213.5 -31q-289 0 -423 172.5t-134 550.5t134 549.5t423 171.5q118 0 213.5 -31t169 -95.5t114 -172t40.5 -250.5v-82
h-430v82q0 113 -26 167.5t-81 54.5zM424 1505l-184 359h274l78 -152l78 152h274l-184 -359h-336z" />
    <glyph glyph-name="ccaron" unicode="&#x10d;" horiz-adv-x="1036" 
d="M530 776q-69 0 -69 -129v-233q0 -129 69 -129q56 0 56 129v10h409v-21q0 -96 -28.5 -171.5t-74 -122.5t-108 -77.5t-125 -42.5t-129.5 -12q-489 0 -489 553t489 553q69 0 130 -10t124.5 -39t108.5 -74.5t73.5 -123.5t28.5 -179v-122h-409v112q0 129 -56 129zM348 1155
l-184 358h274l78 -151l78 151h274l-184 -358h-336z" />
    <glyph glyph-name="Dcaron" unicode="&#x10e;" horiz-adv-x="1216" 
d="M76 0v1391h485q300 0 453 -178t153 -519q0 -339 -153 -516.5t-453 -177.5h-485zM541 1063h-35v-735h35q99 0 140.5 89t41.5 277q0 190 -41.5 279.5t-140.5 89.5zM438 1505l-184 359h274l78 -152l78 152h274l-184 -359h-336z" />
    <glyph glyph-name="dcaron" unicode="&#x10f;" horiz-adv-x="1587" 
d="M1049 0h-410v123q-79 -146 -236 -146q-163 0 -247 137.5t-84 411.5q0 276 85 416.5t246 140.5q158 0 236 -145v479h410v-1417zM569 776q-69 0 -69 -129v-233q0 -129 69 -129q70 0 70 129v233q0 129 -70 129zM1389 840h-287l45 551h389z" />
    <glyph glyph-name="Dcroat" unicode="&#x110;" horiz-adv-x="1216" 
d="M78 584h-76v204h76v603h485q300 0 453 -178t153 -519q0 -339 -153 -516.5t-453 -177.5h-485v584zM543 1063h-35v-275h94v-204h-94v-256h35q99 0 140.5 89t41.5 277q0 190 -41.5 279.5t-140.5 89.5z" />
    <glyph glyph-name="dcroat" unicode="&#x111;" horiz-adv-x="1083" 
d="M1040 0h-409v123q-79 -146 -236 -146q-163 0 -247.5 137.5t-84.5 411.5q0 276 85.5 416.5t246.5 140.5q158 0 236 -145v479h409v-1417zM561 776q-69 0 -69 -129v-233q0 -129 69 -129q70 0 70 129v233q0 129 -70 129zM444 1161v144h697v-144h-697z" />
    <glyph glyph-name="Emacron" unicode="&#x112;" horiz-adv-x="1024" 
d="M76 0v1391h872v-328h-442v-199h381v-327h-381v-209h463v-328h-893zM184 1518v225h656v-225h-656z" />
    <glyph glyph-name="emacron" unicode="&#x113;" horiz-adv-x="1036" 
d="M530 -23q-489 0 -489 553t489 553q69 0 130 -10t124.5 -39t108.5 -74.5t73.5 -123.5t28.5 -179v-190h-534v-53q0 -129 69 -129q56 0 56 129v6h409v-17q0 -96 -28.5 -171.5t-74 -122.5t-108 -77.5t-125 -42.5t-129.5 -12zM530 776q-28 0 -48.5 -28.5t-20.5 -96.5h125v6
q0 119 -56 119zM190 1167v226h656v-226h-656z" />
    <glyph glyph-name="Ebreve" unicode="&#x114;" horiz-adv-x="1024" 
d="M76 0v1391h872v-328h-442v-199h381v-327h-381v-209h463v-328h-893zM848 1853q0 -81 -28.5 -147t-76.5 -106.5t-107.5 -62t-123.5 -21.5t-123.5 21.5t-107.5 62t-76.5 106.5t-28.5 147h225q0 -51 33 -78.5t78 -27.5t78 27.5t33 78.5h225z" />
    <glyph glyph-name="ebreve" unicode="&#x115;" horiz-adv-x="1036" 
d="M530 -23q-489 0 -489 553t489 553q69 0 130 -10t124.5 -39t108.5 -74.5t73.5 -123.5t28.5 -179v-190h-534v-53q0 -129 69 -129q56 0 56 129v6h409v-17q0 -96 -28.5 -171.5t-74 -122.5t-108 -77.5t-125 -42.5t-129.5 -12zM530 776q-28 0 -48.5 -28.5t-20.5 -96.5h125v6
q0 119 -56 119zM854 1503q0 -159 -100 -248.5t-236 -89.5t-236 89.5t-100 248.5h226q0 -51 32.5 -78.5t77.5 -27.5t78 27.5t33 78.5h225z" />
    <glyph glyph-name="Edotaccent" unicode="&#x116;" horiz-adv-x="1024" 
d="M76 0v1391h872v-328h-442v-199h381v-327h-381v-209h463v-328h-893zM305 1726q0 94 57 150.5t152 56.5q92 0 148.5 -56.5t56.5 -150.5t-56.5 -151t-148.5 -57q-95 0 -152 57t-57 151z" />
    <glyph glyph-name="edotaccent" unicode="&#x117;" horiz-adv-x="1036" 
d="M530 -23q-489 0 -489 553t489 553q69 0 130 -10t124.5 -39t108.5 -74.5t73.5 -123.5t28.5 -179v-190h-534v-53q0 -129 69 -129q56 0 56 129v6h409v-17q0 -96 -28.5 -171.5t-74 -122.5t-108 -77.5t-125 -42.5t-129.5 -12zM530 776q-28 0 -48.5 -28.5t-20.5 -96.5h125v6
q0 119 -56 119zM311 1376q0 94 57 150.5t152 56.5q92 0 148.5 -56.5t56.5 -150.5t-56.5 -151.5t-148.5 -57.5q-95 0 -152 57.5t-57 151.5z" />
    <glyph glyph-name="Eogonek" unicode="&#x118;" horiz-adv-x="946" 
d="M63 0v1391h873v-328h-442v-199h380v-327h-380v-209h462v-328h-893zM905 8q-42 -32 -69 -70t-27 -69q0 -30 28.5 -48t86.5 -18v-225q-178 0 -271.5 57.5t-93.5 145.5q0 58 42.5 117.5t123.5 109.5h180z" />
    <glyph glyph-name="eogonek" unicode="&#x119;" horiz-adv-x="1036" 
d="M530 -23q-489 0 -489 553t489 553q69 0 130 -10t124.5 -39t108.5 -74.5t73.5 -123.5t28.5 -179v-190h-534v-53q0 -129 69 -129q56 0 56 129v6h409v-17q0 -96 -28.5 -171.5t-74 -122.5t-108 -77.5t-125 -42.5t-129.5 -12zM530 776q-28 0 -48.5 -28.5t-20.5 -96.5h125v6
q0 119 -56 119zM641 8q-42 -32 -69 -70t-27 -69q0 -30 28 -48t86 -18v-225q-178 0 -271 57.5t-93 145.5q0 58 42.5 117.5t123.5 109.5h180z" />
    <glyph glyph-name="Ecaron" unicode="&#x11a;" horiz-adv-x="1024" 
d="M76 0v1391h872v-328h-442v-199h381v-327h-381v-209h463v-328h-893zM342 1505l-184 359h274l78 -152l78 152h274l-184 -359h-336z" />
    <glyph glyph-name="ecaron" unicode="&#x11b;" horiz-adv-x="1036" 
d="M530 -23q-489 0 -489 553t489 553q69 0 130 -10t124.5 -39t108.5 -74.5t73.5 -123.5t28.5 -179v-190h-534v-53q0 -129 69 -129q56 0 56 129v6h409v-17q0 -96 -28.5 -171.5t-74 -122.5t-108 -77.5t-125 -42.5t-129.5 -12zM530 776q-28 0 -48.5 -28.5t-20.5 -96.5h125v6
q0 119 -56 119zM348 1155l-184 358h274l78 -151l78 151h274l-184 -358h-336z" />
    <glyph glyph-name="Gcircumflex" unicode="&#x11c;" horiz-adv-x="1189" 
d="M604 1090q-61 0 -83.5 -60.5t-22.5 -230.5v-205q0 -171 22.5 -232t83.5 -61q105 0 105 160v8h-134v276h566v-223q0 -143 -40.5 -250.5t-114 -172t-169 -95.5t-213.5 -31q-289 0 -423 172.5t-134 550.5t134 549.5t423 171.5q118 0 213.5 -31t169 -95.5t114 -172
t40.5 -250.5v-51h-430v51q0 113 -26 167.5t-81 54.5zM426 1864h336l184 -359h-274l-78 152l-78 -152h-274z" />
    <glyph glyph-name="gcircumflex" unicode="&#x11d;" horiz-adv-x="1083" 
d="M170 -322v308q75 -16 127.5 -24t106 -11.5t87.5 5t62 27t40.5 52.5t12.5 84v43q-79 -146 -235 -146q-332 0 -332 535q0 532 332 532q157 0 235 -145v123h410v-911q0 -142 -48 -247.5t-130 -165.5t-190.5 -86.5t-229.5 -18.5t-248 46zM537 774q-70 0 -70 -129v-190
q0 -129 70 -129q69 0 69 129v190q0 129 -69 129zM373 1513h336l184 -358h-275l-77 152l-78 -152h-275z" />
    <glyph glyph-name="Gbreve" unicode="&#x11e;" horiz-adv-x="1189" 
d="M604 1090q-61 0 -83.5 -60.5t-22.5 -230.5v-205q0 -171 22.5 -232t83.5 -61q105 0 105 160v8h-134v276h566v-223q0 -143 -40.5 -250.5t-114 -172t-169 -95.5t-213.5 -31q-289 0 -423 172.5t-134 550.5t134 549.5t423 171.5q118 0 213.5 -31t169 -95.5t114 -172
t40.5 -250.5v-51h-430v51q0 113 -26 167.5t-81 54.5zM932 1853q0 -81 -28.5 -147t-76.5 -106.5t-107.5 -62t-123.5 -21.5t-123.5 21.5t-107.5 62t-76.5 106.5t-28.5 147h225q0 -51 33 -78.5t78 -27.5t78 27.5t33 78.5h225z" />
    <glyph glyph-name="gbreve" unicode="&#x11f;" horiz-adv-x="1083" 
d="M170 -322v308q75 -16 127.5 -24t106 -11.5t87.5 5t62 27t40.5 52.5t12.5 84v43q-79 -146 -235 -146q-332 0 -332 535q0 532 332 532q157 0 235 -145v123h410v-911q0 -142 -48 -247.5t-130 -165.5t-190.5 -86.5t-229.5 -18.5t-248 46zM537 774q-70 0 -70 -129v-190
q0 -129 70 -129q69 0 69 129v190q0 129 -69 129zM653 1503h226q0 -159 -100 -248.5t-236 -89.5t-236 89.5t-100 248.5h225q0 -51 33 -78.5t78 -27.5t77.5 27.5t32.5 78.5z" />
    <glyph glyph-name="Gdotaccent" unicode="&#x120;" horiz-adv-x="1189" 
d="M604 1090q-61 0 -83.5 -60.5t-22.5 -230.5v-205q0 -171 22.5 -232t83.5 -61q105 0 105 160v8h-134v276h566v-223q0 -143 -40.5 -250.5t-114 -172t-169 -95.5t-213.5 -31q-289 0 -423 172.5t-134 550.5t134 549.5t423 171.5q118 0 213.5 -31t169 -95.5t114 -172
t40.5 -250.5v-51h-430v51q0 113 -26 167.5t-81 54.5zM389 1726q0 94 57 150.5t152 56.5q92 0 148.5 -56.5t56.5 -150.5t-56.5 -151t-148.5 -57q-95 0 -152 57t-57 151z" />
    <glyph glyph-name="gdotaccent" unicode="&#x121;" horiz-adv-x="1083" 
d="M170 -322v308q75 -16 127.5 -24t106 -11.5t87.5 5t62 27t40.5 52.5t12.5 84v43q-79 -146 -235 -146q-332 0 -332 535q0 532 332 532q157 0 235 -145v123h410v-911q0 -142 -48 -247.5t-130 -165.5t-190.5 -86.5t-229.5 -18.5t-248 46zM537 774q-70 0 -70 -129v-190
q0 -129 70 -129q69 0 69 129v190q0 129 -69 129zM336 1376q0 94 57 150.5t152 56.5q92 0 148.5 -56.5t56.5 -150.5t-56.5 -151.5t-148.5 -57.5q-95 0 -152 57.5t-57 151.5z" />
    <glyph glyph-name="uni0122" unicode="&#x122;" horiz-adv-x="1189" 
d="M604 1090q-61 0 -83.5 -60.5t-22.5 -230.5v-205q0 -171 22.5 -232t83.5 -61q105 0 105 160v8h-134v276h566v-223q0 -143 -40.5 -250.5t-114 -172t-169 -95.5t-213.5 -31q-289 0 -423 172.5t-134 550.5t134 549.5t423 171.5q118 0 213.5 -31t169 -95.5t114 -172
t40.5 -250.5v-51h-430v51q0 113 -26 167.5t-81 54.5zM614 -489h-286l45 387h389z" />
    <glyph glyph-name="uni0123" unicode="&#x123;" horiz-adv-x="1083" 
d="M170 -322v308q75 -16 127.5 -24t106 -11.5t87.5 5t62 27t40.5 52.5t12.5 84v43q-79 -146 -235 -146q-332 0 -332 535q0 532 332 532q157 0 235 -145v123h410v-911q0 -142 -48 -247.5t-130 -165.5t-190.5 -86.5t-229.5 -18.5t-248 46zM537 774q-70 0 -70 -129v-190
q0 -129 70 -129q69 0 69 129v190q0 129 -69 129zM473 1618h287l-45 -428h-389z" />
    <glyph glyph-name="Hcircumflex" unicode="&#x124;" horiz-adv-x="1220" 
d="M1141 0h-430v410h-205v-410h-430v1391h430v-654h205v654h430v-1391zM440 1864h336l185 -359h-275l-78 152l-78 -152h-274z" />
    <glyph glyph-name="hcircumflex" unicode="&#x125;" 
d="M473 0h-410v1417h410v-530q61 196 262 196q44 0 84 -10.5t77.5 -37t64 -66.5t43 -103t16.5 -143v-723h-410v618q0 65 -22 98.5t-53 33.5q-25 0 -43.5 -22.5t-18.5 -57.5v-670zM100 1858h336l185 -359h-275l-78 152l-78 -152h-274z" />
    <glyph glyph-name="Hbar" unicode="&#x126;" horiz-adv-x="1220" 
d="M1141 0h-430v410h-205v-410h-430v1391h430v-654h205v654h430v-1391zM283 1518v225h655v-225h-655z" />
    <glyph glyph-name="hbar" unicode="&#x127;" 
d="M473 0h-410v1417h410v-530q61 196 262 196q44 0 84 -10.5t77.5 -37t64 -66.5t43 -103t16.5 -143v-723h-410v618q0 65 -22 98.5t-53 33.5q-25 0 -43.5 -22.5t-18.5 -57.5v-670zM-57 1167v144h696v-144h-696z" />
    <glyph glyph-name="Itilde" unicode="&#x128;" horiz-adv-x="569" 
d="M500 0h-430v1391h430v-1391zM391 1497q-48 0 -113 32t-88 32q-26 0 -43.5 -17t-17.5 -47h-184q0 74 24.5 142t79.5 116.5t129 48.5q48 0 113 -31.5t88 -31.5q26 0 43.5 16.5t17.5 46.5h185q0 -74 -25 -142t-80 -116.5t-129 -48.5z" />
    <glyph glyph-name="itilde" unicode="&#x129;" horiz-adv-x="475" 
d="M489 0h-409v1061h409v-1061zM344 1147q-48 0 -113 31.5t-88 31.5q-26 0 -43.5 -16.5t-17.5 -46.5h-184q0 74 24.5 142t79.5 116.5t129 48.5q48 0 113 -31.5t88 -31.5q26 0 43.5 16.5t17.5 46.5h185q0 -74 -25 -142t-80 -116.5t-129 -48.5z" />
    <glyph glyph-name="Imacron" unicode="&#x12a;" horiz-adv-x="569" 
d="M500 0h-430v1391h430v-1391zM-43 1518v225h655v-225h-655z" />
    <glyph glyph-name="imacron" unicode="&#x12b;" horiz-adv-x="475" 
d="M489 0h-409v1061h409v-1061zM-90 1167v226h655v-226h-655z" />
    <glyph glyph-name="Iogonek" unicode="&#x12e;" horiz-adv-x="569" 
d="M500 0h-430v1391h430v-1391zM451 8q-42 -33 -69.5 -70.5t-27.5 -68.5q0 -30 28.5 -48t86.5 -18v-225q-178 0 -271.5 57.5t-93.5 145.5q0 58 42.5 117.5t123.5 109.5h181z" />
    <glyph glyph-name="iogonek" unicode="&#x12f;" horiz-adv-x="569" 
d="M59 1348q0 101 62.5 163t163.5 62t163 -62t62 -163t-62 -163.5t-163 -62.5t-163.5 62.5t-62.5 163.5zM489 0h-409v1061h409v-1061zM451 8q-42 -33 -69.5 -70.5t-27.5 -68.5q0 -30 28.5 -48t86.5 -18v-225q-178 0 -271.5 57.5t-93.5 145.5q0 58 42.5 117.5t123.5 109.5
h181z" />
    <glyph glyph-name="Idotaccent" unicode="&#x130;" horiz-adv-x="569" 
d="M500 0h-430v1391h430v-1391zM78 1726q0 94 57 150.5t152 56.5q92 0 148.5 -56.5t56.5 -150.5t-56.5 -151t-148.5 -57q-95 0 -152 57t-57 151z" />
    <glyph glyph-name="dotlessi" unicode="&#x131;" horiz-adv-x="569" 
d="M489 0h-409v1061h409v-1061z" />
    <glyph glyph-name="IJ" unicode="&#x132;" horiz-adv-x="1452" 
d="M512 0h-430v1391h430v-1391zM1380 532q0 -129 -31 -229t-81.5 -160.5t-119.5 -99.5t-138.5 -53.5t-146.5 -15.5t-136 7.5t-113 22.5v328q336 -80 336 174v885h430v-859z" />
    <glyph glyph-name="ij" unicode="&#x133;" horiz-adv-x="1163" 
d="M68 1348q0 101 62 163t163 62t163 -62t62 -163t-62 -163.5t-163 -62.5t-163 62.5t-62 163.5zM498 0h-410v1061h410v-1061zM645 1348q0 -101 62 -163.5t163 -62.5t163.5 62.5t62.5 163.5t-62.5 163t-163.5 62t-163 -62t-62 -163zM414 -354v307q45 -7 80.5 -7.5t68.5 8.5
t55 29t35 56.5t13 87.5v934h409v-903q0 -190 -87 -319.5t-237 -179t-337 -13.5z" />
    <glyph glyph-name="Jcircumflex" unicode="&#x134;" horiz-adv-x="882" 
d="M819 532q0 -129 -31 -229t-81.5 -160.5t-119.5 -99.5t-138.5 -53.5t-146.5 -15.5t-136 7.5t-113 22.5v328q336 -80 336 174v885h430v-859zM432 1864h336l184 -359h-274l-78 152l-78 -152h-274z" />
    <glyph glyph-name="jcircumflex" unicode="&#x135;" horiz-adv-x="593" 
d="M-147 -354v307q53 -11 99 -7.5t79.5 19.5t53 57t19.5 105v934h410v-903q0 -190 -87 -319.5t-237 -179t-337 -13.5zM127 1513h336l184 -358h-274l-78 152l-78 -152h-274z" />
    <glyph glyph-name="uni0136" unicode="&#x136;" horiz-adv-x="1226" 
d="M506 0h-430v1391h430v-504l217 504h442l-303 -629l326 -762h-486l-194 541h-2v-541zM612 -530h-286l45 428h389z" />
    <glyph glyph-name="uni0137" unicode="&#x137;" horiz-adv-x="1132" 
d="M477 0h-409v1417h409v-706l164 350h455l-262 -449l272 -612h-442l-185 483h-2v-483zM612 -530h-286l45 428h389z" />
    <glyph glyph-name="kgreenlandic" unicode="&#x138;" horiz-adv-x="1132" 
d="M477 0h-409v1061h409v-350l164 350h455l-262 -449l272 -612h-442l-185 483h-2v-483z" />
    <glyph glyph-name="Lacute" unicode="&#x139;" horiz-adv-x="997" 
d="M76 0v1391h430v-1043h436v-348h-866zM350 1505h-315l184 359h336z" />
    <glyph glyph-name="lacute" unicode="&#x13a;" horiz-adv-x="524" 
d="M465 1417v-1417h-410v1417h410zM297 1503h-315l184 359h336z" />
    <glyph glyph-name="uni013B" unicode="&#x13b;" horiz-adv-x="997" 
d="M76 0v1391h430v-1043h436v-348h-866zM610 -530h-286l45 428h389z" />
    <glyph glyph-name="uni013C" unicode="&#x13c;" horiz-adv-x="524" 
d="M465 1417v-1417h-410v1417h410zM315 -530h-286l45 428h389z" />
    <glyph glyph-name="Lcaron" unicode="&#x13d;" horiz-adv-x="1089" 
d="M76 0v1391h430v-1043h436v-348h-866zM885 840h-287l45 551h389z" />
    <glyph glyph-name="lcaron" unicode="&#x13e;" horiz-adv-x="1028" 
d="M473 1417v-1417h-410v1417h410zM838 840h-287l45 551h389z" />
    <glyph glyph-name="Ldot" unicode="&#x13f;" horiz-adv-x="1105" 
d="M76 0v1391h430v-1043h436v-348h-866zM598 739q0 103 63.5 166.5t167.5 63.5q103 0 166.5 -63.5t63.5 -166.5q0 -104 -63.5 -167.5t-166.5 -63.5q-104 0 -167.5 63.5t-63.5 167.5z" />
    <glyph glyph-name="ldot" unicode="&#x140;" horiz-adv-x="1054" 
d="M473 1417v-1417h-410v1417h410zM551 637q0 103 63.5 166t167.5 63q103 0 166.5 -63t63.5 -166q0 -104 -63.5 -167.5t-166.5 -63.5q-104 0 -167.5 63.5t-63.5 167.5z" />
    <glyph glyph-name="Lslash" unicode="&#x141;" horiz-adv-x="997" 
d="M76 0v1391h430v-1043h436v-348h-866zM676 784l-729 -196l-41 155l727 197z" />
    <glyph glyph-name="lslash" unicode="&#x142;" horiz-adv-x="524" 
d="M465 1417v-1417h-410v1417h410zM-33 608l-43 160l633 170l43 -160z" />
    <glyph glyph-name="Nacute" unicode="&#x143;" horiz-adv-x="1310" 
d="M479 0h-399v1391h553l198 -838v838h400v-1391h-553l-199 788v-788zM700 1505h-315l184 359h336z" />
    <glyph glyph-name="nacute" unicode="&#x144;" 
d="M473 0h-410v1061h410v-174q61 196 262 196q44 0 84 -10.5t77.5 -37t64 -66.5t43 -103t16.5 -143v-723h-410v618q0 65 -22 98.5t-53 33.5q-25 0 -43.5 -22.5t-18.5 -57.5v-670zM580 1155h-316l185 358h335z" />
    <glyph glyph-name="uni0145" unicode="&#x145;" horiz-adv-x="1310" 
d="M479 0h-399v1391h553l198 -838v838h400v-1391h-553l-199 788v-788zM614 -530h-286l45 428h389z" />
    <glyph glyph-name="uni0146" unicode="&#x146;" 
d="M473 0h-410v1061h410v-174q61 196 262 196q44 0 84 -10.5t77.5 -37t64 -66.5t43 -103t16.5 -143v-723h-410v618q0 65 -22 98.5t-53 33.5q-25 0 -43.5 -22.5t-18.5 -57.5v-670zM610 -530h-286l45 428h389z" />
    <glyph glyph-name="Ncaron" unicode="&#x147;" horiz-adv-x="1310" 
d="M479 0h-399v1391h553l198 -838v838h400v-1391h-553l-199 788v-788zM496 1505l-185 359h275l78 -152l77 152h275l-185 -359h-335z" />
    <glyph glyph-name="ncaron" unicode="&#x148;" 
d="M473 0h-410v1061h410v-174q61 196 262 196q44 0 84 -10.5t77.5 -37t64 -66.5t43 -103t16.5 -143v-723h-410v618q0 65 -22 98.5t-53 33.5q-25 0 -43.5 -22.5t-18.5 -57.5v-670zM375 1155l-185 358h275l78 -151l78 151h274l-184 -358h-336z" />
    <glyph glyph-name="napostrophe" unicode="&#x149;" horiz-adv-x="1495" 
d="M874 0h-409v1061h409v-174q61 196 263 196q56 0 104.5 -18t90 -57.5t65.5 -112.5t24 -172v-723h-409v618q0 64 -22.5 98t-53.5 34q-25 0 -43.5 -22.5t-18.5 -57.5v-670zM332 840h-287l45 551h389z" />
    <glyph glyph-name="Omacron" unicode="&#x14c;" horiz-adv-x="1208" 
d="M602 301q61 0 84 61t23 232v205q0 169 -23 230t-84 61t-83.5 -60.5t-22.5 -230.5v-205q0 -171 22.5 -232t83.5 -61zM602 1417q289 0 423 -171.5t134 -549.5t-134 -550.5t-423 -172.5t-423 172.5t-134 550.5t134 549.5t423 171.5zM276 1518v225h656v-225h-656z" />
    <glyph glyph-name="omacron" unicode="&#x14d;" horiz-adv-x="1060" 
d="M528 776q-69 0 -69 -129v-233q0 -129 69 -129q70 0 70 129v233q0 129 -70 129zM528 -23q-489 0 -489 553t489 553q490 0 490 -553t-490 -553zM203 1167v226h655v-226h-655z" />
    <glyph glyph-name="Obreve" unicode="&#x14e;" horiz-adv-x="1208" 
d="M602 301q61 0 84 61t23 232v205q0 169 -23 230t-84 61t-83.5 -60.5t-22.5 -230.5v-205q0 -171 22.5 -232t83.5 -61zM602 1417q289 0 423 -171.5t134 -549.5t-134 -550.5t-423 -172.5t-423 172.5t-134 550.5t134 549.5t423 171.5zM940 1853q0 -81 -28.5 -147t-76.5 -106.5
t-107.5 -62t-123.5 -21.5t-123.5 21.5t-107.5 62t-76.5 106.5t-28.5 147h226q0 -51 32.5 -78.5t77.5 -27.5t78 27.5t33 78.5h225z" />
    <glyph glyph-name="obreve" unicode="&#x14f;" horiz-adv-x="1060" 
d="M528 776q-69 0 -69 -129v-233q0 -129 69 -129q70 0 70 129v233q0 129 -70 129zM528 -23q-489 0 -489 553t489 553q490 0 490 -553t-490 -553zM866 1503q0 -159 -100 -248.5t-236 -89.5t-235.5 89.5t-99.5 248.5h225q0 -51 32.5 -78.5t77.5 -27.5t78 27.5t33 78.5h225z
" />
    <glyph glyph-name="Ohungarumlaut" unicode="&#x150;" horiz-adv-x="1208" 
d="M602 301q61 0 84 61t23 232v205q0 169 -23 230t-84 61t-83.5 -60.5t-22.5 -230.5v-205q0 -171 22.5 -232t83.5 -61zM602 1417q289 0 423 -171.5t134 -549.5t-134 -550.5t-423 -172.5t-423 172.5t-134 550.5t134 549.5t423 171.5zM453 1505h-275l184 359h295zM821 1505
h-274l184 359h295z" />
    <glyph glyph-name="ohungarumlaut" unicode="&#x151;" horiz-adv-x="1060" 
d="M528 776q-69 0 -69 -129v-233q0 -129 69 -129q70 0 70 129v233q0 129 -70 129zM528 -23q-489 0 -489 553t489 553q490 0 490 -553t-490 -553zM379 1155h-275l185 358h295zM748 1155h-275l184 358h295z" />
    <glyph glyph-name="OE" unicode="&#x152;" horiz-adv-x="1673" 
d="M610 1417q119 0 201 -26h778v-328h-442v-199h381v-327h-381v-209h463v-328h-801q-85 -27 -199 -27q-289 0 -423 172.5t-134 550.5t134 549.5t423 171.5zM610 301q41 0 63.5 34t33 118.5t10.5 242.5q0 157 -10.5 241.5t-33 118.5t-63.5 34t-63.5 -34t-32.5 -118.5
t-10 -241.5q0 -158 10 -242.5t32.5 -118.5t63.5 -34z" />
    <glyph glyph-name="oe" unicode="&#x153;" horiz-adv-x="1611" 
d="M1098 -23q-163 0 -281 103q-118 -103 -278 -103q-490 0 -490 553t490 553q163 0 280 -102q117 102 279 102q69 0 130 -10t124.5 -39t108.5 -74.5t73.5 -123.5t28.5 -179v-174h-535v-69q0 -129 70 -129q55 0 55 129v10h410v-21q0 -96 -28.5 -171.5t-74 -122.5t-108 -77.5
t-125 -42.5t-129.5 -12zM1098 776q-20 0 -34 -12t-21 -26.5t-10.5 -38.5t-4 -37.5t-0.5 -34.5h125v20q0 129 -55 129zM539 285q69 0 69 129v233q0 129 -69 129q-70 0 -70 -129v-233q0 -129 70 -129z" />
    <glyph glyph-name="Racute" unicode="&#x154;" horiz-adv-x="1202" 
d="M506 389v-389h-430v1391h540q256 0 387.5 -131t131.5 -373q0 -138 -49.5 -244t-145.5 -170l223 -473h-485l-141 389h-13h-18zM575 1063h-69v-367h69q54 0 82.5 50.5t28.5 138.5q0 178 -111 178zM637 1505h-315l184 359h336z" />
    <glyph glyph-name="racute" unicode="&#x155;" horiz-adv-x="872" 
d="M473 0h-410v1061h410v-178q64 200 272 200q45 0 89 -8v-411q-80 32 -193 32q-168 0 -168 -94v-602zM471 1155h-315l184 358h336z" />
    <glyph glyph-name="uni0156" unicode="&#x156;" horiz-adv-x="1202" 
d="M506 389v-389h-430v1391h540q256 0 387.5 -131t131.5 -373q0 -138 -49.5 -244t-145.5 -170l223 -473h-485l-141 389h-13h-18zM575 1063h-69v-367h69q54 0 82.5 50.5t28.5 138.5q0 178 -111 178zM612 -530h-286l45 428h389z" />
    <glyph glyph-name="uni0157" unicode="&#x157;" horiz-adv-x="872" 
d="M473 0h-410v1061h410v-178q64 200 272 200q45 0 89 -8v-411q-80 32 -193 32q-168 0 -168 -94v-602zM344 -530h-287l45 428h390z" />
    <glyph glyph-name="Rcaron" unicode="&#x158;" horiz-adv-x="1202" 
d="M506 389v-389h-430v1391h540q256 0 387.5 -131t131.5 -373q0 -138 -49.5 -244t-145.5 -170l223 -473h-485l-141 389h-13h-18zM575 1063h-69v-367h69q54 0 82.5 50.5t28.5 138.5q0 178 -111 178zM432 1505l-184 359h274l78 -152l78 152h274l-184 -359h-336z" />
    <glyph glyph-name="rcaron" unicode="&#x159;" horiz-adv-x="872" 
d="M473 0h-410v1061h410v-178q64 200 272 200q45 0 89 -8v-411q-80 32 -193 32q-168 0 -168 -94v-602zM266 1155l-184 358h274l78 -151l78 151h274l-184 -358h-336z" />
    <glyph glyph-name="Sacute" unicode="&#x15a;" horiz-adv-x="1177" 
d="M690 965q0 62 -34 96.5t-78 34.5q-37 0 -65 -24.5t-28 -65.5q0 -31 27.5 -57t73 -44t103.5 -40.5t118.5 -44.5t118.5 -58t103.5 -79t73 -109.5t27.5 -147.5q0 -94 -30.5 -170.5t-82 -128.5t-121 -87t-146.5 -51t-160 -16q-84 0 -161 16t-147.5 51t-122 87t-82 128.5
t-30.5 170.5v63h430v-63q0 -62 37 -96.5t86 -34.5q41 0 70.5 24.5t29.5 65.5q0 31 -27.5 57t-73 44t-103.5 40.5t-118.5 44.5t-118.5 58t-103.5 79t-73 109.5t-27.5 147.5q0 94 30 170.5t81 128t120 86.5t144.5 51t157.5 16t157.5 -16t144.5 -51t119.5 -87t80.5 -129
t30 -171v-48h-430v50zM625 1505h-316l185 359h335z" />
    <glyph glyph-name="sacute" unicode="&#x15b;" horiz-adv-x="1005" 
d="M571 725q0 25 -18 38t-43 13q-27 0 -45.5 -13t-18.5 -38q0 -19 22.5 -33.5t59 -23.5t83 -21t95 -25t95 -36t83 -53t59 -79t22.5 -110q0 -77 -26 -139.5t-70 -104t-104 -70t-125 -41t-136 -12.5q-90 0 -170.5 21t-147 63t-106 115t-39.5 168v10h389v-10q0 -28 18.5 -42.5
t45.5 -14.5q25 0 43 14.5t18 42.5q0 17 -28.5 30t-73.5 24.5t-100 25.5t-110 37.5t-100 55.5t-73.5 86t-28.5 122q0 94 39 165t105.5 112t146.5 61t170 20t169 -20t145.5 -61t105.5 -112t39 -165v-45h-390v45zM539 1155h-316l185 358h335z" />
    <glyph glyph-name="Scircumflex" unicode="&#x15c;" horiz-adv-x="1177" 
d="M690 965q0 62 -34 96.5t-78 34.5q-37 0 -65 -24.5t-28 -65.5q0 -31 27.5 -57t73 -44t103.5 -40.5t118.5 -44.5t118.5 -58t103.5 -79t73 -109.5t27.5 -147.5q0 -94 -30.5 -170.5t-82 -128.5t-121 -87t-146.5 -51t-160 -16q-84 0 -161 16t-147.5 51t-122 87t-82 128.5
t-30.5 170.5v63h430v-63q0 -62 37 -96.5t86 -34.5q41 0 70.5 24.5t29.5 65.5q0 31 -27.5 57t-73 44t-103.5 40.5t-118.5 44.5t-118.5 58t-103.5 79t-73 109.5t-27.5 147.5q0 94 30 170.5t81 128t120 86.5t144.5 51t157.5 16t157.5 -16t144.5 -51t119.5 -87t80.5 -129
t30 -171v-48h-430v50zM420 1864h336l184 -359h-274l-78 152l-78 -152h-274z" />
    <glyph glyph-name="scircumflex" unicode="&#x15d;" horiz-adv-x="1005" 
d="M571 725q0 25 -18 38t-43 13q-27 0 -45.5 -13t-18.5 -38q0 -19 22.5 -33.5t59 -23.5t83 -21t95 -25t95 -36t83 -53t59 -79t22.5 -110q0 -77 -26 -139.5t-70 -104t-104 -70t-125 -41t-136 -12.5q-90 0 -170.5 21t-147 63t-106 115t-39.5 168v10h389v-10q0 -28 18.5 -42.5
t45.5 -14.5q25 0 43 14.5t18 42.5q0 17 -28.5 30t-73.5 24.5t-100 25.5t-110 37.5t-100 55.5t-73.5 86t-28.5 122q0 94 39 165t105.5 112t146.5 61t170 20t169 -20t145.5 -61t105.5 -112t39 -165v-45h-390v45zM334 1513h336l184 -358h-274l-78 152l-78 -152h-274z" />
    <glyph glyph-name="Scedilla" unicode="&#x15e;" horiz-adv-x="1177" 
d="M690 965q0 62 -34 96.5t-78 34.5q-37 0 -65 -24.5t-28 -65.5q0 -31 27.5 -57t73 -44t103.5 -40.5t118.5 -44.5t118.5 -58t103.5 -79t73 -109.5t27.5 -147.5q0 -94 -30.5 -170.5t-82 -128.5t-121 -87t-146.5 -51t-160 -16q-84 0 -161 16t-147.5 51t-122 87t-82 128.5
t-30.5 170.5v63h430v-63q0 -62 37 -96.5t86 -34.5q41 0 70.5 24.5t29.5 65.5q0 31 -27.5 57t-73 44t-103.5 40.5t-118.5 44.5t-118.5 58t-103.5 79t-73 109.5t-27.5 147.5q0 94 30 170.5t81 128t120 86.5t144.5 51t157.5 16t157.5 -16t144.5 -51t119.5 -87t80.5 -129
t30 -171v-48h-430v50zM477 0h160l-19 -74q92 -18 137.5 -65.5t45.5 -116.5q0 -105 -97 -167t-290 -62v225q149 0 149 45q0 12 -6 19.5t-31.5 13.5t-72.5 6z" />
    <glyph glyph-name="scedilla" unicode="&#x15f;" horiz-adv-x="1005" 
d="M571 725q0 25 -18 38t-43 13q-27 0 -45.5 -13t-18.5 -38q0 -19 22.5 -33.5t59 -23.5t83 -21t95 -25t95 -36t83 -53t59 -79t22.5 -110q0 -77 -26 -139.5t-70 -104t-104 -70t-125 -41t-136 -12.5q-90 0 -170.5 21t-147 63t-106 115t-39.5 168v10h389v-10q0 -28 18.5 -42.5
t45.5 -14.5q25 0 43 14.5t18 42.5q0 17 -28.5 30t-73.5 24.5t-100 25.5t-110 37.5t-100 55.5t-73.5 86t-28.5 122q0 94 39 165t105.5 112t146.5 61t170 20t169 -20t145.5 -61t105.5 -112t39 -165v-45h-390v45zM391 0h160l-19 -74q92 -18 137.5 -65.5t45.5 -116.5
q0 -105 -97 -167t-290 -62v225q149 0 149 45q0 12 -6 19.5t-31.5 13.5t-72.5 6z" />
    <glyph glyph-name="Scaron" unicode="&#x160;" horiz-adv-x="1177" 
d="M690 965q0 62 -34 96.5t-78 34.5q-37 0 -65 -24.5t-28 -65.5q0 -31 27.5 -57t73 -44t103.5 -40.5t118.5 -44.5t118.5 -58t103.5 -79t73 -109.5t27.5 -147.5q0 -94 -30.5 -170.5t-82 -128.5t-121 -87t-146.5 -51t-160 -16q-84 0 -161 16t-147.5 51t-122 87t-82 128.5
t-30.5 170.5v63h430v-63q0 -62 37 -96.5t86 -34.5q41 0 70.5 24.5t29.5 65.5q0 31 -27.5 57t-73 44t-103.5 40.5t-118.5 44.5t-118.5 58t-103.5 79t-73 109.5t-27.5 147.5q0 94 30 170.5t81 128t120 86.5t144.5 51t157.5 16t157.5 -16t144.5 -51t119.5 -87t80.5 -129
t30 -171v-48h-430v50zM420 1505l-184 359h274l78 -152l78 152h274l-184 -359h-336z" />
    <glyph glyph-name="scaron" unicode="&#x161;" horiz-adv-x="1005" 
d="M571 725q0 25 -18 38t-43 13q-27 0 -45.5 -13t-18.5 -38q0 -19 22.5 -33.5t59 -23.5t83 -21t95 -25t95 -36t83 -53t59 -79t22.5 -110q0 -77 -26 -139.5t-70 -104t-104 -70t-125 -41t-136 -12.5q-90 0 -170.5 21t-147 63t-106 115t-39.5 168v10h389v-10q0 -28 18.5 -42.5
t45.5 -14.5q25 0 43 14.5t18 42.5q0 17 -28.5 30t-73.5 24.5t-100 25.5t-110 37.5t-100 55.5t-73.5 86t-28.5 122q0 94 39 165t105.5 112t146.5 61t170 20t169 -20t145.5 -61t105.5 -112t39 -165v-45h-390v45zM334 1155l-184 358h274l78 -151l78 151h274l-184 -358h-336z
" />
    <glyph glyph-name="uni0162" unicode="&#x162;" horiz-adv-x="1093" 
d="M53 1391h983v-328h-276v-1063h-430v1063h-277v328zM453 0h159l-18 -74q92 -18 137 -65.5t45 -116.5q0 -105 -97 -167t-290 -62v225q150 0 150 45q0 12 -6 19.5t-32 13.5t-73 6z" />
    <glyph glyph-name="uni0163" unicode="&#x163;" horiz-adv-x="786" 
d="M748 313v-307q-132 -36 -245.5 -26t-197 53t-131 120t-47.5 173v428h-92v307h92v225h410v-225h163v-307h-163v-336q0 -59 28 -86.5t74.5 -27t108.5 8.5zM508 16h160l-19 -73q92 -18 137 -66t45 -117q0 -105 -97 -167t-290 -62v225q150 0 150 45q0 12 -6 19.5t-32 13.5
t-73 6z" />
    <glyph glyph-name="Tcaron" unicode="&#x164;" horiz-adv-x="1093" 
d="M53 1391h983v-328h-276v-1063h-430v1063h-277v328zM377 1505l-184 359h274l78 -152l78 152h274l-184 -359h-336z" />
    <glyph glyph-name="tcaron" unicode="&#x165;" horiz-adv-x="786" 
d="M748 313v-307q-132 -36 -245.5 -26t-197 53t-131 120t-47.5 173v428h-92v307h92v225h410v-225h163v-307h-163v-336q0 -59 28 -86.5t74.5 -27t108.5 8.5zM162 1401l-185 358h275l78 -151l78 151h274l-184 -358h-336z" />
    <glyph glyph-name="Tbar" unicode="&#x166;" horiz-adv-x="1093" 
d="M53 1391h983v-328h-276v-1063h-430v1063h-277v328zM219 1518v225h655v-225h-655z" />
    <glyph glyph-name="tbar" unicode="&#x167;" horiz-adv-x="786" 
d="M748 313v-307q-132 -36 -245.5 -26t-197 53t-131 120t-47.5 173v428h-92v307h92v225h410v-225h163v-307h-163v-336q0 -59 28 -86.5t74.5 -27t108.5 8.5zM43 526v144h655v-144h-655z" />
    <glyph glyph-name="Utilde" unicode="&#x168;" horiz-adv-x="1200" 
d="M1122 475q0 -119 -29.5 -209.5t-77 -145t-117.5 -88.5t-141 -46.5t-157 -12.5t-157 12.5t-141 46.5t-117.5 88.5t-77 145t-29.5 209.5v916h430v-959q0 -131 92 -131t92 131v959h430v-916zM707 1497q-48 0 -113 32t-88 32q-26 0 -44 -17t-18 -47h-184q0 74 25 142
t80 116.5t129 48.5q48 0 112.5 -31.5t87.5 -31.5q26 0 44 17t18 46h184q0 -74 -24.5 -142t-79.5 -116.5t-129 -48.5z" />
    <glyph glyph-name="utilde" unicode="&#x169;" 
d="M63 1061h410v-619q0 -64 22.5 -97.5t53.5 -33.5q24 0 42.5 22.5t18.5 57.5v670h410v-1061h-410v174q-62 -197 -262 -197q-56 0 -104.5 18.5t-90.5 58t-66 112.5t-24 172v723zM651 1147q-48 0 -112.5 31.5t-87.5 31.5q-26 0 -44 -17t-18 -46h-184q0 74 24.5 142
t79.5 116.5t129 48.5q48 0 113 -31.5t88 -31.5q26 0 43.5 16.5t17.5 46.5h185q0 -74 -25 -142t-80 -116.5t-129 -48.5z" />
    <glyph glyph-name="Umacron" unicode="&#x16a;" horiz-adv-x="1200" 
d="M1122 475q0 -119 -29.5 -209.5t-77 -145t-117.5 -88.5t-141 -46.5t-157 -12.5t-157 12.5t-141 46.5t-117.5 88.5t-77 145t-29.5 209.5v916h430v-959q0 -131 92 -131t92 131v959h430v-916zM272 1518v225h656v-225h-656z" />
    <glyph glyph-name="umacron" unicode="&#x16b;" 
d="M63 1061h410v-619q0 -64 22.5 -97.5t53.5 -33.5q24 0 42.5 22.5t18.5 57.5v670h410v-1061h-410v174q-62 -197 -262 -197q-56 0 -104.5 18.5t-90.5 58t-66 112.5t-24 172v723zM217 1167v226h655v-226h-655z" />
    <glyph glyph-name="Ubreve" unicode="&#x16c;" horiz-adv-x="1200" 
d="M1122 475q0 -119 -29.5 -209.5t-77 -145t-117.5 -88.5t-141 -46.5t-157 -12.5t-157 12.5t-141 46.5t-117.5 88.5t-77 145t-29.5 209.5v916h430v-959q0 -131 92 -131t92 131v959h430v-916zM936 1853q0 -81 -28.5 -147t-76.5 -106.5t-107.5 -62t-123.5 -21.5t-123.5 21.5
t-107.5 62t-76.5 106.5t-28.5 147h225q0 -51 33 -78.5t78 -27.5t78 27.5t33 78.5h225z" />
    <glyph glyph-name="ubreve" unicode="&#x16d;" 
d="M63 1061h410v-619q0 -64 22.5 -97.5t53.5 -33.5q24 0 42.5 22.5t18.5 57.5v670h410v-1061h-410v174q-62 -197 -262 -197q-56 0 -104.5 18.5t-90.5 58t-66 112.5t-24 172v723zM881 1503q0 -159 -100 -248.5t-236 -89.5t-236 89.5t-100 248.5h225q0 -51 33 -78.5t78 -27.5
t77.5 27.5t32.5 78.5h226z" />
    <glyph glyph-name="Uring" unicode="&#x16e;" horiz-adv-x="1200" 
d="M1122 475q0 -119 -29.5 -209.5t-77 -145t-117.5 -88.5t-141 -46.5t-157 -12.5t-157 12.5t-141 46.5t-117.5 88.5t-77 145t-29.5 209.5v916h430v-959q0 -131 92 -131t92 131v959h430v-916zM598 1513q-138 0 -214.5 83.5t-76.5 207.5t76.5 207.5t214.5 83.5
q140 0 215.5 -83.5t75.5 -207.5t-75.5 -207.5t-215.5 -83.5zM598 1718q36 0 57 25.5t21 60.5t-21 60.5t-57 25.5t-56 -25.5t-20 -60.5t20 -60.5t56 -25.5z" />
    <glyph glyph-name="uring" unicode="&#x16f;" 
d="M63 1061h410v-619q0 -64 22.5 -97.5t53.5 -33.5q24 0 42.5 22.5t18.5 57.5v670h410v-1061h-410v174q-62 -197 -262 -197q-56 0 -104.5 18.5t-90.5 58t-66 112.5t-24 172v723zM543 1163q-138 0 -214.5 83.5t-76.5 207.5t76.5 207.5t214.5 83.5q140 0 215.5 -83.5
t75.5 -207.5t-75.5 -207.5t-215.5 -83.5zM543 1368q36 0 57 25.5t21 60.5t-21 60.5t-57 25.5t-56 -25.5t-20 -60.5t20 -60.5t56 -25.5z" />
    <glyph glyph-name="Uhungarumlaut" unicode="&#x170;" horiz-adv-x="1200" 
d="M1122 475q0 -119 -29.5 -209.5t-77 -145t-117.5 -88.5t-141 -46.5t-157 -12.5t-157 12.5t-141 46.5t-117.5 88.5t-77 145t-29.5 209.5v916h430v-959q0 -131 92 -131t92 131v959h430v-916zM449 1505h-275l184 359h295zM817 1505h-274l184 359h295z" />
    <glyph glyph-name="uhungarumlaut" unicode="&#x171;" 
d="M63 1061h410v-619q0 -64 22.5 -97.5t53.5 -33.5q24 0 42.5 22.5t18.5 57.5v670h410v-1061h-410v174q-62 -197 -262 -197q-56 0 -104.5 18.5t-90.5 58t-66 112.5t-24 172v723zM393 1155h-274l184 358h295zM762 1155h-275l185 358h295z" />
    <glyph glyph-name="Uogonek" unicode="&#x172;" horiz-adv-x="1200" 
d="M1122 475q0 -119 -29.5 -209.5t-77 -145t-117.5 -88.5t-141 -46.5t-157 -12.5t-157 12.5t-141 46.5t-117.5 88.5t-77 145t-29.5 209.5v916h430v-959q0 -131 92 -131t92 131v959h430v-916zM766 8q-42 -32 -69 -70t-27 -69q0 -30 28 -48t86 -18v-225q-178 0 -271 57.5
t-93 145.5q0 58 42.5 117.5t123.5 109.5h180z" />
    <glyph glyph-name="uogonek" unicode="&#x173;" 
d="M63 1061h410v-619q0 -64 22.5 -97.5t53.5 -33.5q24 0 42.5 22.5t18.5 57.5v670h410v-1061h-410v174q-62 -197 -262 -197q-56 0 -104.5 18.5t-90.5 58t-66 112.5t-24 172v723zM915 8q-42 -32 -69 -70t-27 -69q0 -30 28.5 -48t86.5 -18v-225q-178 0 -271.5 57.5
t-93.5 145.5q0 58 42.5 117.5t123.5 109.5h180z" />
    <glyph glyph-name="Wcircumflex" unicode="&#x174;" horiz-adv-x="1810" 
d="M33 1391h440l80 -897l88 897h524l88 -897l80 897h441l-215 -1391h-586l-70 877l-69 -877h-586zM735 1864h336l184 -359h-274l-78 152l-78 -152h-274z" />
    <glyph glyph-name="wcircumflex" unicode="&#x175;" horiz-adv-x="1595" 
d="M23 1061h419l56 -725l104 725h391l105 -725l55 725h420l-215 -1061h-502l-57 631l-60 -631h-501zM629 1513h336l184 -358h-275l-77 152l-78 -152h-275z" />
    <glyph glyph-name="Ycircumflex" unicode="&#x176;" horiz-adv-x="1222" 
d="M823 0h-430v479l-368 912h415l178 -443l181 443h395l-371 -914v-477zM442 1864h336l185 -359h-275l-78 152l-78 -152h-274z" />
    <glyph glyph-name="ycircumflex" unicode="&#x177;" horiz-adv-x="1077" 
d="M12 1061h422l96 -715l109 715h422l-250 -1012q-67 -272 -218.5 -362.5t-428.5 -28.5v307q153 -33 230.5 -15t88.5 81h-192zM369 1513h336l184 -358h-275l-77 152l-78 -152h-275z" />
    <glyph glyph-name="Ydieresis" unicode="&#x178;" horiz-adv-x="1222" 
d="M823 0h-430v479l-368 912h415l178 -443l181 443h395l-371 -914v-477zM176 1726q0 94 57 150.5t152 56.5q92 0 148.5 -56.5t56.5 -150.5t-56.5 -151t-148.5 -57q-95 0 -152 57t-57 151zM631 1726q0 94 57 150.5t152 56.5q92 0 148 -56.5t56 -150.5t-56 -151t-148 -57
q-95 0 -152 57t-57 151z" />
    <glyph glyph-name="Zacute" unicode="&#x179;" horiz-adv-x="1191" 
d="M1126 328v-328h-1046v283l528 780h-510v328h1037v-283l-529 -780h520zM651 1485h-315l184 358h336z" />
    <glyph glyph-name="zacute" unicode="&#x17a;" horiz-adv-x="950" 
d="M37 0v231l366 523h-335v307h841v-264l-344 -490h340v-307h-868zM510 1155h-315l184 358h336z" />
    <glyph glyph-name="Zdotaccent" unicode="&#x17b;" horiz-adv-x="1191" 
d="M1126 328v-328h-1046v283l528 780h-510v328h1037v-283l-529 -780h520zM389 1706q0 94 57 150.5t152 56.5q92 0 148.5 -56.5t56.5 -150.5t-56.5 -151.5t-148.5 -57.5q-95 0 -152 57.5t-57 151.5z" />
    <glyph glyph-name="zdotaccent" unicode="&#x17c;" horiz-adv-x="950" 
d="M37 0v231l366 523h-335v307h841v-264l-344 -490h340v-307h-868zM268 1376q0 94 57 150.5t152 56.5q92 0 148.5 -56.5t56.5 -150.5t-56.5 -151.5t-148.5 -57.5q-95 0 -152 57.5t-57 151.5z" />
    <glyph glyph-name="Zcaron" unicode="&#x17d;" horiz-adv-x="1191" 
d="M1126 328v-328h-1046v283l528 780h-510v328h1037v-283l-529 -780h520zM426 1485l-184 358h274l78 -151l78 151h274l-184 -358h-336z" />
    <glyph glyph-name="zcaron" unicode="&#x17e;" horiz-adv-x="950" 
d="M37 0v231l366 523h-335v307h841v-264l-344 -490h340v-307h-868zM305 1155l-184 358h274l78 -151l78 151h274l-184 -358h-336z" />
    <glyph glyph-name="longs" unicode="&#x17f;" horiz-adv-x="684" 
 />
    <glyph glyph-name="florin" unicode="&#x192;" horiz-adv-x="1081" 
 />
    <glyph glyph-name="uni0218" unicode="&#x218;" horiz-adv-x="1177" 
d="M690 965q0 62 -34 96.5t-78 34.5q-37 0 -65 -24.5t-28 -65.5q0 -31 27.5 -57t73 -44t103.5 -40.5t118.5 -44.5t118.5 -58t103.5 -79t73 -109.5t27.5 -147.5q0 -94 -30.5 -170.5t-82 -128.5t-121 -87t-146.5 -51t-160 -16q-84 0 -161 16t-147.5 51t-122 87t-82 128.5
t-30.5 170.5v63h430v-63q0 -62 37 -96.5t86 -34.5q41 0 70.5 24.5t29.5 65.5q0 31 -27.5 57t-73 44t-103.5 40.5t-118.5 44.5t-118.5 58t-103.5 79t-73 109.5t-27.5 147.5q0 94 30 170.5t81 128t120 86.5t144.5 51t157.5 16t157.5 -16t144.5 -51t119.5 -87t80.5 -129
t30 -171v-48h-430v50zM616 -530h-286l45 428h389z" />
    <glyph glyph-name="uni0219" unicode="&#x219;" horiz-adv-x="1005" 
d="M571 725q0 25 -18 38t-43 13q-27 0 -45.5 -13t-18.5 -38q0 -19 22.5 -33.5t59 -23.5t83 -21t95 -25t95 -36t83 -53t59 -79t22.5 -110q0 -77 -26 -139.5t-70 -104t-104 -70t-125 -41t-136 -12.5q-90 0 -170.5 21t-147 63t-106 115t-39.5 168v10h389v-10q0 -28 18.5 -42.5
t45.5 -14.5q25 0 43 14.5t18 42.5q0 17 -28.5 30t-73.5 24.5t-100 25.5t-110 37.5t-100 55.5t-73.5 86t-28.5 122q0 94 39 165t105.5 112t146.5 61t170 20t169 -20t145.5 -61t105.5 -112t39 -165v-45h-390v45zM614 -530h-286l45 428h389z" />
    <glyph glyph-name="uni021A" unicode="&#x21a;" horiz-adv-x="1093" 
d="M53 1391h983v-328h-276v-1063h-430v1063h-277v328zM614 -530h-286l45 428h389z" />
    <glyph glyph-name="uni021B" unicode="&#x21b;" horiz-adv-x="786" 
d="M748 313v-307q-132 -36 -245.5 -26t-197 53t-131 120t-47.5 173v428h-92v307h92v225h410v-225h163v-307h-163v-336q0 -59 28 -86.5t74.5 -27t108.5 8.5zM506 -530h-287l45 428h389z" />
    <glyph glyph-name="uni0237" unicode="&#x237;" horiz-adv-x="593" 
d="M-147 -354v307q53 -11 99 -7.5t79.5 19.5t53 57t19.5 105v934h410v-903q0 -190 -87 -319.5t-237 -179t-337 -13.5z" />
    <glyph glyph-name="circumflex" unicode="&#x2c6;" horiz-adv-x="778" 
d="M221 1513h336l184 -358h-274l-78 152l-78 -152h-274z" />
    <glyph glyph-name="caron" unicode="&#x2c7;" horiz-adv-x="778" 
d="M221 1155l-184 358h274l78 -151l78 151h274l-184 -358h-336z" />
    <glyph glyph-name="uni02C9" unicode="&#x2c9;" horiz-adv-x="792" 
 />
    <glyph glyph-name="breve" unicode="&#x2d8;" horiz-adv-x="745" 
d="M709 1503q0 -159 -100 -248.5t-236 -89.5t-236 89.5t-100 248.5h225q0 -51 33 -78.5t78 -27.5t77.5 27.5t32.5 78.5h226z" />
    <glyph glyph-name="dotaccent" unicode="&#x2d9;" horiz-adv-x="479" 
d="M33 1376q0 94 57 150.5t152 56.5q92 0 148 -56.5t56 -150.5t-56 -151.5t-148 -57.5q-95 0 -152 57.5t-57 151.5z" />
    <glyph glyph-name="ring" unicode="&#x2da;" horiz-adv-x="651" 
d="M326 1163q-138 0 -214.5 83.5t-76.5 207.5t76.5 207.5t214.5 83.5q139 0 214.5 -83.5t75.5 -207.5t-75.5 -207.5t-214.5 -83.5zM326 1368q36 0 56.5 25.5t20.5 60.5t-20.5 60.5t-56.5 25.5t-56 -25.5t-20 -60.5t20 -60.5t56 -25.5z" />
    <glyph glyph-name="ogonek" unicode="&#x2db;" horiz-adv-x="432" 
d="M381 8q-42 -32 -69 -70t-27 -69q0 -30 28 -48t86 -18v-225q-178 0 -271 57.5t-93 145.5q0 58 42.5 117.5t123.5 109.5h180z" />
    <glyph glyph-name="tilde" unicode="&#x2dc;" horiz-adv-x="753" 
d="M483 1147q-48 0 -112.5 31.5t-87.5 31.5q-26 0 -44 -17t-18 -46h-184q0 74 24.5 142t79.5 116.5t129 48.5q48 0 113 -31.5t88 -31.5q26 0 43.5 16.5t17.5 46.5h185q0 -74 -25 -142t-80 -116.5t-129 -48.5z" />
    <glyph glyph-name="hungarumlaut" unicode="&#x2dd;" horiz-adv-x="925" 
d="M313 1155h-274l184 358h295zM682 1155h-274l184 358h295z" />
    <glyph glyph-name="uni0326" unicode="&#x326;" horiz-adv-x="600" 
d="M385 231h-287l45 551h389z" />
    <glyph glyph-name="uni0394" unicode="&#x394;" horiz-adv-x="1222" 
 />
    <glyph glyph-name="uni03A9" unicode="&#x3a9;" horiz-adv-x="1208" 
 />
    <glyph glyph-name="uni03BC" unicode="&#x3bc;" horiz-adv-x="1579" 
 />
    <glyph glyph-name="pi" unicode="&#x3c0;" horiz-adv-x="475" 
 />
    <glyph glyph-name="Wgrave" unicode="&#x1e80;" horiz-adv-x="1810" 
d="M33 1391h440l80 -897l88 897h524l88 -897l80 897h441l-215 -1391h-586l-70 877l-69 -877h-586zM1001 1864l185 -359h-316l-204 359h335z" />
    <glyph glyph-name="wgrave" unicode="&#x1e81;" horiz-adv-x="1595" 
d="M23 1061h419l56 -725l104 725h391l105 -725l55 725h420l-215 -1061h-502l-57 631l-60 -631h-501zM895 1513l184 -358h-315l-205 358h336z" />
    <glyph glyph-name="Wacute" unicode="&#x1e82;" horiz-adv-x="1810" 
d="M33 1391h440l80 -897l88 897h524l88 -897l80 897h441l-215 -1391h-586l-70 877l-69 -877h-586zM940 1505h-315l184 359h336z" />
    <glyph glyph-name="wacute" unicode="&#x1e83;" horiz-adv-x="1595" 
d="M23 1061h419l56 -725l104 725h391l105 -725l55 725h420l-215 -1061h-502l-57 631l-60 -631h-501zM834 1155h-316l184 358h336z" />
    <glyph glyph-name="Wdieresis" unicode="&#x1e84;" horiz-adv-x="1810" 
d="M33 1391h440l80 -897l88 897h524l88 -897l80 897h441l-215 -1391h-586l-70 877l-69 -877h-586zM469 1726q0 94 57 150.5t152 56.5q92 0 148.5 -56.5t56.5 -150.5t-56.5 -151t-148.5 -57q-95 0 -152 57t-57 151zM924 1726q0 94 57 150.5t152 56.5q92 0 148 -56.5
t56 -150.5t-56 -151t-148 -57q-95 0 -152 57t-57 151z" />
    <glyph glyph-name="wdieresis" unicode="&#x1e85;" horiz-adv-x="1595" 
d="M23 1061h419l56 -725l104 725h391l105 -725l55 725h420l-215 -1061h-502l-57 631l-60 -631h-501zM362 1376q0 94 57 150.5t152 56.5q92 0 148.5 -56.5t56.5 -150.5t-56.5 -151.5t-148.5 -57.5q-95 0 -152 57.5t-57 151.5zM817 1376q0 94 57 150.5t152 56.5
q92 0 148.5 -56.5t56.5 -150.5t-56.5 -151.5t-148.5 -57.5q-95 0 -152 57.5t-57 151.5z" />
    <glyph glyph-name="endash" unicode="&#x2013;" horiz-adv-x="978" 
d="M39 489v308h901v-308h-901z" />
    <glyph glyph-name="emdash" unicode="&#x2014;" horiz-adv-x="1339" 
d="M45 489v308h1249v-308h-1249z" />
    <glyph glyph-name="quoteleft" unicode="&#x2018;" horiz-adv-x="499" 
d="M180 1391h287l-45 -551h-389z" />
    <glyph glyph-name="quoteright" unicode="&#x2019;" horiz-adv-x="499" 
d="M319 840h-286l45 551h389z" />
    <glyph glyph-name="quotesinglbase" unicode="&#x201a;" horiz-adv-x="499" 
d="M319 -178h-286l45 551h389z" />
    <glyph glyph-name="quotedblleft" unicode="&#x201c;" horiz-adv-x="882" 
d="M186 1391h256l-45 -551h-358zM588 1391h256l-45 -551h-359z" />
    <glyph glyph-name="quotedblright" unicode="&#x201d;" horiz-adv-x="882" 
d="M696 840h-256l45 551h359zM295 840h-256l45 551h358z" />
    <glyph glyph-name="quotedblbase" unicode="&#x201e;" horiz-adv-x="882" 
d="M696 -178h-256l45 551h359zM295 -178h-256l45 551h358z" />
    <glyph glyph-name="dagger" unicode="&#x2020;" horiz-adv-x="958" 
d="M39 1083h225v308h430v-308h226v-327h-226v-756h-430v756h-225v327z" />
    <glyph glyph-name="daggerdbl" unicode="&#x2021;" horiz-adv-x="958" 
d="M39 756v327h225v308h430v-308h226v-327h-226v-121h226v-328h-226v-307h-430v307h-225v328h225v121h-225z" />
    <glyph glyph-name="bullet" unicode="&#x2022;" horiz-adv-x="624" 
d="M35 623q0 125 76 200.5t202 75.5q123 0 199 -76t76 -200t-76 -200.5t-199 -76.5q-126 0 -202 76t-76 201z" />
    <glyph glyph-name="ellipsis" unicode="&#x2026;" horiz-adv-x="1380" 
 />
    <glyph glyph-name="perthousand" unicode="&#x2030;" horiz-adv-x="2035" 
d="M334 678q-144 0 -211.5 89.5t-67.5 272.5q0 184 67.5 272.5t211.5 88.5q142 0 210 -88.5t68 -272.5q0 -183 -68 -272.5t-210 -89.5zM1008 1391h237l-819 -1391h-242zM334 844q30 0 41.5 40.5t11.5 155.5t-11.5 156t-41.5 41q-31 0 -42 -40.5t-11 -156.5t11 -156t42 -40z
M1090 -23q-143 0 -211 90t-68 273q0 184 67.5 272t211.5 88q142 0 210 -88.5t68 -271.5t-68 -273t-210 -90zM1702 -23q-143 0 -211 90t-68 273q0 184 67.5 272t211.5 88q142 0 210 -88.5t68 -271.5t-68 -273t-210 -90zM1090 143q30 0 41.5 41t11.5 156t-11.5 156t-41.5 41
q-31 0 -42.5 -40.5t-11.5 -156.5t11.5 -156.5t42.5 -40.5zM1702 143q30 0 41.5 41t11.5 156t-11.5 156t-41.5 41q-31 0 -42 -40.5t-11 -156.5t11 -156.5t42 -40.5z" />
    <glyph glyph-name="guilsinglleft" unicode="&#x2039;" horiz-adv-x="923" 
d="M504 530l381 -530h-506l-340 530l340 531h506z" />
    <glyph glyph-name="guilsinglright" unicode="&#x203a;" horiz-adv-x="923" 
d="M39 0l381 530l-381 531h506l340 -531l-340 -530h-506z" />
    <glyph glyph-name="fraction" unicode="&#x2044;" horiz-adv-x="593" 
 />
    <glyph glyph-name="franc" unicode="&#x20a3;" horiz-adv-x="1003" 
 />
    <glyph glyph-name="lira" unicode="&#x20a4;" horiz-adv-x="1138" 
d="M473 989q0 -47 16 -94.5t28.5 -68t43.5 -68.5h221v-144h-166q0 -13 -4 -41h170v-143h-237q-39 -49 -88 -82h606v-348h-1000v348q45 37 84 82h-88v143h162q4 28 4 41h-166v144h82q-45 55 -71.5 111t-26.5 135q0 98 45 178t119.5 130.5t167.5 77.5t194 27q80 0 155.5 -17
t143.5 -54.5t118 -92t80 -134t30 -175.5v-125h-410v125q0 87 -30.5 126.5t-75.5 39.5t-76 -28.5t-31 -92.5z" />
    <glyph glyph-name="peseta" unicode="&#x20a7;" horiz-adv-x="2979" 
d="M535 0h-431v1391h541q255 0 386.5 -136.5t131.5 -382.5q0 -247 -132 -385.5t-386 -138.5h-110v-348zM604 1063h-69v-387h69q54 0 82.5 51.5t28.5 142.5q0 90 -28.5 141.5t-82.5 51.5zM1931 313v-307q-132 -36 -245.5 -26t-196.5 53t-130.5 120t-47.5 173v428h-92v307h92
v225h409v-225h164v-307h-164v-336q0 -59 28 -86.5t74.5 -27t108.5 8.5zM2517 725q0 25 -18 38t-43 13q-27 0 -45.5 -13t-18.5 -38q0 -22 28.5 -37.5t74.5 -26.5t101 -23.5t110 -34.5t101 -52.5t74.5 -83.5t28.5 -123q0 -77 -26 -139.5t-70 -104t-104 -70t-125 -41
t-136 -12.5q-90 0 -170 21t-147 63t-106 115t-39 168v10h389v-10q0 -28 18 -42.5t45 -14.5q25 0 43.5 14.5t18.5 42.5q0 17 -28.5 30t-73.5 24.5t-100 25.5t-110 37.5t-100 55.5t-73.5 86t-28.5 122q0 94 39 165t105.5 112t146 61t169.5 20t169 -20t145.5 -61t105.5 -112
t39 -165v-45h-389v45z" />
    <glyph glyph-name="Euro" unicode="&#x20ac;" horiz-adv-x="1249" 
d="M690 281q60 0 83.5 60t23.5 181v41h409v-41q0 -277 -138.5 -413t-377.5 -136q-248 0 -374 130.5t-154 408.5h-123v143h115v41v41h-115v144h123q28 277 154 406.5t374 129.5q239 0 377.5 -136t138.5 -413v-82h-409v82q0 242 -107 242q-47 0 -71 -52.5t-31 -176.5h153v-144
h-157v-41v-41h157v-143h-153q7 -125 31 -178t71 -53z" />
    <glyph glyph-name="uni20BF" unicode="&#x20bf;" horiz-adv-x="1204" 
d="M356 1618h144v-227h102v227h143v-236q185 -23 284 -114.5t99 -235.5q0 -205 -178 -301q103 -46 157 -128.5t54 -194.5q0 -167 -108 -275t-308 -129v-231h-143v227h-102v-227h-144v227h-278v1391h278v227zM578 1063h-70v-207h70q52 0 81 31t29 74q0 42 -29 72t-81 30z
M612 328q52 0 81.5 38.5t29.5 92.5q0 53 -29.5 92t-81.5 39h-104v-262h104z" />
    <glyph glyph-name="uni2113" unicode="&#x2113;" horiz-adv-x="1093" 
 />
    <glyph glyph-name="trademark" unicode="&#x2122;" horiz-adv-x="1333" 
d="M778 696h-198v695h307l47 -367l45 367h309v-695h-201v459l-75 -459h-158l-76 459v-459zM399 696h-215v531h-137v164h492v-164h-140v-531z" />
    <glyph glyph-name="estimated" unicode="&#x212e;" horiz-adv-x="1304" 
 />
    <glyph glyph-name="partialdiff" unicode="&#x2202;" horiz-adv-x="1224" 
 />
    <glyph glyph-name="product" unicode="&#x220f;" horiz-adv-x="1366" 
 />
    <glyph glyph-name="summation" unicode="&#x2211;" horiz-adv-x="1427" 
 />
    <glyph glyph-name="minus" unicode="&#x2212;" horiz-adv-x="876" 
d="M39 516v307h799v-307h-799z" />
    <glyph glyph-name="uni2215" unicode="&#x2215;" horiz-adv-x="946" 
d="M614 1536h330l-600 -1712h-330z" />
    <glyph glyph-name="uni2219" unicode="&#x2219;" horiz-adv-x="569" 
 />
    <glyph glyph-name="radical" unicode="&#x221a;" horiz-adv-x="1204" 
 />
    <glyph glyph-name="infinity" unicode="&#x221e;" horiz-adv-x="1456" 
 />
    <glyph glyph-name="integral" unicode="&#x222b;" horiz-adv-x="813" 
 />
    <glyph glyph-name="approxequal" unicode="&#x2248;" horiz-adv-x="851" 
d="M604 553q-59 0 -153.5 31.5t-128.5 31.5q-26 0 -44 -17t-18 -46h-184q0 74 24.5 142t79.5 116.5t129 48.5q59 0 154 -31.5t129 -31.5q26 0 43.5 16.5t17.5 46.5h185q0 -74 -25 -142t-80 -116.5t-129 -48.5zM604 553q-59 0 -153.5 31.5t-128.5 31.5q-26 0 -44 -17t-18 -46
h-184q0 74 24.5 142t79.5 116.5t129 48.5q59 0 154 -31.5t129 -31.5q26 0 43.5 16.5t17.5 46.5h185q0 -74 -25 -142t-80 -116.5t-129 -48.5z" />
    <glyph glyph-name="notequal" unicode="&#x2260;" horiz-adv-x="851" 
d="M31 670v307h757v-307h-757zM31 281v307h757v-307h-757zM649 1186h164l-590 -1106h-164z" />
    <glyph glyph-name="lessequal" unicode="&#x2264;" horiz-adv-x="800" 
d="M723 358l-686 279v330l686 278v-330l-397 -112l397 -115v-330zM47 0v307h717v-307h-717z" />
    <glyph glyph-name="greaterequal" unicode="&#x2265;" horiz-adv-x="800" 
d="M764 637l-686 -279v330l397 115l-397 112v330l686 -278v-330zM754 307v-307h-717v307h717z" />
    <glyph glyph-name="lozenge" unicode="&#x25ca;" horiz-adv-x="1515" 
 />
    <glyph glyph-name="uniF8FF" unicode="&#xf8ff;" horiz-adv-x="698" 
 />
    <glyph glyph-name="grave.case" horiz-adv-x="600" 
d="M406 1923l184 -358h-316l-204 358h336z" />
    <glyph glyph-name="dieresis.case" horiz-adv-x="600" 
d="M-113 1786q0 94 57 150.5t152 56.5q92 0 148.5 -56.5t56.5 -150.5t-56.5 -151.5t-148.5 -57.5q-95 0 -152 57.5t-57 151.5zM342 1786q0 94 57 150.5t152 56.5q92 0 148.5 -56.5t56.5 -150.5t-56.5 -151.5t-148.5 -57.5q-95 0 -152 57.5t-57 151.5z" />
    <glyph glyph-name="macron.case" horiz-adv-x="600" 
d="M-104 1577v225h655v-225h-655z" />
    <glyph glyph-name="acute.case" horiz-adv-x="600" 
d="M344 1565h-315l184 358h336z" />
    <glyph glyph-name="circumflex.case" horiz-adv-x="600" 
d="M387 1923h336l184 -358h-274l-78 151l-78 -151h-274z" />
    <glyph glyph-name="caron.case" horiz-adv-x="600" 
d="M387 1565l-184 358h274l78 -151l78 151h274l-184 -358h-336z" />
    <glyph glyph-name="breve.case" horiz-adv-x="600" 
d="M633 1913q0 -159 -100 -248.5t-236 -89.5t-236 89.5t-100 248.5h225q0 -51 33 -79t78 -28t78 28t33 79h225z" />
    <glyph glyph-name="dotaccent.case" horiz-adv-x="600" 
d="M127 1786q0 94 57 150.5t152 56.5q92 0 148.5 -56.5t56.5 -150.5t-56.5 -151.5t-148.5 -57.5q-95 0 -152 57.5t-57 151.5z" />
    <glyph glyph-name="ring.case" horiz-adv-x="600" 
d="M297 1573q-138 0 -214.5 83.5t-76.5 207.5t76 207t215 83q140 0 215.5 -83t75.5 -207t-75.5 -207.5t-215.5 -83.5zM297 1778q36 0 57 25.5t21 60.5t-21 60.5t-57 25.5t-56 -25.5t-20 -60.5t20 -60.5t56 -25.5z" />
    <glyph glyph-name="tilde.case" horiz-adv-x="600" 
d="M406 1556q-48 0 -113 32t-88 32q-26 0 -44 -17t-18 -47h-184q0 74 25 142.5t80 117t129 48.5q48 0 112.5 -32t87.5 -32q26 0 44 17t18 47h184q0 -74 -24.5 -142.5t-79.5 -117t-129 -48.5z" />
    <glyph glyph-name="hungarumlaut.case" horiz-adv-x="600" 
d="M135 1565h-274l184 358h295zM504 1565h-275l185 358h295z" />
    <glyph glyph-name="caron.salt" horiz-adv-x="880" 
 />
    <glyph glyph-name="commaaccentcomb.salt" horiz-adv-x="600" 
d="M385 231h-287l45 551h389z" />
    </font>
</defs>
</svg>
