<?xml version="1.0" standalone="no"?>
<!DOCTYPE svg PUBLIC "-//W3C//DTD SVG 1.1//EN" "http://www.w3.org/Graphics/SVG/1.1/DTD/svg11.dtd" >
<svg xmlns="http://www.w3.org/2000/svg" xmlns:xlink="http://www.w3.org/1999/xlink" version="1.1">
<metadata>
Created by FontForge 20201107 at Fri May  9 06:26:15 2025
 By 
Sleepy Moody (c) (MJType). 2024. All Rights Reserved
</metadata>
<defs>
<font id="SleepyMoody" horiz-adv-x="1159" >
  <font-face 
    font-family="Sleepy Moody"
    font-weight="400"
    font-stretch="normal"
    units-per-em="2048"
    panose-1="0 0 0 0 0 0 0 0 0 0"
    ascent="1638"
    descent="-410"
    x-height="1034"
    cap-height="1464"
    bbox="-229.798 -691.333 1855.92 2068"
    underline-thickness="0"
    underline-position="0"
    unicode-range="U+000A-2212"
  />
<missing-glyph horiz-adv-x="1079" 
 />
    <glyph glyph-name=".notdef" horiz-adv-x="1079" 
 />
    <glyph glyph-name="uni0000" horiz-adv-x="0" 
 />
    <glyph glyph-name="uni0000" horiz-adv-x="0" 
 />
    <glyph glyph-name="uni000D" unicode="&#xd;" horiz-adv-x="0" 
 />
    <glyph glyph-name="uni000A" unicode="&#xa;" horiz-adv-x="0" 
 />
    <glyph glyph-name="space" unicode=" " horiz-adv-x="512" 
 />
    <glyph glyph-name="exclam" unicode="!" horiz-adv-x="460" 
d="M356 438q1 -44 -28.5 -74t-71.5 -30q-37 0 -67.5 25t-34.5 61q-2 33 -2 100q-1 139 -15 580q-4 123 4 213q3 46 31.5 78t73.5 32q67 0 94 -59q15 -34 6 -61q-10 -47 2 -385q8 -320 8 -480zM276 -84q-32 -43 -92 -43q-20 0 -44 11t-34 26q-22 37 -22 65q0 51 45.5 97.5
t95.5 46.5q13 0 19 -2q47 -12 71.5 -53.5t3.5 -83.5q-6 -13 -22 -34.5t-21 -29.5z" />
    <glyph glyph-name="quotedbl" unicode="&#x22;" horiz-adv-x="716" 
d="M649 1098q3 -43 -29 -75t-73 -32q-34 0 -66 27.5t-35 60.5q-22 261 21 314q30 37 78 37q40 0 71 -29.5t31 -73.5q0 -7 -2 -21t-2 -20q-5 -36 6 -188zM276 952q-32 -25 -65 -22q-33 0 -62 22.5t-45 55.5q-40 90 -43 196q-3 96 66 172q29 29 41 35q25 14 51 14
q39 0 68.5 -27.5t33.5 -65t-24 -75.5q-2 -2 -13.5 -14t-13.5 -14q-4 -7 -4 -35q9 -75 23 -94q17 -25 20 -35q11 -43 -2 -70q-11 -28 -31 -43z" />
    <glyph glyph-name="quotedbl" unicode="&#x201f;" horiz-adv-x="716" 
d="M649 1098q3 -43 -29 -75t-73 -32q-34 0 -66 27.5t-35 60.5q-22 261 21 314q30 37 78 37q40 0 71 -29.5t31 -73.5q0 -7 -2 -21t-2 -20q-5 -36 6 -188zM276 952q-32 -25 -65 -22q-33 0 -62 22.5t-45 55.5q-40 90 -43 196q-3 96 66 172q29 29 41 35q25 14 51 14
q39 0 68.5 -27.5t33.5 -65t-24 -75.5q-2 -2 -13.5 -14t-13.5 -14q-4 -7 -4 -35q9 -75 23 -94q17 -25 20 -35q11 -43 -2 -70q-11 -28 -31 -43z" />
    <glyph glyph-name="numbersign" unicode="#" horiz-adv-x="1363" 
d="M487 -125q-24 -4 -38 -4q-27 0 -43 8q-44 18 -58 49q-19 36 -22.5 89t2.5 94q4 64 16 184q-14 -2 -42 -5t-42 -5q-4 0 -29 -4.5t-49 -7.5t-35 -3q-34 0 -53 13q-40 24 -49 68t15 80.5t69 41.5q200 25 240 29q11 97 34 256q-5 0 -31 -5t-30 -5q-46 4 -66 26q-26 26 -30 43
q-11 43 2 70q11 28 31 43q7 5 14.5 9t17 7.5t15.5 6t18.5 4.5t16.5 3t19 2.5t17.5 2t19.5 1.5l17 1q49 311 68 372q5 14 26 47.5t33 43.5q30 24 64 24q57 0 89 -49.5t1 -104.5q-19 -29 -21 -34q-15 -70 -51 -293q145 0 283 -12q1 7 14.5 78.5t24.5 128t25.5 117.5t23.5 81
q22 51 41 66q29 20 67 20q51 0 76 -37q16 -21 21 -48.5t-5 -51.5q-19 -43 -40 -141l-44 -240q88 -13 95 -16q49 -22 61 -62q16 -67 -20 -100q-40 -40 -78 -37l-92 12q-5 -31 -16.5 -98t-16.5 -103q26 0 41.5 -1.5t35.5 -10.5t31 -26q26 -33 23 -66q-3 -34 -20.5 -60.5
t-47.5 -33.5q-14 -4 -28.5 -5t-37.5 0t-28 1q-29 -187 -31 -275q0 -1 3.5 -8t3.5 -8q16 -36 0.5 -76t-50.5 -61q-23 -13 -49 -13q-63 0 -94 54q-38 66 10 385q-40 -2 -274 -17q-21 -185 -21 -268q0 -2 5 -8.5t6 -7.5q27 -38 9 -88t-63 -62zM612 768q-24 -168 -34 -252
q184 12 278 14l37 228q-151 13 -281 10z" />
    <glyph glyph-name="dollar" unicode="$" horiz-adv-x="1126" 
d="M739 -236q0 -44 -30 -73t-72 -29q-27 0 -53.5 14t-36.5 37q-56 122 -74 314q-119 11 -202 43.5t-158 107.5q-2 2 -10.5 11.5t-12 14t-8.5 12.5t-6 15q-12 46 0 70q32 66 92 66q45 0 70 -25q65 -60 104.5 -81t118.5 -28q-8 161 -8 363q-121 54 -205 140.5t-94 201.5
q-12 125 55 227q40 61 104.5 108.5t139.5 74.5q0 39 3 66t14 59t36.5 48.5t64.5 16.5q37 0 68 -22q34 -23 43 -59.5t-8 -74.5q220 -16 278 -155q0 -2 7 -8.5t8 -8.5q37 -35 22 -92t-65 -71q-18 -5 -41 -5q-51 0 -90 39q-7 6 -12.5 16.5t-8 17.5t-7 21.5t-5.5 18.5
q-44 22 -105 25q-3 -222 0 -443q51 -19 87 -33.5t85 -40t83 -51.5t65.5 -63.5t48.5 -79.5q29 -73 15 -155t-66 -140q-54 -58 -132 -95.5t-163 -49.5q13 -112 45 -207q16 -36 16 -58zM362 934q15 -47 89 -105q-3 145 0 291q-51 -31 -78 -80q-28 -55 -11 -106zM657 516
q3 -137 9 -280q83 14 138 58.5t27 104.5q-30 57 -174 117z" />
    <glyph glyph-name="percent" unicode="%" horiz-adv-x="1579" 
d="M684 1098q-15 -60 -41.5 -112.5t-64 -97.5t-91 -71t-116.5 -26q-90 0 -162 57q-73 60 -122 187t-26 212q21 76 79 151.5t126 94.5q2 1 10 1t9 1q42 42 114 31q69 -14 129 -48.5t97 -86.5q98 -134 59 -293zM553 66q-8 -37 -36 -61.5t-66 -24.5q-31 0 -58 19t-39 48
q-18 51 0 113q10 40 43 121q50 123 120.5 269t113 229t143.5 272.5t127 238.5q63 126 74 140q33 36 76 36q52 0 85.5 -42t14.5 -97q-3 -6 -24.5 -46t-24.5 -46q-29 -56 -141.5 -268t-181.5 -348t-132 -273q-68 -153 -92 -227q-4 -7 -2.5 -27.5t0.5 -25.5zM260 1176
q6 -51 39.5 -117t73.5 -66q35 0 68 49.5t44 106.5q14 67 -20 115q-23 37 -88 57q-13 3 -58 -29q-22 -19 -42 -56t-17 -60zM1485 311q-49 -105 -152.5 -198t-204.5 -93q-60 0 -106.5 27t-74 73.5t-43.5 96.5t-23 109q-20 162 14 245q41 109 149 152q41 14 56 12l12 6
q28 11 33 11q157 13 272 -70q39 -26 65 -69.5t34 -92.5q15 -108 -31 -209zM1124 227q4 -6 21 6q65 34 117.5 101t52.5 133q0 31 -15 49q-26 24 -102 33h-41q-17 -10 -47 -21q-13 -6 -22 -26t-9 -37q-4 -49 8.5 -129.5t36.5 -108.5z" />
    <glyph glyph-name="ampersand" unicode="&#x26;" horiz-adv-x="1214" 
d="M791 139q-74 -78 -169.5 -125t-195.5 -47q-104 0 -184 45q-95 57 -137 156.5t-25 209.5t86 200q52 69 149 149q-98 193 -96 342q0 109 56 203.5t150 149.5t202 55q131 0 213.5 -94.5t85.5 -229.5q1 -76 -29.5 -154.5t-83.5 -140.5q-29 -35 -71 -71.5t-72 -58.5t-82 -58
q57 -87 172 -219q58 102 117 245q13 32 40 51t58 19q30 0 57 -18q29 -20 39.5 -54.5t-2.5 -66.5q-77 -190 -156 -322q69 -58 125 -92q1 0 8 1t9 1q42 0 71 -29t30.5 -66.5t-23.5 -74.5q-20 -24 -55 -36t-68 -7q-15 3 -64 27q-68 41 -155 110zM426 1100q-16 -100 59 -254
q1 1 21.5 16t23.5 17t21 15.5t23.5 18.5t20 16.5t22.5 19.5t18.5 19t19.5 21q56 67 64 133q8 57 -16.5 104.5t-75.5 47.5q-71 0 -131 -52t-70 -122zM369 178q24 -6 51 -6q114 0 221 107q-120 126 -219 270q-52 -44 -86.5 -85.5t-46.5 -88.5q-18 -61 3.5 -119t76.5 -78z" />
    <glyph glyph-name="quotesingle" unicode="'" horiz-adv-x="348" 
d="M268 1161q14 -56 -18 -96.5t-82 -40.5q-44 0 -76 37q-36 45 -33 113q3 53 21 192q6 40 35.5 64t66.5 24q55 0 84 -45q22 -32 19 -59q-2 -22 -10.5 -84t-10.5 -95q0 -2 4 -10z" />
    <glyph glyph-name="quotesingle" unicode="&#x201b;" horiz-adv-x="348" 
d="M268 1161q14 -56 -18 -96.5t-82 -40.5q-44 0 -76 37q-36 45 -33 113q3 53 21 192q6 40 35.5 64t66.5 24q55 0 84 -45q22 -32 19 -59q-2 -22 -10.5 -84t-10.5 -95q0 -2 4 -10z" />
    <glyph glyph-name="parenleft" unicode="(" horiz-adv-x="788" 
d="M733 63q-5 -41 -31 -70.5t-63 -29.5q-61 0 -150 19q-133 30 -227 119.5t-137 222.5q-57 170 -19 446q31 196 94.5 343.5t188.5 258.5q16 16 71.5 55t74.5 46q37 14 90 14q26 0 52 -14.5t36 -36.5q11 -25 11.5 -53t-13.5 -50q-13 -21 -27.5 -31t-40.5 -18q-31 0 -35 -4
q-63 -38 -111 -87.5t-79 -100.5t-54 -117t-35.5 -126t-23.5 -140q-23 -182 4 -291q23 -100 90 -164q34 -34 78 -53t77 -24.5t93 -10.5q35 -3 62 -35.5t24 -67.5z" />
    <glyph glyph-name="parenright" unicode=")" horiz-adv-x="706" 
d="M338 -63q-55 -58 -117 -58q-38 0 -69 18.5t-43 51.5q-17 44 7 86t70 51h13q149 175 190 422q19 106 12 262q-3 88 -13 152t-34 132.5t-71.5 122.5t-118.5 93q-2 0 -11 -1t-10 -1q-38 3 -65 24q-34 28 -37.5 70.5t22 76.5t68.5 42q39 8 94 -15q145 -66 229.5 -175.5
t120.5 -268.5q36 -155 33 -356q-3 -197 -73 -399.5t-197 -329.5z" />
    <glyph glyph-name="plus" unicode="+" horiz-adv-x="1056" 
d="M604 188q-1 -46 -31.5 -75t-70.5 -29q-41 0 -72 31t-31 71q4 180 4 269q-1 0 -77 -2.5t-130.5 -0.5t-74.5 11q-36 16 -49 33q-25 42 -23 65q3 34 20.5 61t47.5 35q3 1 18.5 5t18 4t18 2t18.5 -2q18 -9 27 -9q30 0 92 1t94 1q-6 230 -6 232q-3 49 28.5 81t74.5 32
q38 0 68 -24t34 -60q2 -6 2 -13.5t-1 -15.5t-1 -12q0 -3 6 -213q10 1 73.5 3.5t122 5.5t73.5 5q42 4 61 -4q40 -20 58.5 -58t0.5 -75q-11 -25 -31.5 -43t-45.5 -21q-76 -9 -312 -18q0 -93 -4 -273z" />
    <glyph glyph-name="comma" unicode="," horiz-adv-x="296" 
d="M205 -291q-11 -32 -37 -48.5t-57 -16.5q-42 0 -73.5 27.5t-31.5 72.5q0 6 5 39.5t5 38.5q1 6 9 77.5t16.5 129.5t15.5 75q12 34 40.5 53t60.5 19q29 0 54 -15.5t38 -43.5q17 -36 4 -78q-7 -19 -24.5 -165t-24.5 -165z" />
    <glyph glyph-name="hyphen" unicode="-" horiz-adv-x="1144" 
d="M190 438q-18 -6 -36 -6q-42 0 -73.5 30t-31.5 73q0 32 18.5 58t49.5 38q51 21 239 44.5t295 31.5q303 26 344 24q40 -1 66.5 -22.5t32 -51t-1 -59.5t-34 -50.5t-67.5 -21.5q-121 0 -427.5 -32t-373.5 -56z" />
    <glyph glyph-name="period" unicode="." horiz-adv-x="335" 
d="M287 92q-11 -37 -55.5 -70.5t-84.5 -33.5q-31 0 -62 22t-38 51q-9 32 0.5 69t32.5 63q21 27 59 34q24 6 51 -4q2 0 7.5 -2t7.5 -2q44 -7 68.5 -45.5t13.5 -81.5z" />
    <glyph glyph-name="zero" unicode="0" horiz-adv-x="1171" 
d="M1018 440q-30 -72 -73.5 -139.5t-101 -127t-130.5 -95t-150 -35.5q-139 0 -257 108.5t-173 251.5q-59 160 -41 392q8 88 30.5 180.5t60 187.5t99 173.5t136.5 119.5q84 46 174 37q18 -1 50 -7.5t46 -8.5q50 -4 93.5 -35.5t90.5 -81.5q86 -93 139.5 -216t65.5 -251
q23 -250 -59 -453zM473 281q55 -38 100 -33q46 3 97.5 46.5t85.5 91.5t57 95q93 194 55 437q-15 95 -63 184.5t-119 154.5q-30 -2 -94 29q-28 12 -60 -2q-20 -6 -65 -47q-75 -80 -123 -223q-65 -188 -49 -393q8 -106 52.5 -195.5t125.5 -144.5z" />
    <glyph glyph-name="one" unicode="1" horiz-adv-x="839" 
d="M612 0q-15 -6 -32 -6q-70 0 -106.5 53.5t-43.5 130.5q-12 106 -12 262q3 361 67 674q-175 -110 -317 -110q-45 0 -76 16q-38 23 -49.5 66t10.5 83q20 36 52.5 61t66.5 25q38 0 70 -32q124 41 250 153q76 67 92 76q30 18 63 18q46 0 79.5 -32.5t29.5 -81.5q0 -23 -6 -41
q-7 -25 -22.5 -79.5t-26 -95t-17.5 -79.5q-72 -356 -59 -744q5 -103 12 -135q0 -2 6 -8q42 -41 33 -97.5t-64 -76.5z" />
    <glyph glyph-name="two" unicode="2" horiz-adv-x="1081" 
d="M295 27q-89 -54 -131 -54q-44 0 -77.5 32t-29.5 73q3 45 27 72q37 36 139 77h4q156 118 274.5 287.5t180.5 359.5q40 124 37 224q-5 76 -32.5 109.5t-100.5 33.5q-136 0 -250 -65q14 -29 6.5 -67t-33.5 -56q-33 -23 -65 -23q-48 0 -85.5 37t-41.5 92q-4 44 20.5 90.5
t63.5 77.5q61 52 178 85.5t209 33.5q106 0 189.5 -51.5t117.5 -147.5q38 -99 25 -223q-13 -178 -103 -368t-219 -351q195 7 322 -51q60 -29 82 -85.5t-17 -105.5q-26 -36 -78 -36q-49 0 -78 36q-1 1 -4 5.5t-4 5.5q-80 28 -190 28q-149 0 -309 -57q-2 -1 -13.5 -9t-13.5 -9z
" />
    <glyph glyph-name="three" unicode="3" horiz-adv-x="1083" 
d="M1006 430q-15 -92 -77.5 -170.5t-149.5 -128.5t-184 -78t-185 -28q-70 0 -134 12q-15 2 -60 11t-56 13q-30 11 -47.5 37t-19 54t13.5 55.5t45 40.5q29 16 61 10q126 -29 188 -29q114 0 233 55t157 140q29 64 6 111q-27 59 -111 86q-88 31 -207 24q-29 0 -41 -4
q-117 -55 -194 -55q-50 0 -76 26q-35 32 -35 76q0 28 11 51t33.5 38t44 26t54.5 18.5t53 11t50 7.5q19 4 51 28q129 84 188 226q8 21 12.5 45t1 50.5t-17.5 39.5q-24 24 -84 24q-39 0 -84 -9t-89.5 -33t-57.5 -58q-3 -5 2 -14q6 -38 -15.5 -72t-58.5 -43q-56 -15 -97.5 24.5
t-39.5 100.5q1 57 33.5 113.5t79.5 93.5q63 49 152 74.5t177 25.5q103 0 185 -50t110 -144q25 -102 -6 -203q-36 -119 -127 -228q121 -29 203 -100q67 -57 95.5 -135t13.5 -166z" />
    <glyph glyph-name="four" unicode="4" horiz-adv-x="1126" 
d="M930 111q0 -51 -40.5 -82t-90.5 -17q-31 6 -51 33q-21 29 -34 71.5t-16.5 71.5t-7.5 80q-189 -65 -295 -65q-221 0 -293 200q-61 177 15 394q74 223 295 524q19 28 69 93.5t68 80.5q31 25 69 25q47 0 83 -37t36 -84q0 -37 -26 -67.5t-62 -33.5q-120 -158 -201 -286
t-133 -264q-54 -142 -26 -259q10 -38 33 -61q18 -20 67 -20q106 0 285 73q-6 151 4 322q9 110 24 139q29 51 86 51q37 0 66.5 -23t36.5 -63q4 -19 -2 -57t-6 -45q-6 -117 -6 -234q3 2 24 17.5t35 19.5q40 10 74 -5t50.5 -43.5t11.5 -64.5t-36 -63q-45 -39 -149 -84
q6 -77 18 -158q2 -10 13.5 -37t11.5 -42z" />
    <glyph glyph-name="five" unicode="5" horiz-adv-x="1128" 
d="M866 188q-141 -147 -348 -147q-127 0 -222 51.5t-181 155.5q-5 5 -15 16.5t-16 18t-12.5 17t-10.5 19.5q-19 54 15 97t84 43q49 0 78 -39q5 -5 19 -23t20.5 -25.5l19.5 -22.5t22 -23.5t21.5 -19.5t25 -19.5t25.5 -14.5q61 -28 123 -28q63 0 114.5 22.5t85.5 60t58 88.5
t35 104.5t14 111.5q3 75 -18 127q-18 43 -66.5 63.5t-109.5 20.5q-49 0 -82 -8q-31 -7 -87.5 -32t-82.5 -32q-56 -14 -104 17t-52 87q-4 51 27 175q7 26 17.5 73t20.5 85.5t21 72.5q26 66 61 105t97 55q16 6 72.5 4.5t74.5 -0.5q26 2 106 18t105 25q13 5 39 24.5t43 24.5
q18 6 35 6q48 0 79 -39.5t19 -89.5q-5 -17 -20 -34.5t-26.5 -26t-35.5 -25.5q-68 -48 -196.5 -68t-247.5 -20q-8 -18 -34 -117.5t-27 -103.5q89 29 174 29q163 0 274.5 -85.5t124.5 -244.5q10 -144 -16 -252q-50 -184 -140 -277z" />
    <glyph glyph-name="six" unicode="6" horiz-adv-x="1028" 
d="M911 367q-53 -139 -172 -229.5t-264 -90.5q-128 0 -221 76t-137 205q-43 128 -25 327q18 196 105 386t225 321q42 42 97 77.5t99 35.5q66 0 103 -60q21 -44 14 -85t-43 -65t-80 -12q-149 -104 -243 -327q94 32 194 32q110 0 201 -41.5t141 -128.5q52 -93 49 -196
q-3 -129 -43 -225zM295 467q7 -54 25.5 -100t58.5 -80.5t94 -34.5q81 0 145.5 50.5t97 124.5t34.5 153q0 97 -46.5 135.5t-146.5 38.5q-82 0 -132 -25.5t-122 -91.5q-1 -1 -3 -2t-3.5 -2t-1.5 -2q-10 -95 0 -164z" />
    <glyph glyph-name="seven" unicode="7" horiz-adv-x="950" 
d="M549 152q-13 -46 -45 -76.5t-76 -30.5q-36 0 -65 21t-41 57q-14 45 -7 117q3 43 25 149q79 403 287 842q-84 -17 -178 -17q-97 0 -205 19q-82 14 -109 14h-10q-34 -1 -60.5 16.5t-38 44t-6.5 58t29 55.5q31 31 86 31q29 0 62 -4t72.5 -11t60.5 -10q52 -8 119 -8
q57 0 86 4q42 4 116 21t101 22q62 11 104 -14q31 -17 46 -51t7 -68q-5 -22 -15 -43.5t-29 -52.5t-25 -41q-41 -76 -105 -227q-172 -418 -213 -727q16 -18 24.5 -43.5t2.5 -46.5z" />
    <glyph glyph-name="eight" unicode="8" horiz-adv-x="950" 
d="M836 305q-34 -134 -148.5 -244t-241.5 -110q-115 0 -205 87.5t-114 205.5q-14 71 -4 159q26 190 143 322q-118 102 -155 207q-54 153 39 291q65 98 184 166.5t235 68.5q110 0 188 -78.5t89 -189.5q16 -131 -41 -287q-15 -50 -50 -132.5t-57 -104.5q91 -81 129 -179
q31 -89 9 -182zM438 862q18 6 39 6q50 0 82 -32q58 130 76 215q8 35 9.5 71t-9.5 72.5t-37 50.5q-13 8 -37 8q-46 0 -107 -31t-107.5 -79.5t-49.5 -93.5q-3 -26 12 -62q32 -66 117 -129q2 -1 12 4zM334 264q15 -41 43.5 -75.5t64.5 -34.5q59 0 126 78.5t73 142.5
q3 31 -20 69q-12 21 -26.5 38.5t-40 37.5t-35 27.5t-46.5 31t-39 25.5q-65 -62 -90 -151q-37 -120 -10 -189z" />
    <glyph glyph-name="nine" unicode="9" horiz-adv-x="966" 
d="M535 53l-7 -7q-160 -161 -229 -161h-4q-48 3 -80 39.5t-20 81.5q15 54 51 70q8 8 18 8q213 171 305 375q-142 15 -242.5 67t-170.5 164q-55 89 -73 195t5 207q34 149 151 245.5t269 96.5q102 0 181 -52.5t126 -146.5q77 -168 59 -410q-43 -471 -339 -772zM309 836
q17 -37 37 -65t46 -46.5t50.5 -30.5t60.5 -19.5t63.5 -10.5t72.5 -7q57 231 18 412q-18 73 -51.5 116.5t-97.5 43.5q-88 0 -151.5 -61t-71.5 -148q-16 -96 24 -184z" />
    <glyph glyph-name="colon" unicode=":" horiz-adv-x="366" 
d="M270 887q-38 -23 -80 -23q-50 0 -79 29q-34 34 -29.5 85.5t45.5 80.5q28 22 59 22q37 0 70 -23t45 -57q11 -27 2 -62t-33 -52zM223 8q-20 -10 -45 -10q-32 3 -61.5 23.5t-44.5 48.5q-23 38 -10 81t53 62q29 12 47 10q32 -3 61.5 -23t44.5 -48q23 -38 9.5 -81t-54.5 -63z
" />
    <glyph glyph-name="semicolon" unicode=";" horiz-adv-x="372" 
d="M238 819q-28 -7 -60 3.5t-55 33.5q-29 29 -29 71.5t29 71.5q31 31 74 31q56 0 94 -47q37 -43 19.5 -97t-72.5 -67zM260 -141q-1 -45 -31.5 -75t-70.5 -30q-29 0 -60 21t-37 49q-7 54 -5 137.5t7 140.5q5 45 35 76t74 31q71 0 103.5 -59t-11.5 -113q-4 -46 -4 -178z" />
    <glyph glyph-name="less" unicode="&#x3c;" horiz-adv-x="950" 
d="M834 223q-24 -12 -68 -12q-79 0 -193.5 18t-207.5 41q-302 73 -302 254q0 57 33.5 118.5t86.5 113.5t107.5 93t106.5 69q6 3 41 20t64 30t61 26t45 14q69 4 97 -37q31 -44 15.5 -95.5t-67.5 -66.5q-29 -9 -110.5 -49.5t-104.5 -57.5q-43 -28 -102.5 -84.5t-67.5 -89.5
q41 -36 151 -62t208.5 -36t165.5 -10q55 0 86 -40t19.5 -88.5t-64.5 -68.5z" />
    <glyph glyph-name="equal" unicode="=" horiz-adv-x="985" 
d="M164 664q-52 -4 -86 44t-12 95q20 41 45 53q37 15 106 23q3 0 9.5 -1t9.5 -1q85 12 253.5 30.5t233.5 18.5q56 0 98 -23q34 -20 46 -53t2.5 -63t-35.5 -52t-60 -22q-18 0 -39 6q-30 5 -57.5 3.5t-78 -7.5t-58.5 -6q-304 -39 -377 -45zM737 315q-399 -35 -481 -28
q-10 0 -39.5 7.5t-38.5 12.5q-43 25 -49 75t29 85q18 18 43.5 26.5t48.5 2.5q5 -1 16.5 -4.5t16.5 -4.5q25 -2 109.5 4t182 15t109.5 10q72 8 131 8q43 0 74 -24q46 -38 36 -96t-67 -78q-11 -4 -56 -7.5t-65 -3.5z" />
    <glyph glyph-name="greater" unicode="&#x3e;" horiz-adv-x="864" 
d="M424 199q-62 -30 -143 -58.5t-117 -19.5q-37 7 -58 26q-23 20 -32 46.5t-2.5 51.5t21.5 45.5t41.5 30.5t55.5 5q16 0 48 16q274 107 340 188q22 28 18 41q-13 28 -109 66q-94 38 -196 74q-99 34 -135 53q-40 22 -59 62t-9 81q10 35 38 55.5t62 20.5q35 0 66 -25
q1 -1 9.5 -12t10.5 -12q36 -14 112.5 -40t134 -49t108.5 -48q96 -47 141 -119q34 -59 31 -117q-1 -39 -16 -76t-35 -66t-54.5 -58.5t-62.5 -49.5t-71.5 -44t-69.5 -36.5t-68 -31.5z" />
    <glyph glyph-name="question" unicode="?" horiz-adv-x="913" 
d="M389 430q-6 -38 -34.5 -62t-65.5 -24q-30 0 -59.5 20.5t-36.5 49.5q-20 68 -14.5 149.5t40.5 141.5q36 59 127 124q19 13 63 42.5t76 53t58 48.5q48 48 74 118t28 142q0 60 -16 70q-4 4 -23 4q-10 0 -23.5 -2t-26.5 -5t-17 -4q-62 -17 -149 -57.5t-128 -77.5l-6 -12
q-39 -49 -90 -49q-43 5 -73 34t-27 70q6 59 71.5 118t153.5 99t175.5 65t141.5 25q109 0 170 -67t70 -180q9 -123 -38 -243.5t-138 -205.5q-41 -37 -126.5 -96t-103.5 -72q-42 -33 -53 -55q-12 -29 -4 -92q1 -6 3 -23.5t2 -23.5t-1 -23zM459 47q-32 -49 -86 -49t-89 36
t-32.5 84.5t47.5 80.5q33 26 74 26q47 0 78 -36.5t22 -82.5q-4 -41 -14 -59z" />
    <glyph glyph-name="at" unicode="@" horiz-adv-x="1884" 
d="M1395 -72q-313 -159 -629 -159q-191 0 -350 84q-151 76 -243 239t-97 338q-2 151 52.5 298.5t149.5 268.5t217 218t259 161q219 101 385 101q178 0 338.5 -96t242.5 -251q90 -166 80 -374q-11 -187 -71 -305q-49 -96 -134.5 -154.5t-189.5 -58.5q-87 0 -160 42t-117 117
q-161 -237 -325 -237q-93 0 -152.5 75.5t-66.5 172.5q-17 209 67 360q49 93 135.5 156t184.5 63q39 0 73 -12q40 -15 94 -63.5t62 -84.5q13 -47 -6 -86q38 -16 57 -75q32 -113 37 -127q33 -97 115 -97q53 0 92.5 34t59.5 88t29.5 105.5t10.5 100.5q3 136 -41 236
q-45 114 -166.5 190t-246.5 76q-107 0 -248 -58q-223 -90 -395.5 -273.5t-210.5 -403.5q-19 -132 20 -248q49 -158 173 -237t296 -79q117 0 250 33t242 86q60 29 82 29q3 0 7.5 -1t6.5 -1q45 -8 68.5 -46t13.5 -81t-51 -64zM784 481q-4 -78 25 -116q15 3 31 16
q115 85 174 244q3 7 10.5 26t14 32t14.5 24q-16 9 -43 45q-28 28 -37 30q-12 5 -33.5 -4t-34.5 -20q-118 -94 -121 -277z" />
    <glyph glyph-name="A" unicode="A" horiz-adv-x="1120" 
d="M266 0q-11 -32 -38 -49t-58 -17q-39 0 -69 24.5t-33 66.5q-4 36 10 168t24 198q-53 25 -60.5 80t36.5 92q18 15 53 23q41 219 97 401t145 326q48 74 121 133t145 59q51 0 95.5 -26t79 -75.5t63 -109t49.5 -140t37.5 -153.5t27.5 -164t18.5 -158.5t12 -149.5t6.5 -123.5
t4 -94.5q1 -7 3.5 -90t4.5 -96q1 -7 3 -24t2 -23t-1 -23q-7 -40 -36 -63t-66 -23q-31 0 -56.5 17.5t-37.5 50.5q-8 23 -19 227q-5 137 -6 164q-76 -6 -159.5 -9.5t-193 -6t-159.5 -4.5q-7 -37 -23.5 -171t-17.5 -167q0 -6 0.5 -17t0.5 -18t-1 -17t-4 -18zM635 1296
q-55 -34 -106 -121.5t-87.5 -198t-60 -199.5t-37.5 -165q38 1 143.5 4.5t178.5 7t143 9.5q-6 68 -17.5 150.5t-32.5 193.5t-53.5 199.5t-70.5 119.5z" />
    <glyph glyph-name="B" unicode="B" horiz-adv-x="1173" 
d="M340 35q-30 -64 -98 -64q-94 0 -111 135q-38 259 -20 642q3 53 14.5 215t13.5 251v84q-12 85 25 127q37 47 166.5 71t222.5 24q67 0 144 -14.5t154.5 -43.5t133 -81t66.5 -119q10 -53 -11 -123q-55 -158 -303 -369q111 -16 212.5 -68.5t142.5 -138.5q59 -123 -9 -246
q-55 -99 -165.5 -169.5t-231.5 -98.5q-110 -26 -305 -22q-25 0 -41 8zM344 1288q2 -32 -4 -148t-15.5 -256t-9.5 -149q12 6 25 6q226 131 399 310q104 110 111 172q-40 46 -131.5 69t-169.5 23q-90 0 -205 -27zM309 498q0 -144 15 -285q24 18 59 18q197 -4 299 27
q118 40 197 125q23 28 28 41q16 33 -9 61.5t-69 49.5q-89 38 -217 38q-98 0 -194 -22q-1 0 -2 -1t-2 -1q-79 -41 -105 -51z" />
    <glyph glyph-name="C" unicode="C" horiz-adv-x="1007" 
d="M954 133q-7 -36 -46.5 -61t-97 -35t-99.5 -13.5t-84 -3.5q-169 0 -296 78t-195 210.5t-77 303.5q-6 146 39 314q19 75 48 148.5t75 150t100 134t127.5 94t153.5 36.5q95 0 174 -47.5t119 -134.5q42 -84 27 -220q-7 -61 -39.5 -108t-87.5 -47q-52 0 -84.5 42.5t-12.5 94.5
q2 4 8 13t7 14q5 11 6.5 46t-0.5 46q-6 44 -39 69t-76 25q-56 0 -108 -40.5t-89 -101t-66.5 -134t-46 -137.5t-22.5 -113q-25 -184 27 -312q80 -189 266 -215q31 -6 117.5 -1.5t116.5 16.5q29 15 41 18q56 9 92.5 -32.5t21.5 -96.5z" />
    <glyph glyph-name="D" unicode="D" horiz-adv-x="1095" 
d="M285 45q-2 0 -7 -1t-8 -1q-43 -4 -67 12q-38 30 -45 56q-39 141 -45 278q-2 46 -0.5 453.5t0.5 453.5q-13 18 -17 50q-3 47 27 81t78 39q66 4 96 4q171 0 305 -49q198 -70 320 -232t125 -370q0 -91 -29 -186q-63 -178 -237.5 -328.5t-374.5 -236.5q-74 -32 -121 -23z
M317 412q3 -78 15 -154q66 27 143 75t152 109t131 136.5t71 144.5q19 76 6 154.5t-51 148.5q-63 118 -191 177.5t-276 62.5q1 -42 -0.5 -427t0.5 -427z" />
    <glyph glyph-name="E" unicode="E" horiz-adv-x="1013" 
d="M479 -4q-72 -5 -144 17t-120 67q-79 79 -104 221q-19 112 -19 322q4 386 43 565q14 76 43 125q42 68 125 109.5t162 54t170 12.5q156 0 225 -29q47 -19 63 -65.5t-12 -87.5q-18 -24 -47.5 -37t-56.5 -6q-76 20 -166 20q-62 0 -148.5 -14.5t-119.5 -40.5q-22 -16 -29 -47
q-10 -33 -18 -99q-16 -124 -23 -270q40 4 336 41q34 4 53 -6q55 -19 68 -78q6 -42 -19 -78.5t-67 -40.5q-22 -2 -187.5 -22.5t-189.5 -22.5q0 -316 57 -377q28 -28 113 -28q49 0 117 10q6 1 68.5 10t117.5 15t94 6q38 0 56 -6q47 -18 62 -62.5t-7.5 -85.5t-71.5 -49
q-8 -2 -53 -3.5t-49 -2.5q-35 -3 -147.5 -19t-174.5 -18z" />
    <glyph glyph-name="F" unicode="F" horiz-adv-x="903" 
d="M338 154q32 -56 -1 -105t-89 -49q-46 0 -78 37q-31 35 -49 114t-22 175.5t-3.5 170t4.5 138.5q-33 33 -33 78.5t35 74.5q13 6 13 11q19 176 59 321q29 105 62 173t86.5 119.5t131.5 74t191 22.5q173 0 223 -90q30 -55 -2.5 -104t-87.5 -49q-38 0 -65 24l-8 8q-7 5 -70 5
q-134 0 -182 -48q-79 -79 -129 -432q127 11 335 37q47 4 72 -14q38 -25 45 -53q12 -47 -12 -88.5t-70 -47.5q-310 -34 -389 -41q-4 -59 -4.5 -143t8.5 -183.5t29 -135.5z" />
    <glyph glyph-name="G" unicode="G" horiz-adv-x="1099" 
d="M1051 494q-3 -130 -85.5 -253.5t-209.5 -198.5t-256 -75q-69 0 -129 23.5t-103.5 65.5t-77.5 95t-56 116t-35.5 125t-18.5 126q-24 287 57 563q24 76 59 143.5t85.5 128t120 95.5t149.5 35q124 0 222 -79.5t132 -201.5q21 -68 15 -98q-7 -44 -39 -71t-72 -27
q-51 0 -84 45q-22 36 -16 75q0 1 1.5 6t0.5 9q-19 58 -49 86q-46 49 -111 49q-52 0 -96 -39t-73.5 -101.5t-47 -116.5t-29.5 -108q-32 -176 -24 -327q2 -59 13 -122.5t34.5 -133t69.5 -114t108 -44.5q91 0 178.5 67.5t134.5 155.5q34 71 23 135q-7 38 -29.5 54t-62.5 16
q-63 5 -142 -8q-55 -8 -90.5 27.5t-31 85t52.5 77.5q22 11 79 18t107 7q141 0 225 -70q49 -43 76 -109t25 -132z" />
    <glyph glyph-name="H" unicode="H" horiz-adv-x="1181" 
d="M1040 -53q-31 -23 -59 -23q-33 0 -63 18.5t-39 49.5q-13 53 -23.5 246t-13.5 307q-101 -3 -285.5 -6t-243.5 -4q-3 -173 6 -342q4 -71 17 -109q19 -54 -13.5 -95.5t-82.5 -41.5q-31 0 -54.5 15t-36 41t-19 52t-9.5 56q-13 139 -14 304.5t5 292t16 311t13 296.5
q0 3 1 23.5t1 23.5q9 42 39.5 66t67.5 24q35 0 63 -22t35 -62q1 -9 -0.5 -25.5t-1.5 -21.5q-4 -98 -14.5 -291t-14.5 -291q45 1 234.5 4.5t290.5 6.5q3 294 28 616q5 50 33 83.5t76 33.5q19 0 43.5 -11t34.5 -26q24 -31 24 -66q0 -9 -3.5 -26.5l-4.5 -22.5
q-33 -348 -26 -801q12 -398 28 -475q5 -30 -4 -61t-31 -47z" />
    <glyph glyph-name="I" unicode="I" horiz-adv-x="444" 
d="M326 51q-10 -34 -37 -58t-62 -24q-32 0 -61.5 19t-38.5 49q-5 22 -10 98q-7 65 -7 347t3 407q2 75 8 224t8 224q3 53 36.5 90t78.5 37q20 0 43 -10q31 -14 47 -44t10 -64q0 -3 -5 -16t-5 -15q0 -12 -4 -102.5t-4 -104.5q-15 -306 -11 -760q0 -123 4 -184q0 -4 4.5 -53
t2.5 -60z" />
    <glyph glyph-name="J" unicode="J" horiz-adv-x="1169" 
d="M942 367q-25 -183 -162 -300.5t-323 -117.5q-125 0 -226 58t-159 165q-18 34 -36 94t-11 86q8 31 22 45q30 37 78 37q60 0 88 -51q4 -6 31 -100q27 -60 86 -94.5t127 -34.5q75 0 153 42.5t103 108.5q22 46 30 133q6 65 2 199q-1 20 -9 160t-9 159q-1 11 -3.5 79t-5.5 131
t-5 79q-242 -20 -365 -18q-63 4 -84 16q-49 28 -51 84t45 88q29 22 59 19q112 -8 342 12q262 20 394 22q60 2 88.5 -43.5t9 -96.5t-77.5 -62q-30 -6 -155 -6q1 -22 8 -175t8 -176q2 -29 8.5 -129.5t8.5 -147t0.5 -124.5t-9.5 -141z" />
    <glyph glyph-name="K" unicode="K" horiz-adv-x="1042" 
d="M317 8q-10 -30 -37.5 -48.5t-60.5 -18.5q-20 0 -43.5 11.5t-32.5 27.5q-20 27 -22 49q-6 74 -6 341t3 581t3 341q0 74 8 99q12 37 40.5 57t63.5 20q63 0 89 -57q17 -34 8 -63q-3 -12 -4 -27.5t-1 -26.5t0.5 -28.5t0.5 -26.5q0 -135 -4 -401q223 234 346 403q4 6 51 83
t57 89q34 37 78 37q38 0 67.5 -25.5t32.5 -66.5q4 -40 -12 -64q-27 -39 -45 -71q-47 -85 -115 -168q-36 -46 -74 -91.5t-88.5 -101.5t-75.5 -83.5t-91.5 -98.5t-79.5 -86q49 -25 98.5 -53t123 -72t95.5 -57q117 -70 228 -150q3 -1 20 -13t20 -13q44 -26 53 -73.5
t-19.5 -84.5t-80.5 -37q-31 0 -61 20q-103 75 -158 109q-35 22 -184.5 110t-188.5 109q0 -267 5 -321q0 -47 -7 -60z" />
    <glyph glyph-name="L" unicode="L" horiz-adv-x="880" 
d="M586 -20q-74 -19 -146 -19t-128 22.5t-91.5 59.5t-60 92.5t-36.5 113t-18 128.5q-5 75 1 386t12 476l5 74q5 74 7 88q7 41 35.5 64.5t64.5 23.5q55 0 88 -47q29 -43 13 -92q-6 -18 -6 -84q-5 -153 -12 -479t-3 -402q3 -63 21 -125q17 -53 37.5 -73.5t70.5 -20.5
q40 0 76 8q73 15 223 66q18 6 35 6q47 0 79.5 -35.5t23.5 -83.5q-4 -28 -23 -49.5t-45 -30.5q-140 -47 -223 -67z" />
    <glyph glyph-name="M" unicode="M" horiz-adv-x="1566" 
d="M291 39q-13 -33 -39.5 -50.5t-58.5 -17.5q-36 0 -65 22.5t-36 61.5q-6 46 -6 221q0 895 240 1135q52 45 118 45q47 0 85.5 -31t60.5 -77q103 -202 174 -600q17 69 40 145.5t65 180t88.5 183t111 135.5t131.5 56q53 0 97 -34.5t70 -83t45.5 -115.5t28 -116.5t13.5 -101.5
q13 -115 13 -247t-6 -289t-5 -248q0 -47 4 -70q5 -43 2 -55q-11 -44 -37 -59q-31 -23 -59 -23q-33 0 -63 18.5t-37 49.5q-15 55 -17 129.5t2 132.5q1 38 5.5 144t5.5 159.5t0.5 139t-7 158t-18.5 142.5q-14 88 -47 144q-88 -97 -162 -299q-47 -132 -121 -459
q-40 -206 -65 -252q-30 -55 -97 -55q-34 0 -62 20t-38 55q-14 53 -24 113q-6 38 -20.5 129.5t-23 142t-22 125t-27.5 136.5q-47 209 -98 329q-116 -220 -133 -643q-9 -181 -2 -465q4 -38 -4 -61z" />
    <glyph glyph-name="N" unicode="N" horiz-adv-x="1243" 
d="M262 -27q-33 -8 -53 -4q-55 16 -70 51q-6 14 -10.5 34t-5.5 31t-3.5 39.5t-2.5 33.5q-14 163 -21 265t-8 246.5t12 266.5q28 265 138 324q34 18 69 18q43 0 87 -25t79.5 -67t61.5 -81t47 -81q53 -100 100 -211.5t106 -270t84 -220.5q10 43 17.5 86.5t13.5 95t10 85
t7.5 95.5t5 86t4.5 96t4 88q22 368 10 432q-7 46 23.5 82.5t74.5 36.5q35 0 64.5 -20t38.5 -51q7 -28 7 -118.5t-3 -160t-6 -119.5q0 -9 -2.5 -70.5t-3.5 -75t-3.5 -69.5t-4 -75.5t-4.5 -69.5t-6 -75t-7.5 -69t-9 -75t-10.5 -69t-13 -73q-24 -131 -69 -223
q-17 -37 -50 -58.5t-71 -21.5q-98 0 -168 144q-32 67 -123 311q-116 314 -192 455q-42 75 -78 118q-18 -50 -25 -125q-10 -90 -10 -274q3 -154 16 -342q1 -15 9.5 -103.5t9.5 -99.5q8 -51 -11 -78q-26 -38 -55 -45z" />
    <glyph glyph-name="O" unicode="O" 
d="M999 285q-144 -254 -378 -254q-104 0 -200 45.5t-166.5 120t-118.5 170t-64 196.5q-23 157 3 319.5t99 299.5q6 12 6 28q36 139 139 221t248 82q88 0 157.5 -27t121 -80t88 -114t72.5 -147q107 -266 79 -557q-17 -179 -86 -303zM397 956q109 -329 475 -417
q44 237 -36 475q-13 38 -29.5 76.5t-40.5 82.5t-55.5 77.5t-63.5 45.5q-31 -39 -78 -39q-16 0 -51 13q-83 -52 -145 -154q-3 -75 24 -160zM295 514q35 -109 125 -193.5t196 -84.5q108 0 183 110q-178 46 -309.5 145t-223.5 259q-3 -140 29 -236z" />
    <glyph glyph-name="P" unicode="P" horiz-adv-x="1034" 
d="M338 66q-9 -35 -36.5 -56.5t-61.5 -21.5q-29 0 -54.5 15.5t-38.5 41.5q-10 13 -18 47q-8 33 -16 111q-18 250 -4 592q4 62 20 270t21 254q0 2 -1.5 6.5t-1.5 7.5q-9 43 20.5 81.5t74.5 47.5q67 17 213 17q117 0 219 -32t186.5 -106t122.5 -182q37 -116 2 -225
q-38 -124 -153 -236.5t-254 -182t-269 -89.5q0 -244 27 -299q13 -29 2 -61zM350 1270q-34 -291 -41 -635q144 34 281 125.5t192 212.5q22 54 15 92q-13 58 -47.5 100.5t-84 65.5t-102.5 34t-112 11q-52 0 -101 -6z" />
    <glyph glyph-name="Q" unicode="Q" horiz-adv-x="1187" 
d="M1094 -113q-34 -34 -72 -34q-75 0 -166.5 62t-167.5 138q-70 -26 -139 -26q-70 0 -131 24.5t-129 71.5q-114 78 -170 205t-56 274q-3 317 117 563q65 135 189.5 223.5t267.5 88.5q63 0 131 -12.5t98 -41.5q4 -3 15.5 -8t15.5 -8q37 -20 67 -52.5t51 -75.5t34 -79.5
t26 -83.5q49 -179 25 -416q-15 -149 -77.5 -289t-162.5 -239q52 -52 111 -88q2 -1 14 -8t23.5 -12.5t15.5 -6.5q38 -11 43 -14q42 -25 51 -73.5t-24 -82.5zM289 457q25 -85 103 -155.5t163 -70.5q-110 187 -139 422q-32 279 57 516q2 4 14.5 32t14.5 32q-61 -42 -106.5 -106
t-71 -139.5t-38.5 -149t-16 -152.5q-8 -144 19 -229zM612 750q6 -216 121 -416q34 37 62 82q111 174 108 434q0 159 -47 287q-8 23 -25 53t-30 37q-21 9 -47 -8q-41 -23 -71.5 -81t-45 -129.5t-21 -137.5t-4.5 -121z" />
    <glyph glyph-name="R" unicode="R" horiz-adv-x="1124" 
d="M338 72q0 -45 -32.5 -74t-76.5 -29q-24 0 -49.5 17t-36.5 39q-39 86 -39 516q0 60 1.5 120t5.5 134t6.5 113.5t9 133.5t8.5 119q4 90 2 133q-4 35 2 60q6 34 31.5 57.5t60.5 26.5q108 12 215 12q276 0 420 -92q88 -54 137.5 -136.5t49.5 -183.5q-2 -72 -32 -147.5
t-75.5 -139.5t-107.5 -128t-119 -111.5t-119 -91.5q230 -35 342 -115q51 -36 91 -97.5t28 -109.5q-10 -35 -38 -55t-62 -20q-63 0 -89 53q-19 37 -30 47q-41 44 -152.5 70.5t-201 33t-171.5 6.5q2 -19 5.5 -56t5.5 -56q1 -6 5.5 -23t4.5 -26zM317 846q-8 -164 -8 -367
q293 151 463 383q83 112 74 191q-11 146 -250 182q-122 17 -254 8q0 -91 -25 -397z" />
    <glyph glyph-name="S" unicode="S" horiz-adv-x="1073" 
d="M950 109q-67 -75 -175.5 -113.5t-219.5 -38.5q-117 0 -232.5 39t-191.5 113q-62 58 -76 94q-19 55 14 97t85 42q43 0 77 -37q61 -77 140 -110t186 -33q104 0 193 47q22 12 44 31t23 36q2 34 -57 93q-47 45 -119 92q-26 16 -108 64t-134.5 82.5t-99.5 72.5
q-155 127 -193 283q-26 106 23 227q52 134 169 213.5t255 79.5q116 0 213 -54t160 -153q3 -5 17.5 -20t19.5 -25q20 -40 12 -70q-14 -38 -25 -47q-35 -35 -82 -35q-33 0 -61 25q-3 3 -18.5 19.5t-18.5 19.5q-32 47 -58 73.5t-67 44t-94 17.5q-82 0 -145.5 -47.5
t-90.5 -126.5q-14 -48 -12 -78q9 -112 201 -244q39 -26 131 -80t139 -86q96 -65 161 -135t83 -159q9 -55 -10 -114t-58 -99z" />
    <glyph glyph-name="T" unicode="T" horiz-adv-x="1015" 
d="M641 94q10 -47 -21 -84t-77 -37q-32 0 -61 19t-38 49q-20 78 -24 213q-1 66 0.5 184.5t1.5 155.5q0 123 -4 360.5t-10 294.5q0 3 -2.5 7t-4.5 4q-209 -9 -280 -3q-72 8 -96 46q-29 38 -21.5 85.5t49.5 67.5q37 19 70 10q37 -10 92 -6q324 3 696 35q31 2 57 -15.5
t38.5 -44t9.5 -57.5t-25 -53q-33 -33 -61 -35q-212 -16 -318 -22q2 -23 5 -107t6.5 -180t3.5 -107q1 -106 -0.5 -302t-1.5 -259q0 -137 16 -219z" />
    <glyph glyph-name="U" unicode="U" horiz-adv-x="1146" 
d="M942 193q-62 -104 -165 -168t-220 -64q-72 0 -133 23.5t-105 61.5t-79 93.5t-57.5 113.5t-39.5 127.5t-25.5 128.5t-13.5 124q-21 241 -4 553q10 162 27 200q15 30 41 47t55 17q52 0 82 -43q27 -34 17 -78q-19 -108 -23 -311q-7 -358 41 -582q55 -270 217 -270
q52 0 88 20q61 31 102.5 82.5t62 118t29 126t11.5 134.5q10 183 -14 430q-14 174 -39 297q-9 49 22.5 85t77.5 36q43 0 69.5 -28t34.5 -72q23 -117 43 -346q26 -338 -4 -557q-20 -174 -98 -299z" />
    <glyph glyph-name="V" unicode="V" horiz-adv-x="1083" 
d="M778 184q-110 -172 -231 -172q-36 0 -60 8q-44 17 -85 57.5t-73.5 97.5t-60 116.5t-49.5 128t-35.5 118t-25.5 99.5q-72 311 -92 543q-11 176 -7 198q7 43 39.5 69t71.5 26q65 0 90 -58q16 -41 4 -80q-6 -15 4 -131q10 -108 32 -241t55.5 -279.5t84.5 -273.5t107 -189
q49 43 86 121.5t52 138t32 146.5q79 498 108 819q4 38 35.5 63t69.5 25q36 0 63 -27q40 -40 35 -77q-12 -160 -20 -240q-8 -73 -50.5 -345.5t-56.5 -336.5q-46 -206 -123 -324z" />
    <glyph glyph-name="W" unicode="W" horiz-adv-x="1654" 
d="M1573 944q-8 -62 -19.5 -130t-33.5 -163t-48 -181t-65.5 -173t-84.5 -150t-105 -103t-127 -40q-73 0 -144 57q-110 79 -176 336q-19 -60 -47 -121.5t-70 -126t-99.5 -105t-119.5 -40.5q-146 0 -241 211q-43 95 -66 242.5t-27 254t-4 255.5q0 243 8 366q8 150 121 150
q35 0 63 -19.5t38 -56.5q9 -38 -11 -76q-1 -1 -4 -5t-4 -5q-11 -266 -2 -559q3 -86 6 -132t11.5 -119t26.5 -132t46 -111q20 -40 39 -57q6 3 21 18q63 70 97 163t62 224q3 14 30.5 166t52.5 281t36 164q12 37 39.5 56.5t61.5 19.5q37 0 66 -22.5t38 -63.5q2 -25 1 -86.5
t-3 -86.5q-5 -110 -3.5 -251t17.5 -250q45 -270 135 -332q1 0 4.5 -1t4.5 -1q8 3 24.5 18t24.5 25q62 76 112 216.5t75 263.5t40 245q29 223 6 379q-5 38 -2 47q11 44 37 59q33 23 70 23q41 0 65.5 -25t30.5 -67q28 -180 -4 -449z" />
    <glyph glyph-name="X" unicode="X" horiz-adv-x="1134" 
d="M199 -8q-30 -37 -78 -37h-10q-41 3 -67.5 32t-26.5 66t24 72q71 86 219 297q36 53 107.5 158.5t107.5 158.5q-55 83 -119.5 185.5t-143.5 248t-79 189.5q0 43 30.5 75.5t72.5 32.5q45 0 84.5 -36.5t39.5 -81.5q0 -2 -1 -9t-1 -8q92 -180 240 -409q156 235 268 487
q12 25 36.5 39t53.5 14q34 0 62 -18.5t35 -50.5q12 -46 0 -70q-77 -167 -115 -237q-77 -141 -217 -353q230 -352 364 -594q30 -55 1 -105t-87 -50q-59 0 -90 51q-153 274 -313 514q-13 -20 -53 -80t-57 -85t-52.5 -77.5t-58.5 -84.5t-55 -76t-61.5 -82.5t-59.5 -75.5z" />
    <glyph glyph-name="Y" unicode="Y" horiz-adv-x="1171" 
d="M1106 106q-5 -42 -32.5 -72t-65.5 -30q-26 0 -55.5 16.5t-39.5 38.5q-58 122 -82.5 268t-35.5 335q-114 -156 -269 -156q-80 0 -148 34.5t-115 88.5t-85.5 133t-62 154.5t-41.5 168t-26.5 158t-14.5 139.5q-3 34 18 62q30 43 84 43q32 0 58 -17.5t38 -50.5q4 -11 9 -55
q4 -39 8.5 -71t13.5 -92t20.5 -108.5t27.5 -108.5t37.5 -105t47 -84.5t59.5 -60.5t72 -21q37 0 58 18q25 20 47 52.5t33.5 55t29.5 64.5q21 50 42.5 114.5t32 100t34 124t28.5 106.5q11 41 40.5 62.5t64.5 21.5q44 0 75 -31t27 -84q-4 -47 -14.5 -154.5t-16.5 -187.5
t-8 -154q-9 -260 43 -508q6 -24 23 -79t25 -70q18 -36 16 -58z" />
    <glyph glyph-name="Z" unicode="Z" horiz-adv-x="1103" 
d="M752 -14q-138 -27 -254 -27q-65 0 -124 8t-122 28t-111.5 60t-72.5 97q-21 58 -11 129q35 201 351 561q18 21 61 70t66.5 77t57.5 70t61.5 81t50.5 79q24 42 34 77q-44 13 -135 13q-85 0 -189 -9t-157 -18q-20 0 -35 -10q-30 -18 -33 -19q-20 -4 -30 -4q-47 0 -78.5 33
t-29 77.5t43.5 74.5q111 82 502 82q47 0 83 -2.5t84 -12t81 -26.5t61 -49.5t37 -77.5q11 -50 -10 -115q-29 -94 -121 -221q-38 -55 -85 -111.5t-108.5 -126.5t-91.5 -106q-85 -97 -167 -215.5t-101 -200.5q-5 -24 4 -33q14 -14 62 -33q56 -18 151 -22q106 0 231.5 21
t227.5 55q40 10 49 10q2 0 7 -1t7 -1q42 -8 65.5 -40.5t19.5 -72t-37 -67.5q-45 -37 -295 -82z" />
    <glyph glyph-name="asciicircum" unicode="^" horiz-adv-x="839" 
d="M250 1104q-12 -24 -38.5 -39.5t-53.5 -15.5q-47 0 -79.5 36t-23.5 84q5 35 60.5 114t97.5 128q70 84 160 84q37 0 67 -12q43 -17 84.5 -46t92.5 -72.5t75 -61.5q2 -2 29.5 -16t30.5 -19q39 -39 36 -78q-5 -41 -31.5 -70.5t-62.5 -29.5q-64 0 -133 57q-18 14 -55.5 45
t-68 54t-60.5 40q-74 -74 -127 -182z" />
    <glyph glyph-name="asciicircum" unicode="&#x2c6;" horiz-adv-x="839" 
d="M250 1104q-12 -24 -38.5 -39.5t-53.5 -15.5q-47 0 -79.5 36t-23.5 84q5 35 60.5 114t97.5 128q70 84 160 84q37 0 67 -12q43 -17 84.5 -46t92.5 -72.5t75 -61.5q2 -2 29.5 -16t30.5 -19q39 -39 36 -78q-5 -41 -31.5 -70.5t-62.5 -29.5q-64 0 -133 57q-18 14 -55.5 45
t-68 54t-60.5 40q-74 -74 -127 -182z" />
    <glyph glyph-name="underscore" unicode="_" horiz-adv-x="1150" 
d="M1151 -178q-3 -44 -33 -74.5t-71 -26.5q-21 1 -115 9t-144 10q-528 11 -647 -4q-44 -5 -57 -2q-42 7 -64 38t-21 65t26 64t67 36q65 8 150 8q180 4 268 4q299 0 555 -25q35 -3 62 -35t24 -67z" />
    <glyph glyph-name="grave" unicode="`" horiz-adv-x="505" 
d="M397 1206q-34 -15 -61 -6q-172 43 -234 92q-26 21 -42 53.5t-15 63.5q3 59 32 102t83 43q42 0 73 -28.5t31 -73.5q0 -1 -1 -4.5t-1 -6t2 -3.5q6 -2 69 -22.5t73 -26.5q54 -31 51 -93t-60 -90z" />
    <glyph glyph-name="a" unicode="a" horiz-adv-x="1052" 
d="M1026 94q-8 -102 -117 -102q-221 0 -256 274q-152 -266 -327 -266q-105 0 -182 72.5t-95 177.5q-14 71 -4 158q18 202 143 380q76 108 185.5 189.5t220.5 81.5q108 0 168 -43q3 -2 16 -10.5t18 -12t14 -10.5t15 -14t11 -15q25 -14 40.5 -41t14.5 -55q-3 -41 -14.5 -114.5
t-14.5 -102.5q-24 -185 -8 -328q4 -55 18 -90q11 -23 13 -24q5 -2 30.5 -2.5t28.5 -1.5q44 -12 60 -35q25 -32 22 -66zM252 276q6 -28 27.5 -49.5t46.5 -21.5q27 3 62 39t65.5 88t52.5 93.5t35 72.5q20 50 40 104.5t45.5 126t37.5 105.5q-27 20 -60 20q-62 0 -158 -82
q-75 -64 -125.5 -160t-70.5 -202q-11 -78 2 -134z" />
    <glyph glyph-name="b" unicode="b" horiz-adv-x="1024" 
d="M315 55q-12 -31 -37.5 -49t-58.5 -18q-53 0 -76 34.5t-28 92.5q0 2 -4 5t-5 5q-17 24 -20 47q-7 40 12 68q0 1 3 5t3 5q-7 157 5 502q16 321 30 487q2 20 9 71t10 79q1 5 1.5 19t1.5 24t5 18q12 32 37.5 50t58.5 18q36 0 66 -25.5t34 -60.5q3 -40 -4 -91
q-30 -246 -39 -495q65 97 154.5 163t188.5 66q79 0 144.5 -36.5t104.5 -104.5q94 -161 58 -399q-29 -161 -122.5 -259t-256.5 -174q-137 -59 -275 -47zM340 258q110 -5 260 78q75 44 111 98q48 67 60 160t-11 170q-23 106 -92 106q-28 0 -64 -20q-203 -124 -264 -592z" />
    <glyph glyph-name="c" unicode="c" horiz-adv-x="778" 
d="M727 117q-44 -64 -132.5 -115t-162.5 -51q-192 0 -313 203q-77 139 -74 307q1 99 35.5 197.5t95.5 181.5q136 186 297 186q61 0 112.5 -29.5t69.5 -83.5t4 -127v-14q0 -47 -30.5 -73.5t-71.5 -26.5q-33 0 -60 18t-38 53q-12 36 -2 76q-82 -30 -141 -134.5t-64 -199.5
q-10 -114 37 -213q26 -58 69 -92q40 -28 78 -22q26 1 61 23.5t60 47.5q35 41 86 41q20 0 41.5 -11t32.5 -26q26 -38 24 -67q-4 -36 -14 -49z" />
    <glyph glyph-name="d" unicode="d" horiz-adv-x="1050" 
d="M1004 4q-16 -21 -47.5 -33t-61.5 -12q-36 0 -80 21q-88 40 -143 128t-74 193q-34 -56 -63 -97.5t-74 -92t-97 -78t-106 -27.5q-70 0 -117.5 48.5t-70.5 121.5q-52 183 12 412q22 70 53 135.5t76 128.5t97.5 109.5t121 75t143.5 28.5q40 0 58 -4q0 2 29.5 144t37.5 167
q12 33 40 52.5t61 19.5q42 0 73 -31q36 -36 29 -92q-2 -18 -15 -81.5t-28.5 -132t-17.5 -81.5q-49 -255 -54 -459q-8 -195 31 -299q27 -67 78 -100q2 -1 7.5 0.5t6.5 1.5q31 4 52 -4q49 -19 63 -70.5t-20 -91.5zM252 352q0 -87 20 -135q194 147 314 643q-42 6 -86 -14
q-50 -21 -92 -74q-73 -85 -114.5 -196t-41.5 -224z" />
    <glyph glyph-name="e" unicode="e" horiz-adv-x="823" 
d="M776 209q-30 -95 -123 -154t-196 -59q-106 0 -193.5 59.5t-138.5 157.5q-53 98 -70.5 213.5t4.5 222.5q33 167 162.5 281t298.5 114q79 0 139 -28q48 -25 75.5 -73t23.5 -103q-8 -104 -84 -215q-59 -81 -118 -124.5t-142 -43.5q-45 0 -160 26q5 -44 18.5 -89.5
t36.5 -90.5t61 -73.5t85 -28.5q51 0 90 28q16 10 34.5 39t28.5 39q31 25 68 25q64 0 88 -53q17 -40 12 -70zM403 659q49 -6 119 109q26 50 31 70q-64 11 -137 -21q-80 -39 -129 -129q75 -23 116 -29z" />
    <glyph glyph-name="f" unicode="f" horiz-adv-x="858" 
d="M383 33q-27 -58 -92 -58q-58 0 -88 52q-18 28 -30.5 122.5t-14.5 155.5q-8 189 -2 404q-42 4 -66 18q-28 15 -42.5 48t-8.5 65q6 37 34 59.5t66 22.5q11 0 31 -4q6 48 13.5 93t21.5 103.5t32 108t45 99.5t59.5 85t77 56.5t95.5 21.5q77 0 144.5 -40.5t111.5 -107.5
q1 -2 10.5 -8.5t10.5 -7.5q20 -20 28 -41q17 -44 -7.5 -86t-70.5 -51q-55 -9 -108 37q-12 11 -35 44t-41 44q-39 19 -53 12q-8 -4 -33 -37q-65 -104 -92 -311l166 18q56 8 92 8q40 0 63 -26q33 -33 35 -60q3 -44 -21 -79t-65 -39q-123 -10 -289 -31q-4 -196 -2 -295
q4 -204 33 -332q9 -29 -8 -63z" />
    <glyph glyph-name="g" unicode="g" horiz-adv-x="927" 
d="M793 -63q-64 -165 -181.5 -247.5t-296.5 -82.5q-61 0 -116 12q-119 31 -131 39q-41 28 -49.5 75t24.5 81q18 20 45 29.5t51 2.5q101 -27 137 -30q127 -14 211 37q35 21 61.5 54.5t43 79t27 86.5t16 97t7.5 89t3 83q-195 -258 -354 -258q-79 3 -137 55.5t-86 132.5
q-53 147 12 363q43 160 151 278t261 152q17 4 38.5 5t34.5 0.5t41 -2t37 -1.5q64 0 74 -2l24 6q40 0 52 -6q49 -22 61 -61q10 -43 -2 -134q0 -2 -3 -20t-3 -21q-1 -75 2.5 -282t-0.5 -281q-11 -205 -55 -329zM268 322q15 -31 27 -33q15 0 47.5 27t55 50t38.5 42
q83 96 131 202.5t74 239.5q6 12 0 12q-24 4 -84 4h-12q-67 -11 -122 -52.5t-89.5 -101t-55.5 -124.5t-26 -131q-8 -86 16 -135z" />
    <glyph glyph-name="h" unicode="h" horiz-adv-x="1058" 
d="M979 35q-31 -45 -86 -45q-36 0 -66.5 25t-33.5 61q-17 208 -17 295v36.5v49.5t-0.5 53.5t-2 61t-4 58.5t-6 59t-9 50.5t-13 45t-16.5 30.5q-4 4 -25 -6q-52 -31 -98.5 -84t-81.5 -117.5t-60.5 -125.5t-45.5 -126q-5 -13 -31 -96t-31 -96q-33 -88 -112 -88q-30 0 -53.5 13
t-36.5 29.5t-23.5 46t-14 49.5t-8.5 52q-18 164 -14 396q2 190 21 501q0 4 0.5 27.5t1.5 38.5t2.5 41t4 44.5t6.5 39t10 35t14 22.5q35 35 77 35q47 0 78.5 -36t22.5 -83q-11 -67 -22 -339.5t-11 -371.5q146 312 346 390q62 24 119 12q49 -6 88.5 -38.5t63.5 -81t37.5 -96.5
t19.5 -97q10 -89 11 -255.5t5 -228.5q8 -86 10 -127q3 -29 -16 -59z" />
    <glyph glyph-name="i" unicode="i" horiz-adv-x="391" 
d="M270 1348q-3 -2 -14.5 -10.5t-17 -12t-15 -9.5t-18 -9t-17.5 -4q-52 -5 -88 27.5t-32 82.5q6 47 48.5 82t90.5 35q25 0 63 -25q37 -31 37 -78.5t-37 -78.5zM305 186q32 -56 -1 -104.5t-89 -48.5q-59 0 -89 51.5t-36 118.5q-18 190 2 577q3 24 4 35.5t5.5 36t9.5 38
t14.5 32t21 28.5t29 17.5t39.5 7.5q28 0 57.5 -22t36.5 -48q8 -37 4 -53q-12 -36 -14 -53q-23 -356 -8 -553q4 -42 14 -60z" />
    <glyph glyph-name="j" unicode="j" horiz-adv-x="399" 
d="M272 1343q-33 -26 -79 -26q-45 0 -70 22q-37 31 -37 79t37 79q34 27 80 27q43 0 69 -23q37 -31 37 -79t-37 -79zM264 -164q-31 -93 -98.5 -144.5t-163.5 -51.5q-41 0 -95.5 10.5t-84.5 27.5q-34 21 -45.5 55t-2 64t36 52t60.5 22q27 0 47 -10q7 -4 33.5 -9.5t36.5 -5.5
q35 -4 51 7q37 24 57 149q4 32 6 65t2 74t-0.5 62t-3 74t-2.5 65q-9 234 -6 469q0 133 12 158q18 38 49.5 62t69.5 24q39 0 68.5 -28t32 -65.5t-24.5 -74.5q-6 -251 2 -471q1 -25 3.5 -95t3.5 -102.5t0 -94.5t-5 -102t-14 -91t-25 -95z" />
    <glyph glyph-name="k" unicode="k" horiz-adv-x="974" 
d="M309 16q-13 -30 -39.5 -46.5t-58.5 -16.5q-62 0 -92 55q-8 13 -13.5 41t-8 56t-4 71.5t-2 66.5t0 63t0.5 42q0 110 6.5 330t25.5 478t46 304q29 51 90 51q62 0 88 -51q22 -37 8 -96q-26 -94 -49 -645q40 34 124 96t124 96q93 79 100 84q24 15 62 15q55 0 84 -29
q34 -34 34.5 -79.5t-34.5 -76.5q-17 -14 -47 -22q-13 0 -15 -2q-116 -100 -180 -148q-10 -7 -35 -25t-38 -27.5t-32.5 -25t-35.5 -30.5t-29 -31q13 -16 58.5 -46.5t88.5 -56.5t97.5 -57.5t62.5 -36.5q209 -120 238 -170q29 -52 -0.5 -102.5t-87.5 -50.5q-44 0 -68 24
q-39 34 -100 74q-37 22 -120.5 69.5t-145.5 85.5t-115 77q0 -106 6 -211q0 -3 8 -19q15 -35 -2 -78z" />
    <glyph glyph-name="l" unicode="l" horiz-adv-x="438" 
d="M309 98q28 -58 -4.5 -103.5t-87.5 -45.5q-54 0 -86 51q-7 12 -13 26.5t-9 25t-5.5 30.5t-3.5 27t-2.5 31.5t-1.5 27.5q-21 284 2 639q8 153 29 335t55 249q24 53 88 53q34 0 62 -19t35 -51q10 -33 0 -80q-45 -171 -64 -481q-20 -311 -6 -575q0 -110 12 -140z" />
    <glyph glyph-name="m" unicode="m" horiz-adv-x="1312" 
d="M315 -12q-15 -29 -42.5 -45.5t-57.5 -16.5q-27 0 -48 11.5t-33 27.5t-21.5 42t-13 46t-7.5 47q-28 210 -20 615q1 9 3.5 111.5t4.5 119.5q4 39 33.5 65.5t66.5 26.5q13 0 19 -2q41 -8 67 -45t19 -78q-11 -56 -11 -370q65 184 132 307q61 104 139 104q140 0 190 -276
q145 307 287 307q43 0 78.5 -24t58.5 -64q60 -99 78 -289q6 -58 9 -127.5t3 -118t-1 -130.5t-1 -121q0 -43 -29 -74t-71 -31t-73.5 29.5t-31.5 75.5q0 34 1 118.5t0.5 146t-3.5 118.5q-3 138 -34 245q-20 -26 -78 -131q-69 -140 -146 -424q-8 -25 -13 -37.5t-15.5 -33.5
t-21.5 -31t-29.5 -18.5t-40.5 -8.5q-38 0 -69.5 27t-35.5 70q-4 37 -4 167q0 202 -21 326q-75 -181 -145 -424q-60 -209 -72 -233z" />
    <glyph glyph-name="n" unicode="n" horiz-adv-x="960" 
d="M885 37q-39 -45 -84 -39q-29 0 -49 14q-39 28 -49.5 58.5t-10.5 87.5q-1 26 -6 130.5t-10 171t-14 132.5q-19 155 -56 237q-110 -127 -219 -501q-51 -198 -65 -234q-13 -36 -41.5 -60t-65.5 -24q-48 0 -84 39q-22 31 -29 80q-8 72 -21 379t-13 395q0 49 29.5 83t78.5 34
q38 0 62 -27q47 -47 38 -104q-4 -12 -4 -15l7 -227q17 43 31.5 76.5t40 86.5t52.5 91.5t60 76t72.5 57.5t80.5 20q46 0 85 -25.5t64.5 -68.5t41.5 -84t27 -86q18 -73 30 -164t16 -143.5t9.5 -174t7.5 -151.5q0 -2 3 -10.5t3 -10.5q8 -24 3.5 -53t-21.5 -47z" />
    <glyph glyph-name="o" unicode="o" horiz-adv-x="856" 
d="M772 313q-37 -127 -132.5 -214t-221.5 -87q-94 0 -173 53t-125.5 133t-62.5 173q-26 165 35 377q34 121 105.5 210t160.5 89q33 0 76 -19q2 -2 8 -2q151 -7 241 -102.5t116 -251.5q26 -173 -27 -359zM397 219q24 -6 52 0q42 9 74.5 52t47 87t23.5 91q23 137 -12 251
q-18 54 -52 86q-39 39 -112 35q-9 0 -23.5 -4.5t-21.5 -5.5q-10 -2 -29 -2q-41 -54 -65.5 -152.5t-24.5 -177.5q-3 -104 45 -182q40 -64 98 -78z" />
    <glyph glyph-name="p" unicode="p" horiz-adv-x="1001" 
d="M295 -291q-12 -32 -37.5 -49.5t-56.5 -17.5q-39 0 -70 26t-35 70q-9 99 -15.5 527t-6.5 620q0 35 2.5 58t12 50.5t31.5 41.5t56 14q31 0 57.5 -18t38.5 -50q4 -11 6 -44t2 -62t-0.5 -68.5t-0.5 -42.5q61 150 120 215q86 86 195 86q122 0 216.5 -67t127.5 -183
q31 -119 12 -240q-10 -66 -39 -139t-75 -143t-102 -126.5t-125.5 -91t-139.5 -34.5q-63 0 -137 31q-17 -153 -25 -267q-1 -4 -2.5 -26.5t-4 -43t-5.5 -26.5zM365 293q47 -47 104 -47q31 0 68 26q70 45 122 122t80 167q19 71 13 139q-4 77 -43 119q-23 22 -55.5 33t-63.5 8
q-27 -2 -55 -38t-51.5 -96t-43 -120.5t-36 -131.5t-25 -109t-14.5 -72z" />
    <glyph glyph-name="q" unicode="q" horiz-adv-x="929" 
d="M770 -449q-35 -9 -69.5 7.5t-53.5 50.5q-28 52 -41.5 216t-13.5 277q-81 -98 -168 -139q-66 -29 -121 -26q-61 3 -110 32t-78 75t-48.5 105.5t-22 123.5t2.5 128q9 81 37 168.5t76.5 173t109 153t142 109.5t168.5 42q75 0 159 -23q11 -3 43 -8.5t49 -14.5
q42 -25 49 -72.5t-26 -84.5q-4 -48 -8 -74q-65 -497 -45 -850q12 -138 24 -205q1 -3 4.5 -7t4.5 -7q25 -43 5 -90t-69 -60zM260 213q19 -72 51 -72q31 0 86 49q55 55 97.5 133t71.5 176t45 168.5t34 170.5q-27 6 -55 6q-59 0 -113.5 -36t-94 -93t-70 -125.5t-46.5 -134
t-18 -117.5q-3 -64 12 -125z" />
    <glyph glyph-name="r" unicode="r" horiz-adv-x="854" 
d="M322 121q-33 -53 -93 -53q-40 0 -71 26t-35 70q-4 43 -4 129q-4 349 -49 543q-21 74 -21 100q0 31 27 70q10 17 42 31.5t52 11.5q34 -3 60.5 -20.5t33.5 -47.5q11 -36 -2 -74q25 -104 39 -198q54 116 126 196t177 121q18 9 61 22t62 13q43 -4 59 -14q43 -25 50 -71.5
t-22 -83t-79 -36.5q-17 0 -53 -18q-64 -25 -111 -78q-44 -50 -85.5 -139t-63 -155t-47.5 -159q-7 -32 -25.5 -101t-27.5 -85z" />
    <glyph glyph-name="s" unicode="s" horiz-adv-x="817" 
d="M657 104q-79 -96 -256 -96q-109 0 -286 47q-38 14 -47 25q-33 33 -35 59q-5 55 32.5 92.5t88.5 24.5q13 -3 44 -10.5t47.5 -11.5t42 -9t47.5 -8t44 -4q59 -3 100 10q10 6 10 8l-6 10q-6 10 -8 11q-36 52 -139 127q-95 65 -152 129t-69 151q-19 120 41 222q43 73 126 114
t177 41q66 0 118.5 -20t124.5 -62q2 -1 15.5 -7t15.5 -7q27 -19 37 -37q28 -47 2.5 -97t-80.5 -54q-19 -2 -40 4t-35 13.5t-37.5 21.5t-34.5 20q-56 23 -92 23q-29 0 -60 -11.5t-51 -31.5q-21 -23 -26 -60.5t8 -64.5q14 -29 53 -64q27 -22 79.5 -60t73.5 -55
q163 -132 168 -264q3 -61 -41 -119z" />
    <glyph glyph-name="t" unicode="t" horiz-adv-x="890" 
d="M594 12q-5 0 -16 -1t-17 -1q-153 0 -236.5 99.5t-107.5 265.5q-12 95 -13.5 218t1.5 218q-57 0 -86 4q-48 8 -75 45t-15 82q8 33 38 57t62 21q54 -4 80 -4q4 197 10 293q0 46 28 78t72 32q47 0 80.5 -35t24.5 -88q-10 -62 -10 -274q84 -2 262 -10q48 -3 79.5 -39
t22.5 -82q-6 -38 -35.5 -62.5t-66.5 -21.5q-182 8 -266 10q-4 -183 0 -274q4 -147 32 -228q14 -55 47 -79q20 -17 54 -21q44 -2 110 12q4 0 13 3t10 6q25 38 78 38q39 0 70 -24t34 -62q4 -45 -18.5 -78.5t-63.5 -53t-85.5 -30t-96.5 -14.5z" />
    <glyph glyph-name="u" unicode="u" horiz-adv-x="1030" 
d="M993 -20q-37 -50 -88 -50q-12 0 -18 2q-61 16 -107 51t-74.5 85t-45.5 103t-27 118q-23 -41 -41.5 -71t-50.5 -73t-62 -70.5t-70.5 -48t-80.5 -20.5q-185 0 -250 322q-42 239 12 610q6 49 33 86q15 18 41.5 30.5t50.5 12.5q39 0 68.5 -27.5t32.5 -65t-25 -75.5
q-29 -226 -27 -373q2 -80 18 -170t48 -141q47 40 102.5 136t92.5 181t65 162q50 157 51 162q12 92 27 141q9 34 37 55t61 21q44 0 74 -32.5t30 -77.5q0 -37 -28 -144q-10 -39 -21 -221q-4 -128 2 -195q7 -71 28 -152.5t54 -105.5q8 -6 33 -15t35 -19q32 -32 35 -62
q3 -43 -15 -69z" />
    <glyph glyph-name="v" unicode="v" horiz-adv-x="845" 
d="M715 387q-86 -369 -269 -369q-118 0 -213 125q-42 52 -74.5 131.5t-50.5 153t-32 177t-18.5 163.5t-10.5 152q-3 48 29.5 79t75.5 31q45 0 72.5 -33t27.5 -79q19 -291 61 -465q15 -66 46.5 -131.5t76.5 -94.5q4 -1 5.5 1.5t3.5 9.5q1 1 1 2q59 97 94.5 290.5t45.5 358.5
q3 42 0 84q0 8 -4.5 25.5t-3.5 27.5q5 42 32.5 72t65.5 30q20 0 46 -11.5t38 -26.5q24 -38 31 -103q3 -42 -5 -145q-22 -278 -71 -455z" />
    <glyph glyph-name="w" unicode="w" horiz-adv-x="1327" 
d="M616 281q-107 -279 -274 -279q-116 0 -190 119q-70 103 -89 317q-17 210 39 441q24 108 35 141q10 36 39.5 56t65.5 20q35 0 63.5 -21t38.5 -59q11 -32 -2 -60q-1 -3 -9.5 -16.5t-8.5 -15.5q-43 -178 -52 -250q-7 -48 -8 -111t3.5 -133.5t23.5 -131.5t49 -89
q41 34 72 113q14 34 26.5 70t24 78t18.5 69.5t19.5 79.5t17.5 73q22 156 125 156q31 0 57 -17t37 -49q2 -7 15 -135q14 -195 65 -319q30 -68 55 -68q49 0 95 65t65 124q48 127 39 256q-2 53 -16.5 119t-38.5 102q-31 46 -2 99.5t84 53.5q35 0 64 -18.5t44 -50.5
q25 -54 47 -140q56 -212 -10 -438q-48 -160 -129 -250q-46 -53 -112 -90t-130 -37q-93 0 -158 64t-98 162z" />
    <glyph glyph-name="x" unicode="x" horiz-adv-x="845" 
d="M264 -31q-32 -32 -76 -32q-40 0 -72.5 28t-39.5 72q-17 107 184 461q-138 194 -186 297q-17 38 -25.5 77.5t-2 80t35.5 59.5q31 22 65 22q90 0 101 -110q3 -32 20 -62q33 -65 109 -176q196 297 231 322q28 20 47 20q44 4 70 -12q35 -26 46.5 -66t-11.5 -76
q-10 -13 -32 -39t-32 -40q-91 -125 -190 -287q12 -16 120 -151t124 -158q58 -82 63 -142q4 -39 -28 -71.5t-72 -32.5q-30 0 -61 21t-38 49q-7 29 -57 88q-23 29 -79 97.5t-85 106.5q-85 -169 -108 -237q0 -7 6 -19q13 -50 -27 -90z" />
    <glyph glyph-name="y" unicode="y" horiz-adv-x="923" 
d="M758 -178q-49 -77 -134.5 -121.5t-177.5 -44.5q-67 0 -122 24t-119 72q-71 59 -80 72q-18 26 -23 47q-9 49 24 84t79 35q37 0 65 -25q84 -75 136 -96q19 -8 45 -8q46 0 78.5 17t51 50t28 64.5t16.5 77.5q10 76 14 290q-27 -41 -46 -67.5t-54 -67.5t-65 -65.5t-70.5 -43
t-79.5 -18.5q-90 0 -145 68.5t-81 169.5q-35 133 -39 300.5t11 305.5q3 39 33.5 65.5t68.5 26.5q33 0 67.5 -27t43.5 -57q11 -49 -9 -84q-1 -1 -3.5 -4.5t-2.5 -5.5q-17 -233 17 -418q14 -82 43 -131q37 22 94 96q141 195 227 553q8 35 23 50q31 36 78 36q43 0 74 -30
t30 -76q-6 -127 -8 -380.5t-8 -379.5q-8 -231 -80 -354z" />
    <glyph glyph-name="z" unicode="z" horiz-adv-x="847" 
d="M678 129q-210 -70 -363 -70q-196 0 -258 113q-30 52 -20 117q10 63 76 141q45 55 160.5 160t164.5 170q45 61 43 104q0 26 -32.5 38.5t-65.5 12.5q-68 0 -111 -32q-27 -17 -51 -17q-41 0 -74 26.5t-36 63.5q-4 45 14 68q32 47 112 70.5t154 23.5q82 0 157.5 -36
t110.5 -103q38 -72 25 -156q-18 -114 -121 -233q-43 -48 -128.5 -127.5t-117.5 -112.5q-49 -49 -67 -78q35 -6 69 -6q138 0 361 82q18 6 35 6q45 0 75.5 -32.5t26.5 -79.5q0 -33 -22 -58q-7 -7 -17 -13.5t-17.5 -10.5t-20.5 -9.5t-19.5 -7.5t-22 -7t-20.5 -7z" />
    <glyph glyph-name="asciitilde" unicode="~" horiz-adv-x="993" 
d="M932 563q-23 -78 -92.5 -125t-153.5 -47q-66 0 -119 36t-106 99q-6 7 -22.5 29t-29 36.5t-26.5 26.5q-8 8 -39 -2q-41 -13 -72 -32q-2 -1 -3.5 -11.5t-2.5 -11.5q-14 -32 -43.5 -49.5t-62.5 -17.5q-34 0 -60.5 17.5t-38.5 51.5q-18 54 19 115q39 63 132 106t171 43
q70 0 131 -51q28 -24 71.5 -78.5t63.5 -74.5q21 -21 33 -25q18 -9 45 12q-11 43 2 70q30 65 96 65q34 0 60 -17t35 -48q23 -75 12 -117z" />
    <glyph glyph-name="uni00A0" unicode="&#xa0;" horiz-adv-x="512" 
 />
    <glyph glyph-name="exclamdown" unicode="&#xa1;" horiz-adv-x="446" 
d="M270 666q-31 -31 -90 -31q-28 0 -49 8q-43 16 -60 56t0 80.5t60 56.5q10 4 51 4t51 -4q54 -20 65.5 -75t-28.5 -95zM410 -428q-5 -45 -33 -72.5t-74 -27.5q-50 0 -80 41q-6 8 -11 16.5t-9 19.5t-7 18t-6 21.5t-4 20t-3 22.5t-2.5 20t-2.5 22t-2 20q-20 189 -24 508
q0 132 6 198q7 79 65 113q23 10 45 10q51 0 82.5 -42t14.5 -95q-9 -30 -9 -170q0 -395 35 -582q0 -2 2.5 -5.5t3.5 -4.5q14 -38 13 -51z" />
    <glyph glyph-name="dieresis" unicode="&#xa8;" horiz-adv-x="718" 
d="M639 1333q27 -23 33 -57t-5.5 -64.5t-38 -52.5t-59.5 -22q-32 0 -59 18t-39 49q-11 31 0 71t37 58q34 23 59 23q42 0 72 -23zM283 1176q-30 -66 -131 -66q-38 0 -58 14q-26 22 -35 37q-28 47 -4.5 97.5t76.5 56.5q7 1 19 2.5t21.5 2.5t18.5 1q3 0 9.5 -1t9.5 -1
q50 -9 73 -53t1 -90z" />
    <glyph glyph-name="guillemotleft" unicode="&#xab;" horiz-adv-x="1253" 
d="M496 119q-32 -35 -76 -35q-34 0 -114 27t-120 47q-77 43 -104 114q-21 48 -10 121q13 82 63 176q171 324 213 383q50 68 105 68q58 0 88.5 -50t-0.5 -104q-3 -5 -11.5 -14t-11.5 -14q-30 -46 -120 -211.5t-109 -212.5q-17 -42 -17 -68q19 -14 56 -29q45 -15 125 -34
q50 -14 65 -70.5t-22 -93.5zM1180 307q-38 -38 -78 -35q-64 4 -230 27q-159 19 -239 43q-68 20 -111 66q-28 31 -37 81t2 93q27 114 131 225q110 123 173 123q46 0 78 -30t28 -73q-4 -44 -25 -65q-13 -13 -38 -34t-35 -30q-89 -81 -111 -159q43 -15 131 -27q56 -8 299 -37
q38 -4 63 -35t24.5 -67t-25.5 -66z" />
    <glyph glyph-name="uni00AD" unicode="&#xad;" horiz-adv-x="0" 
 />
    <glyph glyph-name="macron" unicode="&#xaf;" horiz-adv-x="800" 
d="M201 1122q-10 0 -30 -3t-30 -3q-2 0 -7 1t-7 1q-43 8 -67.5 46t-12.5 81q6 25 24 45.5t42 26.5q27 7 110 12t155.5 7t172 3.5t104.5 1.5q33 1 59 -17t37.5 -44.5t6.5 -57.5t-29 -55q-22 -25 -55 -28q-28 -3 -236.5 -8.5t-236.5 -8.5z" />
    <glyph glyph-name="acute" unicode="&#xb4;" horiz-adv-x="555" 
d="M219 1055q-31 -25 -67 -25q-45 0 -76 31.5t-27 79.5q3 38 37 69q55 47 248 207q34 27 67 27q31 0 57 -19t39 -45.5t6 -59.5t-38 -58q-41 -35 -123 -103.5t-123 -103.5z" />
    <glyph glyph-name="cedilla" unicode="&#xb8;" horiz-adv-x="421" 
d="M274 -686q-34 -8 -51 -4q-43 11 -61 37q-25 38 -23 65q4 45 25 66q17 17 61 42t62 44q18 18 26 42.5t2 45.5q-7 26 -49 52t-80 38q-18 6 -55.5 8.5t-56.5 9.5q-50 20 -70 70q-18 52 10 113q17 37 40 80t38 69t47.5 80.5t42.5 71.5q29 53 90 53q32 0 56 -18t37 -48t6 -57
q-3 -13 -22 -49t-38 -69t-42.5 -72t-26.5 -45q73 -20 144 -68t103 -107q45 -83 29 -176q-18 -116 -110 -192q-22 -17 -69 -47.5t-65 -34.5z" />
    <glyph glyph-name="guillemotright" unicode="&#xbb;" horiz-adv-x="1445" 
d="M240 135q-28 -22 -68 -22q-45 0 -75.5 30.5t-26.5 79.5q4 45 39 70q147 111 223 184q32 28 59 69.5t19 69.5q-1 11 -19.5 29.5t-30.5 26.5q-89 65 -155 82q-60 13 -76 28q-30 32 -34 73t24 73q35 35 76 35q100 0 235 -88.5t170 -180.5q22 -57 12 -131q-13 -93 -92 -186
q-17 -19 -34.5 -37t-41 -39t-36.5 -33t-44 -36t-38.5 -30.5t-45 -35t-40.5 -31.5zM944 -18q-36 -20 -80 -11q-43 12 -62.5 49t-9 77.5t49.5 62.5q65 38 92 54t76.5 48.5t85.5 61.5q47 35 63 73q13 28 10 62t-20 61q-15 21 -49 43q-7 4 -110 64.5t-120 72.5
q-35 28 -41.5 72.5t19.5 81.5q25 41 80 41q47 0 80 -33q1 -1 5 -7t5 -7q23 -13 72 -40.5t77.5 -44t65.5 -44.5t63 -57q58 -61 76 -170q9 -58 -4.5 -117.5t-46.5 -106.5q-36 -52 -78 -88q-26 -23 -54 -44.5t-62.5 -43.5t-57 -36t-65.5 -39t-60 -35z" />
    <glyph glyph-name="questiondown" unicode="&#xbf;" horiz-adv-x="782" 
d="M567 901q-44 -27 -73 -27q-47 0 -78.5 37t-24.5 84q11 48 17 58q27 49 86 49q54 0 89 -35.5t32 -84t-48 -81.5zM780 -166q-58 -88 -234 -166t-284 -78q-112 0 -173.5 65t-70.5 181q-11 123 37 244.5t140 204.5q31 30 68 57.5t87 61t72 49.5q2 1 8.5 6.5t9 7.5t8.5 7
t8.5 8.5t6.5 8t7 9.5t5 10q14 31 6 90q-9 52 -6 70q6 36 35 61t65 25q31 0 61.5 -20.5t37.5 -49.5q20 -68 14 -149.5t-41 -141.5q-34 -56 -127 -125q-147 -97 -196 -143q-50 -48 -76.5 -117.5t-26.5 -142.5q0 -59 15 -70q23 -13 92 8q78 20 215 93q17 10 61 41l6 12
q14 23 39 37.5t49 11.5q44 -3 75 -32.5t28 -69.5q-3 -37 -21 -64z" />
    <glyph glyph-name="Agrave" unicode="&#xc0;" horiz-adv-x="1120" 
d="M854 1790q46 -24 53 -71t-22.5 -84.5t-77.5 -37.5q-35 0 -124.5 53t-168 117.5t-86.5 94.5q-11 42 0 69q33 68 100 68q41 0 74 -37q20 -23 94 -76q26 -19 158 -96zM266 0q-11 -32 -38 -49t-58 -17q-39 0 -69 24.5t-33 66.5q-4 36 10 168t24 198q-53 25 -60.5 80t36.5 92
q18 15 53 23q41 219 97 401t145 326q48 74 121 133t145 59q51 0 95.5 -26t79 -75.5t63 -109t49.5 -140t37.5 -153.5t27.5 -164t18.5 -158.5t12 -149.5t6.5 -123.5t4 -94.5q1 -7 3.5 -90t4.5 -96q1 -7 3 -24t2 -23t-1 -23q-7 -40 -36 -63t-66 -23q-31 0 -56.5 17.5
t-37.5 50.5q-8 23 -19 227q-5 137 -6 164q-76 -6 -159.5 -9.5t-193 -6t-159.5 -4.5q-7 -37 -23.5 -171t-17.5 -167q0 -6 0.5 -17t0.5 -18t-1 -17t-4 -18zM635 1296q-55 -34 -106 -121.5t-87.5 -198t-60 -199.5t-37.5 -165q38 1 143.5 4.5t178.5 7t143 9.5q-6 68 -17.5 150.5
t-32.5 193.5t-53.5 199.5t-70.5 119.5z" />
    <glyph glyph-name="Aacute" unicode="&#xc1;" horiz-adv-x="1120" 
d="M578 1610q-21 -15 -52 -15q-38 0 -68.5 24.5t-33.5 61.5q-3 27 6.5 54.5t30.5 40.5q32 25 135 95.5t129 84.5q24 12 51 12q35 0 62 -20t36 -54q8 -29 -1 -60.5t-31 -45.5q-9 -7 -51 -33q-87 -57 -213 -145zM266 0q-11 -32 -38 -49t-58 -17q-39 0 -69 24.5t-33 66.5
q-4 36 10 168t24 198q-53 25 -60.5 80t36.5 92q18 15 53 23q41 219 97 401t145 326q48 74 121 133t145 59q51 0 95.5 -26t79 -75.5t63 -109t49.5 -140t37.5 -153.5t27.5 -164t18.5 -158.5t12 -149.5t6.5 -123.5t4 -94.5q1 -7 3.5 -90t4.5 -96q1 -7 3 -24t2 -23t-1 -23
q-7 -40 -36 -63t-66 -23q-31 0 -56.5 17.5t-37.5 50.5q-8 23 -19 227q-5 137 -6 164q-76 -6 -159.5 -9.5t-193 -6t-159.5 -4.5q-7 -37 -23.5 -171t-17.5 -167q0 -6 0.5 -17t0.5 -18t-1 -17t-4 -18zM635 1296q-55 -34 -106 -121.5t-87.5 -198t-60 -199.5t-37.5 -165
q38 1 143.5 4.5t178.5 7t143 9.5q-6 68 -17.5 150.5t-32.5 193.5t-53.5 199.5t-70.5 119.5z" />
    <glyph glyph-name="Acircumflex" unicode="&#xc2;" horiz-adv-x="1122" 
d="M481 1608q-35 -41 -86 -41q-55 0 -84 45q-21 28 -18 59q8 66 43 90q3 0 14 11q71 82 161.5 143t176.5 61q62 -3 111 -30q46 -29 112.5 -100.5t98.5 -121.5q19 -41 9.5 -79t-46 -60t-78.5 -10q-33 7 -53 33q-87 106 -111 131q-25 25 -41 33q-11 0 -57 -23
q-69 -39 -152 -141zM266 0q-11 -32 -38 -49t-58 -17q-39 0 -69 24.5t-33 66.5q-4 36 10 168t24 198q-53 25 -60.5 80t36.5 92q18 15 53 23q41 219 97 401t145 326q48 74 121 133t145 59q51 0 95.5 -26t79 -75.5t63 -109t49.5 -140t37.5 -153.5t27.5 -164t18.5 -158.5
t12 -149.5t6.5 -123.5t4 -94.5q1 -7 3.5 -90t4.5 -96q1 -7 3 -24t2 -23t-1 -23q-7 -40 -36 -63t-66 -23q-31 0 -56.5 17.5t-37.5 50.5q-8 23 -19 227q-5 137 -6 164q-76 -6 -159.5 -9.5t-193 -6t-159.5 -4.5q-7 -37 -23.5 -171t-17.5 -167q0 -6 0.5 -17t0.5 -18t-1 -17
t-4 -18zM635 1296q-55 -34 -106 -121.5t-87.5 -198t-60 -199.5t-37.5 -165q38 1 143.5 4.5t178.5 7t143 9.5q-6 68 -17.5 150.5t-32.5 193.5t-53.5 199.5t-70.5 119.5z" />
    <glyph glyph-name="Atilde" unicode="&#xc3;" horiz-adv-x="1122" 
d="M1018 1796q9 -100 -54 -174t-155 -74q-33 0 -70 13q-27 9 -55.5 27.5t-46 33.5t-48.5 44t-44 40q-23 -15 -37 -27l-12 -24q-35 -49 -88 -49q-50 0 -82.5 42.5t-16.5 102.5q9 36 53 76t96 65t87 25q55 0 121 -47q9 -5 69 -58t74 -59q6 13 5.5 26.5t-4 37.5t-3.5 30
q0 47 31 75t73 28q31 0 57.5 -17t37.5 -51q4 -8 8 -41t4 -45zM266 0q-11 -32 -38 -49t-58 -17q-39 0 -69 24.5t-33 66.5q-4 36 10 168t24 198q-53 25 -60.5 80t36.5 92q18 15 53 23q41 219 97 401t145 326q48 74 121 133t145 59q51 0 95.5 -26t79 -75.5t63 -109t49.5 -140
t37.5 -153.5t27.5 -164t18.5 -158.5t12 -149.5t6.5 -123.5t4 -94.5q1 -7 3.5 -90t4.5 -96q1 -7 3 -24t2 -23t-1 -23q-7 -40 -36 -63t-66 -23q-31 0 -56.5 17.5t-37.5 50.5q-8 23 -19 227q-5 137 -6 164q-76 -6 -159.5 -9.5t-193 -6t-159.5 -4.5q-7 -37 -23.5 -171
t-17.5 -167q0 -6 0.5 -17t0.5 -18t-1 -17t-4 -18zM635 1296q-55 -34 -106 -121.5t-87.5 -198t-60 -199.5t-37.5 -165q38 1 143.5 4.5t178.5 7t143 9.5q-6 68 -17.5 150.5t-32.5 193.5t-53.5 199.5t-70.5 119.5z" />
    <glyph glyph-name="Adieresis" unicode="&#xc4;" horiz-adv-x="1120" 
d="M950 1735q-35 -49 -96 -49q-39 0 -67.5 24t-32.5 66q-3 37 18 69.5t57 44.5q15 6 33 6q54 0 82 -36q25 -42 23 -68q-4 -36 -17 -57zM571 1702q-35 -45 -102 -45q-89 0 -109 69q-12 47 11.5 89t68.5 45q53 5 66 2q55 -9 76 -61.5t-11 -98.5zM266 0q-11 -32 -38 -49
t-58 -17q-39 0 -69 24.5t-33 66.5q-4 36 10 168t24 198q-53 25 -60.5 80t36.5 92q18 15 53 23q41 219 97 401t145 326q48 74 121 133t145 59q51 0 95.5 -26t79 -75.5t63 -109t49.5 -140t37.5 -153.5t27.5 -164t18.5 -158.5t12 -149.5t6.5 -123.5t4 -94.5q1 -7 3.5 -90
t4.5 -96q1 -7 3 -24t2 -23t-1 -23q-7 -40 -36 -63t-66 -23q-31 0 -56.5 17.5t-37.5 50.5q-8 23 -19 227q-5 137 -6 164q-76 -6 -159.5 -9.5t-193 -6t-159.5 -4.5q-7 -37 -23.5 -171t-17.5 -167q0 -6 0.5 -17t0.5 -18t-1 -17t-4 -18zM635 1296q-55 -34 -106 -121.5
t-87.5 -198t-60 -199.5t-37.5 -165q38 1 143.5 4.5t178.5 7t143 9.5q-6 68 -17.5 150.5t-32.5 193.5t-53.5 199.5t-70.5 119.5z" />
    <glyph glyph-name="Aring" unicode="&#xc5;" horiz-adv-x="1124" 
d="M266 0q-11 -32 -38 -49t-58 -17q-39 0 -69 24.5t-33 66.5q-4 36 10 168t24 198q-53 25 -60.5 80t36.5 92q18 15 53 23q20 111 45.5 217t68 235.5t104.5 236t136 165.5q-86 119 -86 237q2 51 17 105t42.5 103t73 80.5t101.5 31.5q65 0 94 -39v-2q35 -3 61 -14
q100 -34 158 -138t35 -207q-13 -64 -53 -123t-94 -98q55 -79 95 -219t60.5 -305t29.5 -290t13 -251q1 -7 3.5 -90t4.5 -96q1 -7 3 -24t2 -23t-1 -23q-7 -40 -36 -63t-66 -23q-31 0 -56.5 17.5t-37.5 50.5q-8 23 -19 227q-5 137 -6 164q-76 -6 -159.5 -9.5t-193 -6
t-159.5 -4.5q-7 -37 -23.5 -171t-17.5 -167q0 -6 0.5 -17t0.5 -18t-1 -17t-4 -18zM635 1296q-55 -34 -106 -121.5t-87.5 -198t-60 -199.5t-37.5 -165q38 1 143.5 4.5t178.5 7t143 9.5q-6 68 -17.5 150.5t-32.5 193.5t-53.5 199.5t-70.5 119.5zM649 1561q31 -31 39 -31
q3 0 23 10q27 16 50.5 54.5t20.5 66.5q-2 27 -21.5 55.5t-43.5 34.5q-8 2 -18 2t-22 -1t-18 -1q-21 0 -36 6q-22 -53 -17 -92q3 -49 43 -104z" />
    <glyph glyph-name="AE" unicode="&#xc6;" horiz-adv-x="1744" 
d="M266 10q-11 -32 -38 -49.5t-58 -17.5q-39 0 -69 25t-33 67q-4 34 10 166t24 198q-53 25 -60.5 80t36.5 92q21 18 53 25q88 477 242 725q47 73 118 132.5t142 59.5q48 0 90.5 -21.5t74.5 -59t54.5 -77.5t40.5 -87q31 68 78 104q68 54 178 79.5t217 25.5q157 0 225 -29
q46 -19 61.5 -66.5t-12.5 -87.5q-18 -24 -47.5 -37t-56.5 -6q-79 21 -164 21q-61 0 -149.5 -14.5t-118.5 -40.5q-19 -14 -31 -50q-10 -32 -18 -96q-17 -124 -23 -272q300 37 336 41q32 4 55 -4q25 -9 43.5 -30.5t22.5 -47.5q8 -43 -17.5 -79t-66.5 -40q-24 -3 -189.5 -23.5
t-189.5 -23.5q0 -316 57 -375q25 -29 111 -29q39 0 119 11q9 1 49.5 7t74 10.5t77 8.5t73.5 4q46 0 62 -8q47 -17 62 -61t-7.5 -85t-71.5 -50q-30 -5 -102 -5q-29 -3 -127 -17t-152 -17q-144 -11 -227 28q-4 1 -9.5 -5.5t-6.5 -6.5q-31 -22 -70 -22q-25 0 -43.5 8.5
t-29.5 26t-18 33.5t-9.5 42.5t-3 42t-0.5 41.5q-2 44 -5.5 132t-5.5 132q-77 -6 -154.5 -10t-202.5 -7.5t-155 -4.5q-6 -36 -23 -170t-18 -166q0 -6 0.5 -18t0.5 -19t-1 -16.5t-4 -16.5zM635 1307q-55 -33 -106 -120.5t-87.5 -198t-60 -199.5t-37.5 -166q370 9 465 18
q-6 68 -17.5 151t-32.5 195t-53.5 200.5t-70.5 119.5z" />
    <glyph glyph-name="Ccedilla" unicode="&#xc7;" horiz-adv-x="1007" 
d="M657 -512q-20 -29 -55.5 -46t-71.5 -17h-6q-55 1 -83.5 40t-16 87t62.5 71q11 0 15 4q6 16 9 36.5t-3 35.5q-3 7 -25 14q-10 3 -66.5 16.5t-82.5 28.5q-29 18 -49 51.5t-17 65.5q2 22 6.5 43t15 47t16 39t21.5 46t19 40q-137 81 -207.5 216.5t-79.5 305.5q-6 146 39 314
q19 75 48 148.5t75 150t100 134t127.5 94t153.5 36.5q95 0 174 -47.5t119 -134.5q42 -84 27 -220q-7 -61 -39.5 -108t-87.5 -47q-52 0 -84.5 42.5t-12.5 94.5q2 4 8 13t7 14q5 11 6.5 46t-0.5 46q-6 44 -39 69t-76 25q-56 0 -108 -40.5t-89 -101t-66.5 -134t-46 -137.5
t-22.5 -113q-25 -184 27 -312q80 -189 266 -215q31 -6 117.5 -1.5t116.5 16.5q29 15 41 18q56 9 92.5 -32.5t21.5 -96.5q-8 -29 -35.5 -51t-61.5 -33t-78 -18t-75.5 -9t-62.5 -2q-11 0 -84 5q-8 -22 -29 -43q-1 -1 -4 -3.5t-5.5 -4.5t-2.5 -3q-7 -13 -20 -49q95 -22 145 -65
q49 -41 66.5 -108t3 -136t-53.5 -125z" />
    <glyph glyph-name="Egrave" unicode="&#xc8;" horiz-adv-x="1013" 
d="M762 1706q-35 -35 -76 -35q-27 0 -121.5 37.5t-140.5 60.5q-34 14 -53 35q-37 44 -17.5 98.5t76.5 69.5q47 10 80 -10q2 -1 10 -8t10 -8q31 -12 93.5 -38t93.5 -38q22 -8 39.5 -25.5t23.5 -38.5q16 -66 -18 -100zM479 -4q-72 -5 -144 17t-120 67q-79 79 -104 221
q-19 112 -19 322q4 386 43 565q14 76 43 125q42 68 125 109.5t162 54t170 12.5q156 0 225 -29q47 -19 63 -65.5t-12 -87.5q-18 -24 -47.5 -37t-56.5 -6q-76 20 -166 20q-62 0 -148.5 -14.5t-119.5 -40.5q-22 -16 -29 -47q-10 -33 -18 -99q-16 -124 -23 -270q40 4 336 41
q34 4 53 -6q55 -19 68 -78q6 -42 -19 -78.5t-67 -40.5q-22 -2 -187.5 -22.5t-189.5 -22.5q0 -316 57 -377q28 -28 113 -28q49 0 117 10q6 1 68.5 10t117.5 15t94 6q38 0 56 -6q47 -18 62 -62.5t-7.5 -85.5t-71.5 -49q-8 -2 -53 -3.5t-49 -2.5q-35 -3 -147.5 -19t-174.5 -18z
" />
    <glyph glyph-name="Eacute" unicode="&#xc9;" horiz-adv-x="1013" 
d="M575 1706q-25 -25 -67 -25q-41 0 -66 25q-32 32 -36 72.5t26 70.5q20 21 90.5 88.5t89.5 81.5q65 49 113 49q10 0 16 -2q45 -8 68.5 -44.5t14 -78.5t-49.5 -65q-30 -15 -31 -16q-13 -10 -86.5 -79.5t-81.5 -76.5zM479 -4q-72 -5 -144 17t-120 67q-79 79 -104 221
q-19 112 -19 322q4 386 43 565q14 76 43 125q42 68 125 109.5t162 54t170 12.5q156 0 225 -29q47 -19 63 -65.5t-12 -87.5q-18 -24 -47.5 -37t-56.5 -6q-76 20 -166 20q-62 0 -148.5 -14.5t-119.5 -40.5q-22 -16 -29 -47q-10 -33 -18 -99q-16 -124 -23 -270q40 4 336 41
q34 4 53 -6q55 -19 68 -78q6 -42 -19 -78.5t-67 -40.5q-22 -2 -187.5 -22.5t-189.5 -22.5q0 -316 57 -377q28 -28 113 -28q49 0 117 10q6 1 68.5 10t117.5 15t94 6q38 0 56 -6q47 -18 62 -62.5t-7.5 -85.5t-71.5 -49q-8 -2 -53 -3.5t-49 -2.5q-35 -3 -147.5 -19t-174.5 -18z
" />
    <glyph glyph-name="Ecircumflex" unicode="&#xca;" horiz-adv-x="1013" 
d="M471 1622q-37 -29 -72 -29q-57 0 -89.5 49t-0.5 105q22 36 131.5 124.5t157.5 117.5q39 24 76 24q42 0 76 -31q15 -13 58.5 -73t61.5 -88q30 -43 5.5 -96.5t-76.5 -57.5q-44 -4 -68 12q-16 11 -28 25t-30.5 42t-21.5 32q-22 -16 -47.5 -37.5t-42.5 -37t-47 -42.5t-43 -39
zM479 -4q-72 -5 -144 17t-120 67q-79 79 -104 221q-19 112 -19 322q4 386 43 565q14 76 43 125q42 68 125 109.5t162 54t170 12.5q156 0 225 -29q47 -19 63 -65.5t-12 -87.5q-18 -24 -47.5 -37t-56.5 -6q-76 20 -166 20q-62 0 -148.5 -14.5t-119.5 -40.5q-22 -16 -29 -47
q-10 -33 -18 -99q-16 -124 -23 -270q40 4 336 41q34 4 53 -6q55 -19 68 -78q6 -42 -19 -78.5t-67 -40.5q-22 -2 -187.5 -22.5t-189.5 -22.5q0 -316 57 -377q28 -28 113 -28q49 0 117 10q6 1 68.5 10t117.5 15t94 6q38 0 56 -6q47 -18 62 -62.5t-7.5 -85.5t-71.5 -49
q-8 -2 -53 -3.5t-49 -2.5q-35 -3 -147.5 -19t-174.5 -18z" />
    <glyph glyph-name="Edieresis" unicode="&#xcb;" horiz-adv-x="1013" 
d="M455 1663q-18 -6 -39 -6q-62 0 -93 53.5t5 108.5q29 43 86 43h6q54 -2 82.5 -43.5t16 -89t-63.5 -66.5zM834 1661q-18 -6 -41 -6q-26 0 -45 8q-43 16 -60 56t0 80t60 56q25 7 40 7q40 0 71.5 -25t39 -61t-15.5 -76q-19 -26 -49 -39zM479 -4q-72 -5 -144 17t-120 67
q-79 79 -104 221q-19 112 -19 322q4 386 43 565q14 76 43 125q42 68 125 109.5t162 54t170 12.5q156 0 225 -29q47 -19 63 -65.5t-12 -87.5q-18 -24 -47.5 -37t-56.5 -6q-76 20 -166 20q-62 0 -148.5 -14.5t-119.5 -40.5q-22 -16 -29 -47q-10 -33 -18 -99q-16 -124 -23 -270
q40 4 336 41q34 4 53 -6q55 -19 68 -78q6 -42 -19 -78.5t-67 -40.5q-22 -2 -187.5 -22.5t-189.5 -22.5q0 -316 57 -377q28 -28 113 -28q49 0 117 10q6 1 68.5 10t117.5 15t94 6q38 0 56 -6q47 -18 62 -62.5t-7.5 -85.5t-71.5 -49q-8 -2 -53 -3.5t-49 -2.5q-35 -3 -147.5 -19
t-174.5 -18z" />
    <glyph glyph-name="Igrave" unicode="&#xcc;" horiz-adv-x="448" 
d="M414 1673q-36 -25 -78 -16q-57 11 -283 59q-3 1 -41.5 10t-44.5 13q-32 11 -49 33q-24 37 -22 65q5 43 32.5 72.5t71.5 29.5q20 0 35 -6q20 -7 90.5 -23t154.5 -33.5t91 -18.5q44 -9 68.5 -43.5t18 -75t-43.5 -66.5zM295 -8q-35 -23 -62 -23q-34 0 -62.5 18.5t-37.5 49.5
q-8 33 -12 98q-5 118 -4.5 377t2.5 377q1 72 16 448q2 53 34.5 90t78.5 37q20 0 43 -10q32 -13 47.5 -43.5t9.5 -64.5q0 -11 -10 -31q0 -12 -4 -102.5t-4 -104.5q-11 -277 -11 -760q0 -108 5 -184q10 -93 6 -113q-10 -40 -35 -59z" />
    <glyph glyph-name="Iacute" unicode="&#xcd;" horiz-adv-x="448" 
d="M164 1593q-20 -14 -51 -14q-38 0 -69 24.5t-34 61.5q-4 68 37 94q29 20 125.5 86.5t149.5 104.5q26 16 49 16q47 0 81.5 -38.5t22.5 -86.5q-10 -38 -37 -59q-104 -76 -274 -189zM289 -8q-31 -23 -62 -23q-32 0 -61.5 19t-38.5 49q-5 22 -10 98q-7 65 -7 347t3 407
q2 75 8 224t8 224q3 53 36.5 90t78.5 37q20 0 43 -10q31 -14 47 -44t10 -64q0 -3 -5 -16t-5 -15q0 -12 -4 -102.5t-4 -104.5q-13 -273 -13 -760q0 -92 6 -184q0 -4 4.5 -53t2.5 -60q-10 -38 -37 -59z" />
    <glyph glyph-name="Icircumflex" unicode="&#xce;" horiz-adv-x="450" 
d="M141 1642q-50 -40 -92 -40t-74 29t-38 73q-8 48 22.5 84.5t79.5 36.5q9 8 41 37.5t47.5 43t43 32t52.5 28.5q27 12 60 12q30 0 65 -14q30 -14 64 -36.5t55 -39t59.5 -48.5t53.5 -44q33 -29 36 -72q4 -48 -26.5 -79t-75.5 -31q-38 0 -68 24q-114 97 -161 129
q-25 -21 -72.5 -63t-71.5 -62zM297 -8q-31 -23 -61 -23q-32 0 -62 19t-39 49q-5 22 -10 98q-7 65 -7 347t3 407q2 75 8 224t8 224q3 53 36.5 90t78.5 37q20 0 43 -10q31 -14 47 -44t10 -64q-10 -30 -10 -31q0 -72 -10 -207q-10 -252 -10 -760q0 -92 6 -184q0 -3 4 -52.5
t2 -60.5q-10 -38 -37 -59z" />
    <glyph glyph-name="Idieresis" unicode="&#xcf;" horiz-adv-x="450" 
d="M545 1677q-14 -19 -44.5 -33t-58.5 -14q-32 0 -63 23q-40 35 -35.5 89t51.5 79q46 24 74 24q10 0 16 -2q57 -15 76.5 -68.5t-16.5 -97.5zM113 1798q38 -31 40 -75.5t-26.5 -76.5t-71.5 -32q-38 0 -68.5 23.5t-41.5 60.5q-13 52 18.5 89.5t79.5 37.5q35 0 70 -27zM297 -8
q-35 -23 -61 -23q-35 0 -56 15q-37 22 -45 53q-4 15 -6 31t-3.5 36t-2.5 31q-5 118 -4.5 377t2.5 377q1 72 16 448q3 53 36.5 90t78.5 37q20 0 43 -10q31 -13 46 -43.5t9 -64.5q0 -3 -4 -16t-4 -15q-1 -13 -5 -103.5t-5 -103.5q-10 -252 -10 -760q0 -123 4 -184
q11 -98 6 -113q-10 -40 -35 -59z" />
    <glyph glyph-name="Eth" unicode="&#xd0;" horiz-adv-x="1224" 
d="M414 45q-2 0 -6.5 -1t-6.5 -1q-43 -3 -69 12q-36 28 -43 56q-23 79 -34.5 174t-13 158t-1.5 178q-100 -25 -119 -25q-42 0 -70 27t-33 61.5t14 68t60 44.5q34 8 150 32q2 156 2 467q-17 24 -17 50q-4 46 26 80.5t77 39.5q66 4 98 4q116 0 224.5 -27t202.5 -81.5
t165 -131.5t112.5 -182.5t43.5 -228.5q3 -92 -29 -186q-32 -92 -99 -180.5t-151.5 -160t-175.5 -128t-184 -96.5q-78 -32 -123 -23zM444 659q0 -18 -0.5 -77t0 -86.5t2 -74.5t6 -86t11.5 -77q69 28 145.5 75.5t150 108.5t129.5 135.5t73 145.5q17 76 3.5 154.5t-51.5 148.5
q-63 118 -189.5 177.5t-274.5 62.5q0 -202 -3 -398q31 5 96 16.5t97 16.5q44 7 78.5 -18.5t40.5 -63.5t-17 -78q-22 -37 -65 -43q-103 -16 -232 -39z" />
    <glyph glyph-name="Ntilde" unicode="&#xd1;" horiz-adv-x="1243" 
d="M862 1649q-39 -58 -102 -102t-125 -44q-91 0 -172 88q-33 -39 -78 -39t-78.5 34.5t-32.5 86.5q5 61 55.5 121.5t110.5 60.5q56 0 95 -36q17 -15 48 -54t52 -55q23 11 43 35q2 1 2.5 3t0.5 5.5t1 5.5q12 32 38.5 50t57.5 18q32 0 58 -17.5t38 -50.5q20 -60 -12 -110z
M262 -27q-33 -8 -53 -4q-55 16 -70 51q-6 14 -10.5 34t-5.5 31t-3.5 39.5t-2.5 33.5q-14 163 -21 265t-8 246.5t12 266.5q28 265 138 324q34 18 69 18q43 0 87 -25t79.5 -67t61.5 -81t47 -81q53 -100 100 -211.5t106 -270t84 -220.5q10 43 17.5 86.5t13.5 95t10 85t7.5 95.5
t5 86t4.5 96t4 88q22 368 10 432q-7 46 23.5 82.5t74.5 36.5q35 0 64.5 -20t38.5 -51q7 -28 7 -118.5t-3 -160t-6 -119.5q0 -9 -2.5 -70.5t-3.5 -75t-3.5 -69.5t-4 -75.5t-4.5 -69.5t-6 -75t-7.5 -69t-9 -75t-10.5 -69t-13 -73q-24 -131 -69 -223q-17 -37 -50 -58.5
t-71 -21.5q-98 0 -168 144q-32 67 -123 311q-116 314 -192 455q-42 75 -78 118q-18 -50 -25 -125q-10 -90 -10 -274q3 -154 16 -342q1 -15 9.5 -103.5t9.5 -99.5q8 -51 -11 -78q-26 -38 -55 -45z" />
    <glyph glyph-name="Ograve" unicode="&#xd2;" 
d="M778 1675q-44 -31 -84 -20q-24 6 -107 31t-130 34q-9 0 -25 -8q-59 -5 -96 38.5t-17 98.5q16 43 68 62.5t105 9.5q39 -7 77.5 -17.5t101 -29.5t77.5 -23q37 -10 55.5 -43.5t12 -72t-37.5 -60.5zM999 285q-144 -254 -378 -254q-104 0 -200 45.5t-166.5 120t-118.5 170
t-64 196.5q-23 157 3 319.5t99 299.5q6 12 6 28q36 139 139 221t248 82q88 0 157.5 -27t121 -80t88 -114t72.5 -147q107 -266 79 -557q-17 -179 -86 -303zM397 956q109 -329 475 -417q44 237 -36 475q-13 38 -29.5 76.5t-40.5 82.5t-55.5 77.5t-63.5 45.5q-31 -39 -78 -39
q-16 0 -51 13q-83 -52 -145 -154q-3 -75 24 -160zM295 514q35 -109 125 -193.5t196 -84.5q108 0 183 110q-178 46 -309.5 145t-223.5 259q-3 -140 29 -236z" />
    <glyph glyph-name="Oacute" unicode="&#xd3;" 
d="M502 1667q-22 -14 -53 -14q-43 0 -74 32t-27 78q4 37 25 58q22 24 104.5 62.5t126.5 51.5q25 7 82.5 3t79.5 -17q32 -19 45.5 -55.5t-0.5 -69.5q-16 -32 -31 -43q-35 -25 -67 -22q-3 0 -27 2t-33 2q-20 0 -151 -68zM999 285q-144 -254 -378 -254q-104 0 -200 45.5
t-166.5 120t-118.5 170t-64 196.5q-23 157 3 319.5t99 299.5q6 12 6 28q36 139 139 221t248 82q88 0 157.5 -27t121 -80t88 -114t72.5 -147q107 -266 79 -557q-17 -179 -86 -303zM397 956q109 -329 475 -417q44 237 -36 475q-13 38 -29.5 76.5t-40.5 82.5t-55.5 77.5
t-63.5 45.5q-31 -39 -78 -39q-16 0 -51 13q-83 -52 -145 -154q-3 -75 24 -160zM295 514q35 -109 125 -193.5t196 -84.5q108 0 183 110q-178 46 -309.5 145t-223.5 259q-3 -140 29 -236z" />
    <glyph glyph-name="Ocircumflex" unicode="&#xd4;" 
d="M449 1618q-30 -21 -74 -21q-43 0 -66 23q-35 35 -36 82t38 76q30 15 33 18q15 14 50 49.5t62.5 59.5t55.5 41q39 22 78 22q30 0 57 -12q15 -5 28.5 -13t33 -21t26.5 -17q71 -53 113 -88q35 -28 38.5 -69.5t-23 -74.5t-70.5 -37q-34 -3 -60 13q-11 7 -71.5 53t-67.5 51
q-6 -5 -39.5 -38t-64.5 -62t-41 -35zM999 285q-144 -254 -378 -254q-104 0 -200 45.5t-166.5 120t-118.5 170t-64 196.5q-23 157 3 319.5t99 299.5q6 12 6 28q36 139 139 221t248 82q88 0 157.5 -27t121 -80t88 -114t72.5 -147q107 -266 79 -557q-17 -179 -86 -303zM397 956
q109 -329 475 -417q44 237 -36 475q-13 38 -29.5 76.5t-40.5 82.5t-55.5 77.5t-63.5 45.5q-31 -39 -78 -39q-16 0 -51 13q-83 -52 -145 -154q-3 -75 24 -160zM295 514q35 -109 125 -193.5t196 -84.5q108 0 183 110q-178 46 -309.5 145t-223.5 259q-3 -140 29 -236z" />
    <glyph glyph-name="Otilde" unicode="&#xd5;" 
d="M948 1794q-17 -63 -83 -107.5t-132 -39.5q-56 8 -80 18q-35 15 -93.5 53t-78.5 49q-5 -37 -35.5 -63.5t-68.5 -26.5q-31 0 -57.5 17.5t-36.5 48.5q-13 38 2 88q17 59 72.5 102t115.5 43q27 0 39 -4q31 -7 59 -21t68 -40.5t53 -34.5q32 -23 45 -23q11 0 17 11q20 41 45 53
q32 12 53 12q2 0 7 -1t7 -1q46 -7 70 -47t12 -86zM999 285q-144 -254 -378 -254q-104 0 -200 45.5t-166.5 120t-118.5 170t-64 196.5q-23 157 3 319.5t99 299.5q6 12 6 28q36 139 139 221t248 82q88 0 157.5 -27t121 -80t88 -114t72.5 -147q107 -266 79 -557
q-17 -179 -86 -303zM397 956q109 -329 475 -417q44 237 -36 475q-13 38 -29.5 76.5t-40.5 82.5t-55.5 77.5t-63.5 45.5q-31 -39 -78 -39q-16 0 -51 13q-83 -52 -145 -154q-3 -75 24 -160zM295 514q35 -109 125 -193.5t196 -84.5q108 0 183 110q-178 46 -309.5 145
t-223.5 259q-3 -140 29 -236z" />
    <glyph glyph-name="Odieresis" unicode="&#xd6;" 
d="M487 1858q38 -56 9 -111t-95 -55q-45 0 -78 29.5t-36 74.5q-4 48 27.5 81.5t74.5 33.5q38 0 66 -25q1 -1 15.5 -12.5t16.5 -15.5zM840 1749q-14 -26 -46.5 -48t-60.5 -22q-33 0 -64 19.5t-38 48.5q-15 61 18 100q39 45 94 45q35 0 63.5 -20t37.5 -55t-4 -68zM999 285
q-144 -254 -378 -254q-104 0 -200 45.5t-166.5 120t-118.5 170t-64 196.5q-23 157 3 319.5t99 299.5q6 12 6 28q36 139 139 221t248 82q88 0 157.5 -27t121 -80t88 -114t72.5 -147q107 -266 79 -557q-17 -179 -86 -303zM397 956q109 -329 475 -417q44 237 -36 475
q-13 38 -29.5 76.5t-40.5 82.5t-55.5 77.5t-63.5 45.5q-31 -39 -78 -39q-16 0 -51 13q-83 -52 -145 -154q-3 -75 24 -160zM295 514q35 -109 125 -193.5t196 -84.5q108 0 183 110q-178 46 -309.5 145t-223.5 259q-3 -140 29 -236z" />
    <glyph glyph-name="multiply" unicode="&#xd7;" horiz-adv-x="964" 
d="M258 156q-20 -24 -27.5 -32t-25 -17t-39.5 -9q-40 0 -70.5 23.5t-34.5 62.5q-4 44 15 68q22 31 128.5 160t147.5 176q-22 24 -64 72t-63 71q-8 8 -16 8q-22 10 -45.5 44.5t-26.5 58.5q-7 51 25 86t78 35q26 0 57 -17q13 -8 43 -38.5t54 -57.5t58 -66.5t35 -40.5
q120 133 224 222q3 4 19 16.5t22 15.5q35 13 51 13q15 0 35 -7.5t30 -17.5q30 -32 34.5 -72.5t-23.5 -72.5q-24 -20 -37 -33q-102 -86 -219 -221q94 -109 168 -203q26 -37 24.5 -74.5t-30 -65.5t-70.5 -28q-55 0 -80 37q-95 114 -150 178q-38 -46 -113.5 -137t-113.5 -137z
" />
    <glyph glyph-name="Oslash" unicode="&#xd8;" horiz-adv-x="1212" 
d="M242 -92q-35 -53 -90 -53q-34 0 -62 20t-37 57q-12 41 10 78q79 129 156 258q-98 146 -121 295q-23 156 3.5 319t99.5 300q1 2 3 14t3 14q37 142 140 222.5t251 80.5q176 0 285 -120q16 18 53 55t49 45q22 14 51 14q44 0 75.5 -33t27.5 -79q-4 -37 -25 -58
q-85 -85 -113 -125q66 -141 96 -297t17 -305q-17 -194 -88 -325q-142 -254 -387 -254q-138 0 -270 90q-4 -7 -127 -213zM293 750q-4 -166 45 -279q26 41 70 119q-57 59 -115 160zM475 297q77 -59 172 -59q103 0 176 108q-155 43 -256 109q-15 -27 -46 -79t-46 -79zM399 1116
q-1 -87 30.5 -175.5t86.5 -160.5q212 374 248 437q-50 66 -92 79q-31 -39 -76 -39q-16 0 -51 13q-85 -53 -146 -154zM668 633q102 -66 231 -94q40 219 -29 450z" />
    <glyph glyph-name="Ugrave" unicode="&#xd9;" horiz-adv-x="1146" 
d="M717 1706q-18 -20 -45 -30t-51 -3q-5 1 -63 16.5t-106.5 27t-64.5 12.5q-45 4 -68 24q-29 29 -32 62q-5 43 19.5 78t64.5 38q40 2 94 -8q17 -2 110 -27t99 -26q50 -14 65 -70.5t-22 -93.5zM942 193q-62 -104 -165 -168t-220 -64q-72 0 -133 23.5t-105 61.5t-79 93.5
t-57.5 113.5t-39.5 127.5t-25.5 128.5t-13.5 124q-21 241 -4 553q10 162 27 200q15 30 41 47t55 17q52 0 82 -43q27 -34 17 -78q-19 -108 -23 -311q-7 -358 41 -582q55 -270 217 -270q52 0 88 20q61 31 102.5 82.5t62 118t29 126t11.5 134.5q10 183 -14 430q-14 174 -39 297
q-9 49 22.5 85t77.5 36q43 0 69.5 -28t34.5 -72q23 -117 43 -346q26 -338 -4 -557q-20 -174 -98 -299z" />
    <glyph glyph-name="Uacute" unicode="&#xda;" horiz-adv-x="1146" 
d="M780 1780q-4 -3 -89 -61t-150.5 -95.5t-96.5 -40.5q-68 -4 -96 37q-29 38 -21 86t50 68q48 19 69 32q49 27 134.5 86t119.5 80q31 17 54 17q38 0 67.5 -28t33 -66t-23.5 -76q-11 -12 -51 -39zM942 193q-62 -104 -165 -168t-220 -64q-72 0 -133 23.5t-105 61.5t-79 93.5
t-57.5 113.5t-39.5 127.5t-25.5 128.5t-13.5 124q-21 241 -4 553q10 162 27 200q15 30 41 47t55 17q52 0 82 -43q27 -34 17 -78q-19 -108 -23 -311q-7 -358 41 -582q55 -270 217 -270q52 0 88 20q61 31 102.5 82.5t62 118t29 126t11.5 134.5q10 183 -14 430q-14 174 -39 297
q-9 49 22.5 85t77.5 36q43 0 69.5 -28t34.5 -72q23 -117 43 -346q26 -338 -4 -557q-20 -174 -98 -299z" />
    <glyph glyph-name="Ucircumflex" unicode="&#xdb;" horiz-adv-x="1146" 
d="M367 1571q-33 -23 -66 -23q-40 0 -69 27t-31.5 65t26.5 80q14 17 79.5 83t88.5 87q82 82 154 82q32 0 53 -8q14 -4 49.5 -25.5t67 -43t70.5 -49t45 -31.5q33 -25 37 -71.5t-25 -76.5q-35 -35 -74 -35q-34 0 -55 15q-119 83 -162 112q-48 -41 -166 -164q-15 -20 -22 -24z
M942 193q-62 -104 -165 -168t-220 -64q-72 0 -133 23.5t-105 61.5t-79 93.5t-57.5 113.5t-39.5 127.5t-25.5 128.5t-13.5 124q-21 241 -4 553q10 162 27 200q15 30 41 47t55 17q52 0 82 -43q27 -34 17 -78q-19 -108 -23 -311q-7 -358 41 -582q55 -270 217 -270q52 0 88 20
q61 31 102.5 82.5t62 118t29 126t11.5 134.5q10 183 -14 430q-14 174 -39 297q-9 49 22.5 85t77.5 36q43 0 69.5 -28t34.5 -72q23 -117 43 -346q26 -338 -4 -557q-20 -174 -98 -299z" />
    <glyph glyph-name="Udieresis" unicode="&#xdc;" horiz-adv-x="1146" 
d="M416 1673q-28 -51 -88 -51q-50 0 -80 37q-36 44 -20.5 99.5t69.5 80.5q24 12 49 12q62 0 91.5 -56.5t-13.5 -111.5q-6 -6 -8 -10zM807 1655q-29 -33 -72 -33q-24 0 -43 8q-52 19 -65 67.5t16 90t84 41.5q34 0 61.5 -18t40 -44t8 -57t-29.5 -55zM942 193
q-62 -104 -165 -168t-220 -64q-72 0 -133 23.5t-105 61.5t-79 93.5t-57.5 113.5t-39.5 127.5t-25.5 128.5t-13.5 124q-21 241 -4 553q10 162 27 200q15 30 41 47t55 17q52 0 82 -43q27 -34 17 -78q-19 -108 -23 -311q-7 -358 41 -582q55 -270 217 -270q52 0 88 20
q61 31 102.5 82.5t62 118t29 126t11.5 134.5q10 183 -14 430q-14 174 -39 297q-9 49 22.5 85t77.5 36q43 0 69.5 -28t34.5 -72q23 -117 43 -346q26 -338 -4 -557q-20 -174 -98 -299z" />
    <glyph glyph-name="Yacute" unicode="&#xdd;" horiz-adv-x="1171" 
d="M594 1563q-34 -23 -62 -23q-35 0 -55 14q-41 23 -49 71t23 83q180 213 323 213q35 0 57 -16q50 -34 50.5 -90.5t-50.5 -85.5q-14 -8 -46 -14t-46 -15q-9 -5 -42 -33t-42 -37q-3 -3 -29 -32.5t-32 -34.5zM1106 106q-5 -42 -32.5 -72t-65.5 -30q-26 0 -55.5 16.5
t-39.5 38.5q-58 122 -82.5 268t-35.5 335q-114 -156 -269 -156q-80 0 -148 34.5t-115 88.5t-85.5 133t-62 154.5t-41.5 168t-26.5 158t-14.5 139.5q-3 34 18 62q30 43 84 43q32 0 58 -17.5t38 -50.5q4 -11 9 -55q4 -39 8.5 -71t13.5 -92t20.5 -108.5t27.5 -108.5t37.5 -105
t47 -84.5t59.5 -60.5t72 -21q37 0 58 18q25 20 47 52.5t33.5 55t29.5 64.5q21 50 42.5 114.5t32 100t34 124t28.5 106.5q11 41 40.5 62.5t64.5 21.5q44 0 75 -31t27 -84q-4 -47 -14.5 -154.5t-16.5 -187.5t-8 -154q-9 -260 43 -508q6 -24 23 -79t25 -70q18 -36 16 -58z" />
    <glyph glyph-name="Thorn" unicode="&#xde;" horiz-adv-x="1044" 
d="M332 51q-10 -34 -37 -58t-62 -24q-34 0 -60 18t-38 50q-18 46 -18 266q0 8 -11 19q-6 15 -6 37.5t6 35.5q1 1 4 6t5 9t2 6q0 537 20 921q2 53 34.5 90t78.5 37q20 0 43 -10q31 -14 47 -44t10 -64q0 -3 -5 -16t-5 -15q-3 -79 -6 -156q163 55 268 55q88 0 176 -40t152 -113
t78 -160q16 -85 -19 -192q-39 -118 -154.5 -220.5t-252.5 -161t-260 -67.5q0 -30 4 -96q0 -3 4 -52.5t2 -60.5zM326 940q-4 -158 -4 -475q92 15 192.5 58.5t187 120.5t103.5 163q10 40 -2 74q-21 57 -82 93t-125 36q-36 0 -74 -9q-81 -19 -196 -61z" />
    <glyph glyph-name="germandbls" unicode="&#xdf;" horiz-adv-x="1062" 
d="M283 -285q-6 -42 -36.5 -67t-70.5 -25q-59 0 -88 51q-22 42 -12 90q7 33 -4 234q-7 333 14 584q6 67 15 130t26.5 149.5t40.5 158.5t60 147t81 126.5t107.5 84.5t136.5 33q76 0 143 -37t107 -106q59 -104 53 -230q-2 -25 -6 -50.5t-11.5 -55t-12.5 -47.5t-16 -54.5
t-15 -48.5q-21 -63 -13 -84q4 -9 21.5 -25.5t35 -29.5t40 -29t26.5 -20q34 -24 64 -57q68 -72 61 -168.5t-80 -165.5q-58 -54 -154 -79.5t-194 -25.5q-129 0 -162 88q-18 52 13.5 95t83.5 43q15 0 36 -7q28 -14 29 -14q46 0 117.5 15.5t95.5 39.5q17 13 10 31
q-5 11 -26.5 29.5t-51 39.5t-32.5 23q-75 57 -109 113q-34 55 -31 125q2 63 43 188q33 101 33 152q0 54 -23 99t-67 48q-43 6 -86 -37q-148 -148 -186 -624q-22 -247 -6 -695q4 -90 0 -135z" />
    <glyph glyph-name="agrave" unicode="&#xe0;" horiz-adv-x="1054" 
d="M758 1335q-12 -19 -35.5 -31t-46.5 -12q-22 0 -102 31.5t-105 46.5q-56 29 -80 68q-22 40 -16 82q9 44 40.5 73t71.5 29q20 0 43 -10q36 -19 52 -56q1 -2 2 -6t2 -7t2 -3q10 -5 123 -49q47 -17 62.5 -65t-13.5 -91zM1028 94q-8 -102 -117 -102q-221 0 -256 274
q-152 -266 -327 -266q-105 0 -182 72.5t-95 177.5q-14 71 -4 158q18 202 143 380q76 108 185.5 189.5t220.5 81.5q108 0 168 -43q3 -2 16 -10.5t18 -12t14 -10.5t15 -14t11 -15q25 -14 40.5 -41t14.5 -55q-3 -41 -14.5 -114.5t-14.5 -102.5q-24 -185 -8 -328q4 -55 18 -90
q0 -1 2.5 -7t5 -10.5t5.5 -6.5q5 -2 30.5 -2.5t28.5 -1.5q44 -12 60 -35q25 -32 22 -66zM254 276q6 -28 27.5 -49.5t46.5 -21.5q27 3 62 39t65.5 88t52.5 93.5t35 72.5q20 50 40 104.5t45.5 126t37.5 105.5q-27 20 -60 20q-61 0 -157 -82q-76 -64 -127 -160.5t-70 -201.5
q-11 -78 2 -134z" />
    <glyph glyph-name="aacute" unicode="&#xe1;" horiz-adv-x="1056" 
d="M621 1245q-29 -26 -66 -26q-43 0 -75 32t-29 80q4 38 24 58q59 59 137 116.5t127 57.5q41 0 72 -23.5t35 -60.5q4 -43 -15 -70q-20 -28 -36 -37q-70 -31 -174 -127zM1028 94q-8 -102 -117 -102q-221 0 -256 274q-152 -266 -327 -266q-105 0 -182 72.5t-95 177.5
q-14 71 -4 158q18 202 143 380q76 108 185.5 189.5t220.5 81.5q108 0 168 -43q3 -2 16 -10.5t18 -12t14 -10.5t15 -14t11 -15q25 -14 40.5 -41t14.5 -55q-3 -41 -14.5 -114.5t-14.5 -102.5q-24 -185 -8 -328q4 -55 18 -90q0 -1 2.5 -7t5 -10.5t5.5 -6.5q5 -2 30.5 -2.5
t28.5 -1.5q44 -12 60 -35q25 -32 22 -66zM254 276q6 -28 27.5 -49.5t46.5 -21.5q27 3 62 39t65.5 88t52.5 93.5t35 72.5q20 50 40 104.5t45.5 126t37.5 105.5q-27 20 -60 20q-61 0 -157 -82q-76 -64 -127 -160.5t-70 -201.5q-11 -78 2 -134z" />
    <glyph glyph-name="acircumflex" unicode="&#xe2;" horiz-adv-x="1056" 
d="M846 1290q29 -54 0 -105.5t-86 -51.5q-27 0 -52.5 15.5t-37.5 39.5q-7 13 -21 39.5t-22.5 43t-22 38t-26.5 37.5q-44 -31 -95 -86q-2 -2 -2.5 -8t-1.5 -7q-12 -31 -45.5 -52.5t-68.5 -21.5q-61 0 -89 52q-14 24 -14.5 54t14.5 54q54 76 145 150.5t159 74.5
q59 0 98.5 -28.5t83.5 -85.5q15 -22 28 -45t32 -60.5t24 -46.5zM1028 94q-8 -102 -117 -102q-221 0 -256 274q-152 -266 -327 -266q-105 0 -182 72.5t-95 177.5q-14 71 -4 158q18 202 143 380q76 108 185.5 189.5t220.5 81.5q108 0 168 -43q3 -2 16 -10.5t18 -12t14 -10.5
t15 -14t11 -15q25 -14 40.5 -41t14.5 -55q-3 -41 -14.5 -114.5t-14.5 -102.5q-24 -185 -8 -328q4 -55 18 -90q0 -1 2.5 -7t5 -10.5t5.5 -6.5q5 -2 30.5 -2.5t28.5 -1.5q44 -12 60 -35q25 -32 22 -66zM254 276q6 -28 27.5 -49.5t46.5 -21.5q27 3 62 39t65.5 88t52.5 93.5
t35 72.5q20 50 40 104.5t45.5 126t37.5 105.5q-27 20 -60 20q-61 0 -157 -82q-76 -64 -127 -160.5t-70 -201.5q-11 -78 2 -134z" />
    <glyph glyph-name="atilde" unicode="&#xe3;" horiz-adv-x="1060" 
d="M383 1280q-10 -36 -35.5 -60t-60.5 -24t-63.5 19t-37.5 51q-19 68 23 157q24 52 71.5 86.5t102.5 34.5q36 0 66 -12q27 -9 56 -23.5t64 -35t54 -29.5q10 35 38 56.5t62 21.5q23 0 41 -9q42 -19 54 -60.5t-1 -86.5t-43 -86q-20 -26 -53.5 -41.5t-67.5 -15.5q-32 0 -67 14
q-36 13 -99.5 48.5t-93.5 47.5q-5 -8 -7 -28.5t-3 -24.5zM1032 94q-8 -102 -117 -102q-221 0 -256 274q-152 -266 -327 -266q-105 0 -182 72.5t-95 177.5q-14 71 -4 158q18 200 144 380q76 108 185 189.5t220 81.5q108 0 168 -43q3 -2 16 -10.5t18 -12t14 -10.5t15 -14
t11 -15q25 -14 40.5 -41t14.5 -55q-3 -41 -14.5 -114.5t-14.5 -102.5q-24 -185 -8 -328q3 -52 19 -90q0 -1 2 -6.5t4.5 -10.5t5.5 -7q5 -2 30.5 -2.5t28.5 -1.5q44 -12 60 -35q25 -32 22 -66zM258 276q6 -28 27.5 -49.5t46.5 -21.5q27 3 62 39t65.5 88t52.5 93.5t35 72.5
q20 50 40 104.5t45.5 126t37.5 105.5q-27 20 -60 20q-61 0 -157 -82q-76 -64 -127 -160.5t-70 -201.5q-11 -78 2 -134z" />
    <glyph glyph-name="adieresis" unicode="&#xe4;" horiz-adv-x="1056" 
d="M791 1253q-18 -6 -35 -6q-59 0 -89 53.5t1 110.5q29 51 88 51q43 0 71 -28q27 -26 31 -64t-14.5 -71t-52.5 -46zM498 1343q-7 -110 -109 -110q-16 0 -31 6q-32 16 -43 31q-25 35 -22 67q4 54 24 76q38 33 74 33q46 0 78.5 -30t28.5 -73zM1028 94q-8 -102 -117 -102
q-221 0 -256 274q-152 -266 -327 -266q-105 0 -182 72.5t-95 177.5q-14 71 -4 158q18 202 143 380q76 108 185.5 189.5t220.5 81.5q108 0 168 -43q3 -2 16 -10.5t18 -12t14 -10.5t15 -14t11 -15q25 -14 40.5 -41t14.5 -55q-3 -41 -14.5 -114.5t-14.5 -102.5
q-24 -185 -8 -328q4 -55 18 -90q0 -1 2.5 -7t5 -10.5t5.5 -6.5q5 -2 30.5 -2.5t28.5 -1.5q44 -12 60 -35q25 -32 22 -66zM254 276q6 -28 27.5 -49.5t46.5 -21.5q27 3 62 39t65.5 88t52.5 93.5t35 72.5q20 50 40 104.5t45.5 126t37.5 105.5q-27 20 -60 20q-61 0 -157 -82
q-76 -64 -127 -160.5t-70 -201.5q-11 -78 2 -134z" />
    <glyph glyph-name="aring" unicode="&#xe5;" horiz-adv-x="1062" 
d="M1030 94q-8 -102 -117 -102q-224 0 -256 274q-31 -53 -60.5 -93.5t-71 -83t-91.5 -66t-104 -23.5q-106 0 -181 72t-98 178q-35 184 62 397q49 109 126.5 201.5t174.5 150.5q-58 51 -78 113q-24 68 -19.5 144t35.5 141q20 41 56 67.5t81 34.5q52 0 64 6l12 11q12 10 19 14
q21 12 49 12q42 0 67 -22q64 -59 106.5 -108.5t67.5 -106.5q30 -72 15 -140q-21 -96 -98 -166q30 -17 49 -45q24 -14 40 -41.5t13 -54.5q-2 -20 -29 -217q-21 -189 -8 -328q8 -60 18 -90q11 -22 13 -24q5 -2 30.5 -2.5t28.5 -1.5q44 -11 62 -35q25 -37 22 -66zM532 1171
q21 -38 74 -38q11 0 17 2q26 6 46 30t19 49q-2 25 -76 107q-17 -14 -45 -21q-2 0 -17.5 -1t-17.5 -1q-8 -24 -9 -65t9 -62zM256 276q6 -28 27.5 -49.5t46.5 -21.5q27 3 61.5 39t65 88t52 93.5t34.5 72.5q47 117 123 336q-27 20 -60 20q-61 0 -157 -82q-76 -64 -126.5 -160.5
t-68.5 -201.5q-14 -76 2 -134z" />
    <glyph glyph-name="ae" unicode="&#xe6;" horiz-adv-x="1511" 
d="M1411 115q-43 -57 -118 -91t-150 -34q-88 0 -162.5 40t-123.5 106t-79.5 144.5t-40.5 161.5q-26 -62 -49.5 -111t-64.5 -114.5t-82 -109t-98 -74.5t-117 -31q-111 0 -192.5 82t-90.5 199q-12 147 42 298.5t153 270.5q73 87 171 146t199 59q43 0 76 -8q42 -14 88.5 -40
t61.5 -53q2 -3 7.5 -7t6.5 -5q17 -10 33 -43q65 65 149 101t174 36q91 0 146 -32q46 -26 71.5 -73t22.5 -99q-8 -107 -86 -216q-54 -79 -116 -124t-146 -45q-56 0 -158 28q9 -79 39 -149q67 -133 162 -133q53 0 92 28q14 9 32 38t31 40q31 25 68 25q27 0 51.5 -14.5
t36.5 -39.5q16 -46 10 -69q-8 -32 -49 -88zM246 334q-2 -46 19 -85.5t59 -43.5q14 0 38 16q44 36 77.5 86.5t70.5 124.5q28 58 52 120.5t56.5 157t43.5 124.5q2 3 -7 7q-1 1 -2 1q-11 9 -41.5 9.5t-44.5 -3.5q-46 -14 -108 -64q-95 -76 -154 -202t-59 -248zM971 682
q105 -29 123 -29q48 0 112 109q22 31 31 69q-63 11 -137 -20q-80 -39 -129 -129z" />
    <glyph glyph-name="ccedilla" unicode="&#xe7;" horiz-adv-x="776" 
d="M494 -625q-21 -17 -65 -36t-69 -19q-33 0 -59 16t-37 40.5t-11 51.5t18.5 51.5t50.5 37.5q1 1 14.5 5t22.5 8.5t12 8.5q7 18 0 53q-9 41 -27 50q-16 9 -35.5 15t-44 11.5t-37.5 9.5q-47 12 -84 52q-41 44 -30 116q4 33 37 97q9 18 27.5 51.5t27.5 50.5q-82 82 -125 199
q-43 121 -29 280q4 60 27 129t63 134.5t90 119.5t113.5 86.5t128.5 32.5q63 0 111.5 -28.5t72.5 -84.5q16 -55 2 -127v-14q0 -47 -30.5 -73.5t-71.5 -26.5q-33 0 -60 18t-38 53q-9 29 -2 76q-54 -20 -101.5 -79.5t-74 -128t-29.5 -126.5q-7 -120 37 -213q25 -55 71 -92
q35 -28 78 -22q33 2 74 35q18 9 45 36q26 30 49 35q18 6 39 6q19 0 41.5 -11t32.5 -26q24 -40 22 -67q-4 -32 -26 -63t-41.5 -46.5t-57.5 -42.5q-104 -70 -215 -61q-3 0 -10.5 -4t-7.5 -6q-21 -39 -47 -82q117 -30 172 -92q73 -82 70 -211q0 -53 -22.5 -104t-61.5 -79z" />
    <glyph glyph-name="egrave" unicode="&#xe8;" horiz-adv-x="829" 
d="M623 1237q-28 -14 -54 -14q-14 0 -34 8q-279 124 -306 237q-14 51 2.5 98t61.5 58q20 4 31 4q38 0 67 -22.5t35 -61.5q1 -1 1 -7t1 -7q43 -43 127 -86q57 -23 68 -31q50 -34 50.5 -90.5t-50.5 -85.5zM776 209q-30 -95 -123 -154t-196 -59q-106 0 -193.5 59.5
t-138.5 157.5q-53 98 -70.5 213.5t4.5 222.5q33 167 162.5 281t298.5 114q79 0 139 -28q48 -25 75.5 -73t23.5 -103q-8 -104 -84 -215q-59 -81 -118 -124.5t-142 -43.5q-45 0 -160 26q5 -44 18.5 -89.5t36.5 -90.5t61 -73.5t85 -28.5q51 0 90 28q16 10 34.5 39t28.5 39
q31 25 68 25q64 0 88 -53q17 -40 12 -70zM403 659q49 -6 119 109q26 50 31 70q-64 11 -137 -21q-80 -39 -129 -129q75 -23 116 -29z" />
    <glyph glyph-name="eacute" unicode="&#xe9;" horiz-adv-x="827" 
d="M414 1309q-21 -15 -54 -15q-55 0 -79 37q-26 35 -22.5 78.5t36.5 67.5q198 138 231 153q24 12 52 12q62 0 91 -55.5t-14 -109.5q-6 -8 -14.5 -14.5t-23 -15.5t-17.5 -11q-48 -30 -186 -127zM776 209q-30 -95 -123 -154t-196 -59q-106 0 -193.5 59.5t-138.5 157.5
q-53 98 -70.5 213.5t4.5 222.5q33 167 162.5 281t298.5 114q79 0 139 -28q48 -25 75.5 -73t23.5 -103q-8 -104 -84 -215q-59 -81 -118 -124.5t-142 -43.5q-45 0 -160 26q5 -44 18.5 -89.5t36.5 -90.5t61 -73.5t85 -28.5q51 0 90 28q16 10 34.5 39t28.5 39q31 25 68 25
q64 0 88 -53q17 -40 12 -70zM403 659q49 -6 119 109q26 50 31 70q-64 11 -137 -21q-80 -39 -129 -129q75 -23 116 -29z" />
    <glyph glyph-name="ecircumflex" unicode="&#xea;" horiz-adv-x="888" 
d="M809 1163q-33 -22 -61 -22q-27 0 -52.5 13t-40.5 34q-11 15 -73 116.5t-68 110.5q-23 -25 -70.5 -85t-56.5 -81l-3.5 -10.5t-4.5 -12.5t-6 -9q-28 -52 -86 -52q-38 0 -67.5 23.5t-35.5 60.5q-7 41 25 99q58 109 186 237q62 66 125 66q29 0 52.5 -9t44 -28.5t33 -35
t32.5 -44.5q22 -33 68 -110t73 -117q26 -33 22.5 -76.5t-36.5 -67.5zM780 209q-30 -95 -123 -154t-196 -59q-106 0 -193.5 59.5t-138.5 157.5q-53 98 -70.5 213.5t4.5 222.5q33 167 162.5 281t298.5 114q80 0 140 -28q48 -25 75 -73t23 -103q-8 -104 -84 -215
q-59 -81 -118 -124.5t-142 -43.5q-45 0 -160 26q5 -44 18.5 -89.5t36.5 -90.5t61 -73.5t85 -28.5q51 0 90 28q16 10 34.5 39t28.5 39q31 25 68 25q64 0 88 -53q17 -40 12 -70zM408 659q48 -6 118 109q26 50 31 70q-64 11 -137 -21q-80 -39 -129 -129q74 -23 117 -29z" />
    <glyph glyph-name="edieresis" unicode="&#xeb;" horiz-adv-x="835" 
d="M743 1378q-20 -35 -41.5 -50t-60.5 -15q-28 0 -57 16q-48 28 -51 83.5t42 86.5q27 21 66 21q34 0 64.5 -19.5t37.5 -50.5q12 -45 0 -72zM444 1374q-15 -33 -48 -53.5t-70 -20.5q-22 0 -43 9q-47 17 -63 65.5t13 89.5q20 27 50 37q50 10 63 10q78 -7 100 -67
q11 -43 -2 -70zM778 209q-30 -95 -123 -154t-196 -59q-106 0 -193.5 59.5t-138.5 157.5q-53 98 -70.5 213.5t4.5 222.5q33 167 162.5 281t298.5 114q80 0 140 -28q48 -25 75 -73t23 -103q-8 -104 -84 -215q-59 -81 -118 -124.5t-142 -43.5q-45 0 -160 26q5 -44 18.5 -89.5
t36.5 -90.5t61 -73.5t85 -28.5q51 0 90 28q16 10 34.5 39t28.5 39q31 25 68 25q64 0 88 -53q17 -40 12 -70zM406 659q48 -6 118 109q26 50 31 70q-64 11 -137 -21q-80 -39 -129 -129q74 -23 117 -29z" />
    <glyph glyph-name="igrave" unicode="&#xec;" horiz-adv-x="518" 
d="M442 1327q24 -53 -8 -99t-86 -46q-29 0 -113.5 32.5t-138.5 57.5q-44 21 -63.5 64.5t0.5 86.5q11 28 36.5 47t55.5 19q39 0 68 -25q2 -1 10 -10t10 -10q10 -4 84 -32t84 -32q44 -15 61 -53zM414 186q32 -56 -1 -104.5t-89 -48.5q-59 0 -89 51.5t-36 118.5q-19 203 4 577
q10 195 121 195q28 0 57 -22t37 -48q8 -37 4 -53q-1 -6 -7 -24.5t-7 -28.5q-24 -363 -9 -553q4 -40 15 -60z" />
    <glyph glyph-name="iacute" unicode="&#xed;" horiz-adv-x="530" 
d="M229 1231q-48 -19 -65 -19q-55 0 -84 41.5t-16 90t65 67.5q12 5 35 20.5t52 38.5t51.5 41.5t49.5 41.5t31 26q31 25 68 25q44 0 75 -31.5t27 -79.5q-3 -39 -37 -70q-201 -168 -252 -192zM322 186q32 -56 -0.5 -104.5t-88.5 -48.5q-58 0 -89.5 52.5t-37.5 117.5
q-19 197 5 577q4 83 22 127q15 31 42 49.5t56 18.5q25 0 52 -17q37 -28 43 -53q10 -30 4 -53q-1 -4 -7 -23t-6 -30q-25 -327 -10 -553q4 -40 15 -60z" />
    <glyph glyph-name="icircumflex" unicode="&#xee;" horiz-adv-x="786" 
d="M211 1192q-2 -1 -12.5 -8t-14 -9t-12.5 -7t-14.5 -7t-13.5 -4t-15 -2h-8q-46 4 -75 36t-28 74.5t37 71.5q6 5 21.5 12.5t21.5 12.5q15 11 72.5 56.5t95 72.5t76.5 51q60 43 121 43q50 -3 86 -26q27 -18 56 -44t45 -43t49.5 -54t43.5 -48q35 -38 20.5 -94.5t-63.5 -69.5
q-24 -7 -54 -2t-46 23q-22 21 -69.5 71t-73.5 74q-16 -9 -68.5 -47.5t-110 -82t-67.5 -50.5zM489 186q32 -56 -1 -104.5t-89 -48.5q-59 0 -89 51.5t-36 118.5q-19 197 5 577q1 29 4 51t11 50.5t20 47.5t34 32.5t51 13.5q28 0 58 -22t37 -48q8 -37 4 -53q-2 -7 -8 -25t-7 -28
q-22 -339 -8 -553q4 -42 14 -60z" />
    <glyph glyph-name="idieresis" unicode="&#xef;" horiz-adv-x="647" 
d="M621 1393q29 -52 -1 -103t-88 -51q-33 0 -64.5 22.5t-43.5 55.5q-17 45 6 86q29 51 88 51q30 0 58 -16t45 -45zM233 1296q-35 -53 -106 -53q-15 0 -21 2q-49 9 -72 54.5t-1 91.5q26 61 110 61q23 0 39 -8q44 -21 60.5 -65t-9.5 -83zM408 186q32 -56 -1.5 -104.5
t-89.5 -48.5q-59 0 -88.5 51.5t-35.5 118.5q-19 203 4 577q1 29 4 51t11 50.5t20 47.5t34 32.5t51 13.5q28 0 58 -22t37 -48q8 -37 4 -53q-14 -41 -15 -53q-23 -356 -8 -553q4 -40 15 -60z" />
    <glyph glyph-name="eth" unicode="&#xf0;" horiz-adv-x="958" 
d="M901 440q-13 -83 -52 -164t-96 -148.5t-137 -109t-167 -41.5q-140 0 -230 108.5t-100 254.5q-8 136 78 311q91 180 319 342q-46 56 -98 107q-133 -107 -156 -156q-1 -1 -4 -7t-6 -13.5t-4 -8.5q-33 -47 -90 -47q-45 0 -76.5 33.5t-22.5 85.5q16 79 105 160q32 32 102 94
q-31 23 -43 23q-82 8 -110 55q-18 38 -7 80t48 59q27 12 59 12q108 0 219 -100q53 40 127 90q24 17 51 17q33 0 61.5 -20t37.5 -50q11 -42 0 -70q-15 -30 -33 -43q-2 -1 -96 -67q173 -180 243 -322q115 -232 78 -465zM324 348q0 -57 35.5 -111.5t89.5 -54.5q35 0 79 23
q71 43 114.5 114t55.5 156q33 168 -63 350q-135 -90 -223 -212t-88 -265z" />
    <glyph glyph-name="ntilde" unicode="&#xf1;" horiz-adv-x="974" 
d="M893 37q-39 -45 -84 -39q-29 0 -49 14q-39 28 -49.5 58.5t-10.5 87.5q-1 26 -6 130.5t-10 171t-14 132.5q-19 155 -56 237q-110 -127 -219 -501q-51 -198 -65 -234q-13 -36 -41.5 -60t-65.5 -24q-48 0 -84 39q-21 29 -28 80q-8 73 -21.5 380t-13.5 394q0 49 29.5 83
t78.5 34q38 0 62 -27q48 -48 39 -104q-4 -12 -4 -15l6 -227q159 408 338 408q38 0 70.5 -18t55 -44.5t41.5 -64t30.5 -70t19.5 -67.5q18 -73 30 -164t16 -143.5t9.5 -174t7.5 -151.5q0 -2 3 -10.5t3 -10.5q8 -24 3.5 -53t-21.5 -47zM354 1251q-9 -31 -36.5 -49t-61.5 -18
q-55 0 -84 48t-6 103q27 62 95.5 120.5t127.5 57.5q47 -3 90 -32q2 -1 52 -36t61 -40q21 18 31 47q20 82 98 82q39 0 69 -23t33 -61q3 -37 -6 -68q-31 -77 -88 -130.5t-131 -53.5q-54 0 -102 25t-107 71q-18 -15 -29 -28q-2 -2 -4 -8t-2 -7z" />
    <glyph glyph-name="ograve" unicode="&#xf2;" horiz-adv-x="862" 
d="M618 1253q-28 -14 -51 -14q-29 0 -125.5 31t-132.5 49q-54 23 -73 76q-12 36 1.5 74t45.5 57q27 16 65 16q72 0 101 -59q89 -28 153 -43q40 -12 58.5 -50.5t7 -79t-49.5 -57.5zM774 313q-37 -127 -132.5 -214t-221.5 -87q-94 0 -173 53t-125.5 133t-62.5 173
q-26 165 35 377q34 121 105.5 210t160.5 89q33 0 76 -19q2 -2 8 -2q151 -7 241 -102.5t116 -251.5q26 -173 -27 -359zM399 219q24 -6 52 0q42 9 74.5 52t47 87t23.5 91q23 137 -12 251q-18 54 -52 86q-39 39 -112 35q-9 0 -23.5 -4.5t-21.5 -5.5q-10 -2 -29 -2
q-41 -54 -65.5 -152.5t-24.5 -177.5q-3 -104 45 -182q40 -64 98 -78z" />
    <glyph glyph-name="oacute" unicode="&#xf3;" horiz-adv-x="864" 
d="M354 1190q-35 -27 -67 -27q-39 0 -69 27t-34 65t25 78q10 12 79 69t70 58q4 4 37 35t62 57.5t39 32.5q24 12 49 12q30 0 56 -15t38 -42q13 -26 9.5 -58t-23.5 -52q-93 -93 -271 -240zM778 313q-37 -127 -132.5 -214t-221.5 -87q-94 0 -173 53t-125.5 133t-62.5 173
q-26 165 35 377q34 121 106 210t161 89q32 0 75 -19q2 -2 9 -2q151 -7 240.5 -102t115.5 -252q26 -173 -27 -359zM403 219q24 -6 52 0q42 9 74.5 52t47 87t23.5 91q23 137 -12 251q-18 56 -51 86q-39 39 -113 35q-9 0 -23.5 -4.5t-21.5 -5.5q-10 -2 -29 -2
q-41 -54 -65.5 -152.5t-24.5 -177.5q-3 -104 45 -182q40 -64 98 -78z" />
    <glyph glyph-name="ocircumflex" unicode="&#xf4;" horiz-adv-x="886" 
d="M266 1178q-39 -27 -73 -27q-52 0 -82 43q-19 26 -17 64t25 61q196 196 243 231q50 37 97 37q59 0 116 -53q57 -54 195 -207q28 -36 26 -73.5t-31 -67t-69 -29.5q-53 0 -84 39q-13 16 -74.5 83.5t-78.5 84.5q-3 -3 -90 -88.5t-103 -97.5zM786 313q-37 -127 -132.5 -214
t-221.5 -87q-71 0 -134.5 30.5t-108.5 81.5t-75 114.5t-42 132.5q-27 167 34 377q34 121 106 210t161 89q33 0 76 -19q2 -2 8 -2q151 -7 240.5 -102t115.5 -252q26 -173 -27 -359zM412 219q24 -6 51 0q42 9 74.5 52t47 87t23.5 91q23 137 -12 251q-18 56 -51 86
q-39 39 -113 35q-9 0 -23.5 -4.5t-21.5 -5.5q-10 -2 -29 -2q-41 -54 -65.5 -152.5t-24.5 -177.5q-3 -104 45 -182q39 -63 99 -78z" />
    <glyph glyph-name="otilde" unicode="&#xf5;" horiz-adv-x="878" 
d="M291 1221q-30 -52 -88 -52q-42 0 -73.5 29t-31.5 74q0 16 8.5 62t14.5 59q25 74 92 116q37 24 86 17q41 -4 101 -52t87 -59q30 68 99 68q12 0 18 -2q58 -15 80 -72t-12 -106q-31 -43 -79 -68t-99 -25q-82 0 -189 80q-4 -49 -14 -69zM788 313q-37 -127 -132.5 -214
t-221.5 -87q-71 0 -134.5 30.5t-108.5 81.5t-75 114.5t-42 132.5q-26 165 35 377q34 121 105.5 210t160.5 89q33 0 76 -19q2 -2 8 -2q151 -7 240.5 -102t115.5 -252q26 -173 -27 -359zM414 219q24 -6 51 0q42 9 74.5 52t47 87t23.5 91q23 137 -12 251q-18 56 -51 86
q-39 39 -113 35q-9 0 -23.5 -4.5t-21.5 -5.5q-10 -2 -29 -2q-41 -54 -65.5 -152.5t-24.5 -177.5q-3 -104 45 -182q39 -63 99 -78z" />
    <glyph glyph-name="odieresis" unicode="&#xf6;" horiz-adv-x="874" 
d="M735 1266q-38 -54 -94 -54q-40 0 -71.5 23t-34.5 61q-4 52 12 78q36 47 90 47q43 0 76.5 -26.5t36.5 -67.5q4 -36 -15 -61zM350 1233q-34 -62 -94 -62q-35 0 -60.5 18t-35 45.5t-8 56.5t21 55t51.5 38q21 7 37 7q60 0 90 -50.5t-2 -107.5zM780 313q-37 -127 -132.5 -214
t-221.5 -87q-71 0 -134.5 30.5t-108.5 81.5t-75 114.5t-42 132.5q-27 167 34 377q34 121 106 210t161 89q32 0 75 -19q2 -2 9 -2q151 -7 240.5 -102t115.5 -252q26 -173 -27 -359zM406 219q24 -6 51 0q42 9 74.5 52t47 87t23.5 91q23 137 -12 251q-18 56 -51 86
q-39 39 -113 35q-9 0 -23.5 -4.5t-21.5 -5.5q-10 -2 -29 -2q-41 -54 -65.5 -152.5t-24.5 -177.5q-3 -104 45 -182q39 -63 99 -78z" />
    <glyph glyph-name="divide" unicode="&#xf7;" horiz-adv-x="1048" 
d="M594 944q-27 -16 -70 -16q-51 2 -81 41t-17 88q10 36 40 57t69 21q18 0 26 -2q45 -8 68 -44.5t14 -79t-49 -65.5zM215 502q-53 -4 -78 -2q-44 3 -72 41t-20 84q6 43 56.5 80.5t95.5 37.5q35 0 71 -32q266 21 617 55q38 4 55 -4q40 -20 58.5 -58t0.5 -75q-28 -61 -77 -64
q-395 -42 -707 -63zM700 377q44 -55 15.5 -112.5t-94.5 -57.5q-26 0 -53.5 10.5t-41.5 28.5q-30 37 -21.5 83t48.5 74q31 21 63 21q18 0 33 -6q21 -6 51 -41z" />
    <glyph glyph-name="oslash" unicode="&#xf8;" horiz-adv-x="929" 
d="M170 -180q-35 -35 -78 -35q-57 0 -87.5 47t1.5 107q129 239 154 290q-34 78 -45 142q-26 165 35 377q36 122 107 210.5t159 88.5q33 0 76 -19q6 -4 42 -7l35 -3q26 47 38 67.5t39 55t54 55.5q29 23 66 23q57 0 88.5 -49t-0.5 -105q-7 -13 -26 -31t-25 -26q-6 -7 -55 -93
q76 -81 104 -219q37 -172 -23 -383q-36 -125 -130.5 -214t-217.5 -89q-89 0 -176 56q-14 -27 -41.5 -79.5t-42.5 -78.5q-7 -15 -25 -48t-26 -40zM319 580q0 -4 -3 -29t-3 -29q26 49 77.5 148.5t76.5 148.5q2 4 -2 3q-2 0 -10 -4l-9 -3q-21 -6 -45 -6q-56 -83 -82 -229z
M401 248q41 -33 80 -33q28 0 55.5 16t45.5 41q52 62 71 187q24 138 -16 243q-39 -76 -118 -227t-118 -227z" />
    <glyph glyph-name="ugrave" unicode="&#xf9;" horiz-adv-x="1032" 
d="M662 1309q-27 -49 -89 -49q-27 0 -122.5 40t-124.5 58q-61 41 -82 102q-17 53 -13 80q6 34 35 60t64 26q33 0 62 -20t36 -50q1 -2 2 -8.5t2.5 -11.5t3.5 -6q18 -9 85 -37.5t85 -34.5q45 -19 62.5 -62.5t-6.5 -86.5zM995 -20q-37 -50 -88 -50q-12 0 -18 2q-61 16 -107 51
t-74.5 85t-45.5 103t-27 118q-23 -41 -41.5 -71t-50.5 -73t-62 -70.5t-70.5 -48t-80.5 -20.5q-185 0 -250 322q-42 239 12 610q6 49 33 86q15 18 41.5 30.5t50.5 12.5q39 0 68.5 -27.5t32.5 -65t-25 -75.5q-29 -226 -27 -373q2 -80 18 -170t48 -141q47 40 102.5 136
t92.5 181t65 162q50 157 51 162q12 92 27 141q9 34 37 55t61 21q44 0 74 -32.5t30 -77.5q0 -37 -28 -144q-10 -39 -21 -221q-4 -128 2 -195q7 -71 28 -152.5t54 -105.5q8 -6 33 -15t35 -19q32 -32 35 -62q3 -43 -15 -69z" />
    <glyph glyph-name="uacute" unicode="&#xfa;" horiz-adv-x="1032" 
d="M541 1333q-24 -26 -42 -37.5t-46 -11.5q-55 0 -87 41.5t-14 93.5q4 12 13 25t16.5 20.5t22 21t20.5 19.5q44 44 78.5 73.5t88.5 57t101 27.5q35 -3 64.5 -21t36.5 -47q11 -43 -6.5 -82t-57.5 -49q-38 -9 -53 -14q-18 -8 -67.5 -52t-67.5 -65zM995 -20q-37 -50 -88 -50
q-12 0 -18 2q-61 16 -107 51t-74.5 85t-45.5 103t-27 118q-23 -41 -41.5 -71t-50.5 -73t-62 -70.5t-70.5 -48t-80.5 -20.5q-185 0 -250 322q-42 239 12 610q6 49 33 86q15 18 41.5 30.5t50.5 12.5q39 0 68.5 -27.5t32.5 -65t-25 -75.5q-29 -226 -27 -373q2 -80 18 -170
t48 -141q47 40 102.5 136t92.5 181t65 162q50 157 51 162q12 92 27 141q9 34 37 55t61 21q44 0 74 -32.5t30 -77.5q0 -37 -28 -144q-10 -39 -21 -221q-4 -128 2 -195q7 -71 28 -152.5t54 -105.5q8 -6 33 -15t35 -19q32 -32 35 -62q3 -43 -15 -69z" />
    <glyph glyph-name="ucircumflex" unicode="&#xfb;" horiz-adv-x="1034" 
d="M428 1346q-11 -43 -45 -67.5t-74 -14.5q-2 1 -11.5 4t-14 5t-11 6t-10.5 9q-24 21 -33 47q-15 44 4 90q28 57 104.5 132t131.5 100q22 10 57 10q77 0 131 -63q28 -30 73.5 -101t49.5 -100q7 -39 -13.5 -72.5t-57.5 -44.5q-28 -8 -60 1.5t-49 31.5q-13 19 -37.5 63.5
t-40.5 65.5q-50 -40 -90 -90q-2 -2 -2.5 -6.5t-1.5 -5.5zM997 -20q-37 -50 -88 -50q-12 0 -18 2q-61 16 -107 51t-74.5 85t-45.5 103t-27 118q-23 -41 -41.5 -71t-50.5 -73t-62 -70.5t-70.5 -48t-80.5 -20.5q-185 0 -250 322q-42 239 12 610q6 49 33 86q15 18 41.5 30.5
t50.5 12.5q39 0 68.5 -27.5t32.5 -65t-25 -75.5q-29 -226 -27 -373q2 -80 18 -170t48 -141q47 40 102.5 136t92.5 181t65 162q50 157 51 162q12 92 27 141q9 34 37 55t61 21q44 0 74 -32.5t30 -77.5q0 -37 -28 -144q-10 -39 -21 -221q-4 -128 2 -195q7 -71 28 -152.5
t54 -105.5q8 -6 33 -15t35 -19q32 -32 35 -62q3 -43 -15 -69z" />
    <glyph glyph-name="udieresis" unicode="&#xfc;" horiz-adv-x="1034" 
d="M420 1378q-5 -47 -40.5 -81.5t-82.5 -34.5q-12 0 -18 2q-47 12 -71.5 53t-4.5 84q18 35 49 58.5t65 23.5q18 0 41 -10q27 -12 45 -40t17 -55zM793 1397q13 -50 -10 -94.5t-70 -47.5q-45 -4 -70 13q-36 28 -43 55q-20 69 18 107q20 20 46.5 29.5t50.5 2.5
q27 -7 49.5 -24.5t28.5 -40.5zM997 -20q-37 -50 -88 -50q-12 0 -18 2q-61 16 -107 51t-74.5 85t-45.5 103t-27 118q-23 -41 -41.5 -71t-50.5 -73t-62 -70.5t-70.5 -48t-80.5 -20.5q-185 0 -250 322q-42 239 12 610q6 49 33 86q15 18 41.5 30.5t50.5 12.5q39 0 68.5 -27.5
t32.5 -65t-25 -75.5q-29 -226 -27 -373q2 -80 18 -170t48 -141q47 40 102.5 136t92.5 181t65 162q50 157 51 162q12 92 27 141q9 34 37 55t61 21q44 0 74 -32.5t30 -77.5q0 -37 -28 -144q-10 -39 -21 -221q-4 -128 2 -195q7 -71 28 -152.5t54 -105.5q8 -6 33 -15t35 -19
q32 -32 35 -62q3 -43 -15 -69z" />
    <glyph glyph-name="yacute" unicode="&#xfd;" horiz-adv-x="927" 
d="M500 1294q-27 -24 -66 -24q-10 0 -26 4q-40 10 -61 42t-15.5 70.5t37.5 65.5q63 55 89.5 78t80.5 61.5t100 61.5q28 14 55 14q20 0 43 -11t33 -26q26 -35 22.5 -78t-36.5 -67q-11 -7 -42.5 -24.5t-47.5 -28.5q-48 -33 -166 -138zM758 -178q-49 -77 -134.5 -121.5
t-177.5 -44.5q-67 0 -122 24t-119 72q-71 59 -80 72q-18 26 -23 47q-9 49 24 84t79 35q37 0 65 -25q84 -75 136 -96q19 -8 45 -8q46 0 78.5 17t51 50t28 64.5t16.5 77.5q10 76 14 290q-27 -41 -46 -67.5t-54 -67.5t-65 -65.5t-70.5 -43t-79.5 -18.5q-90 0 -145 68.5
t-81 169.5q-35 133 -39 300.5t11 305.5q3 39 33.5 65.5t68.5 26.5q33 0 67.5 -27t43.5 -57q11 -49 -9 -84q-1 -1 -3.5 -4.5t-2.5 -5.5q-17 -233 17 -418q14 -82 43 -131q37 22 94 96q141 195 227 553q8 35 23 50q31 36 78 36q43 0 74 -30t30 -76q-6 -127 -8 -380.5
t-8 -379.5q-8 -231 -80 -354z" />
    <glyph glyph-name="thorn" unicode="&#xfe;" horiz-adv-x="964" 
d="M319 -307q-7 -41 -38 -64.5t-68 -23.5q-30 0 -55.5 16.5t-36.5 48.5q-8 24 -8 121q0 90 2.5 537.5t-0.5 535.5q-4 279 -19 400q-10 50 -10 73q4 42 16 58q23 35 54 43q37 8 53 4q58 -15 78 -56q16 -23 12 -65q0 -2 -1 -8t-1 -8q7 -45 11 -90.5t6 -101t3 -87t1.5 -101
t0.5 -91.5q50 114 87 163q42 65 90.5 99t115.5 34q32 0 62 -10q74 -28 132.5 -117.5t86 -191.5t25.5 -188q-2 -76 -24 -152t-62.5 -144.5t-95 -121.5t-127 -84t-152.5 -31q-58 0 -99 10q-14 -119 -30 -342q-1 -4 -4.5 -32.5t-4.5 -32.5zM387 303q46 -8 70 -8
q69 0 127.5 50.5t90 119.5t36.5 137q6 69 -11.5 140.5t-54.5 131.5q-24 38 -37 48q-1 3 -8 -4q-31 -34 -55 -87q-95 -166 -158 -528z" />
    <glyph glyph-name="ydieresis" unicode="&#xff;" horiz-adv-x="935" 
d="M342 1350q-33 -33 -82 -33q-38 0 -57 12q-40 29 -48.5 75t23.5 81q33 33 84 33q37 0 55 -13q40 -29 48.5 -74.5t-23.5 -80.5zM709 1309q-26 -11 -52 -11q-25 0 -53 14t-41 34q-41 47 -17 104t87 63q33 0 68 -19.5t47 -45.5q20 -38 9 -79.5t-48 -59.5zM764 -178
q-49 -77 -134 -121.5t-177 -44.5q-67 0 -122.5 24t-119.5 72q-71 59 -80 72q-17 23 -22 47q-9 49 23.5 84t78.5 35q37 0 65 -25q84 -75 136 -96q19 -8 45 -8q46 0 78.5 17t51 50t28 64.5t16.5 77.5q10 76 14 290q-27 -41 -46 -67.5t-54 -67.5t-65 -65.5t-70.5 -43
t-79.5 -18.5q-90 0 -145 68.5t-81 169.5q-35 133 -39 300.5t11 305.5q3 39 33.5 65.5t68.5 26.5q33 0 67.5 -27t43.5 -57q11 -50 -8 -84q-1 -2 -4 -5t-3 -5q-17 -233 17 -418q14 -82 43 -131q37 22 94 96q141 195 227 553q8 35 23 50q31 36 78 36q43 0 74 -30t30 -76
q-6 -127 -8 -380.5t-8 -379.5q-8 -231 -80 -354z" />
    <glyph glyph-name="Lslash" unicode="&#x141;" horiz-adv-x="960" 
d="M659 -20q-74 -19 -145 -19q-324 0 -336 461q-37 -8 -57 -4q-50 9 -73 53t-1 90q10 23 27 37q19 12 57 26.5t47 18.5q6 295 15 596q0 5 4 76.5t6 85.5q7 41 36 64.5t66 23.5q55 0 88 -47q29 -43 13 -92q-7 -14 -7 -84q-4 -86 -14 -514l215 116q26 13 51 13q51 0 82.5 -38
t18.5 -89q-9 -41 -50 -64q-33 -18 -145.5 -79.5t-175.5 -94.5q0 -69 0.5 -97.5t8 -82.5t22.5 -94q12 -43 33.5 -59.5t66.5 -16.5q42 0 78 8q73 15 223 66q18 6 35 6q47 0 79 -35.5t23 -83.5q-10 -60 -67 -80q-138 -47 -224 -67z" />
    <glyph glyph-name="lslash" unicode="&#x142;" horiz-adv-x="600" 
d="M399 98q28 -57 -5 -104t-87 -47q-24 0 -42.5 9t-31 27t-19 33.5t-15.5 40.5q-9 36 -16 173t-7 200q-23 -10 -43 -10q-47 0 -78 36t-22 85q5 34 59.5 108t91.5 111q8 133 14 211t22.5 192t41.5 207q10 35 37 54.5t61 19.5q31 0 58.5 -18t38.5 -50q12 -29 0 -82
q-37 -138 -54 -329q29 20 60 20q39 0 68.5 -27.5t33.5 -65.5t-24 -77q-12 -14 -156 -143q-10 -264 4 -484q1 -4 2 -25.5t3 -40.5t5 -24z" />
    <glyph glyph-name="OE" unicode="&#x152;" horiz-adv-x="1884" 
d="M1001 227q-143 -256 -385 -256q-103 0 -198.5 46t-165 121.5t-117 170.5t-63.5 195q-23 155 3 318t99 300q6 12 6 29q37 140 141.5 220.5t251.5 80.5q80 0 145 -23.5t114 -70t85 -102.5t72 -134q15 135 58 203q39 68 122.5 109.5t163 54t168.5 12.5q154 0 228 -26
q46 -19 62 -67t-13 -89q-15 -22 -46 -35.5t-57 -7.5q-86 22 -168 22q-66 0 -146 -13.5t-120 -41.5q-21 -18 -31 -49q-12 -46 -18 -96q-16 -122 -23 -273q296 37 336 41q35 4 56 -4q26 -9 43 -30t22 -48q8 -43 -17 -78.5t-67 -39.5q-22 -3 -188 -24t-189 -24q0 -314 58 -374
q25 -29 116 -29q59 0 113 8q9 1 50.5 7t76 11t79.5 9t75 4q37 0 55 -6q47 -17 62 -61.5t-8 -85.5t-73 -50q-6 -1 -50 -3t-50 -3q-41 -4 -150.5 -19t-168.5 -18q-137 -7 -226 51q-92 63 -123 168zM397 897q109 -330 475 -418q44 237 -36 475q-48 142 -117 228q-36 42 -72 55
q-31 -39 -78 -39q-19 0 -51 12q-84 -53 -145 -153q-3 -75 24 -160zM295 453q37 -110 127 -193.5t199 -83.5q100 0 178 111q-179 46 -310.5 144.5t-222.5 258.5q-3 -138 29 -237z" />
    <glyph glyph-name="oe" unicode="&#x153;" horiz-adv-x="1462" 
d="M1413 195q-32 -93 -123 -153t-190 -60q-119 0 -211 70t-146 184q-47 -103 -131.5 -168.5t-189.5 -65.5q-140 0 -242 108t-123 252q-26 165 35 377q34 121 105.5 210t160.5 89q36 0 76 -18q2 -2 8 -2q224 -12 316 -219q50 72 90 110q142 123 311 123q73 0 137 -31
q48 -24 75.5 -72.5t23.5 -103.5q-6 -81 -60 -176t-121 -145q-74 -62 -167 -62q-50 0 -156 29q11 -88 45.5 -164t99.5 -106q26 -13 56 -13q48 0 90 27q16 10 34.5 39t28.5 39q30 24 68 24q64 0 88 -53q20 -39 12 -69zM397 211q23 -9 52 -2q33 10 59 35t43 59.5t27 68t16 68.5
q24 138 -12 252q-16 50 -52 86q-41 39 -112 35q-9 0 -25.5 -5.5l-19.5 -6.5h-29q-42 -58 -66 -154t-24 -176q-3 -104 45 -184q41 -62 98 -76zM1040 647q46 -6 119 107q27 51 31 71q-59 11 -137 -22q-78 -35 -129 -129q89 -23 116 -27z" />
    <glyph glyph-name="Scaron" unicode="&#x160;" horiz-adv-x="1073" 
d="M831 1708q-50 -152 -163 -152q-60 0 -125 41t-101 95q-27 41 -47.5 100.5t-7.5 91.5q19 43 47 53q26 13 53 13q62 0 86 -52q5 -10 12.5 -31.5t13 -35t16 -29t24.5 -24.5q10 28 43 139q9 30 37 50t59 20q41 0 72 -30t31 -73q0 -19 -19 -81t-31 -95zM950 109
q-67 -75 -175.5 -113.5t-219.5 -38.5q-117 0 -232.5 39t-191.5 113q-62 58 -76 94q-19 55 14 97t85 42q43 0 77 -37q61 -77 140 -110t186 -33q104 0 193 47q22 12 44 31t23 36q2 34 -57 93q-47 45 -119 92q-26 16 -108 64t-134.5 82.5t-99.5 72.5q-155 127 -193 283
q-26 106 23 227q52 134 169 213.5t255 79.5q116 0 213 -54t160 -153q3 -5 17.5 -20t19.5 -25q20 -40 12 -70q-14 -38 -25 -47q-35 -35 -82 -35q-33 0 -61 25q-3 3 -18.5 19.5t-18.5 19.5q-32 47 -58 73.5t-67 44t-94 17.5q-82 0 -145.5 -47.5t-90.5 -126.5q-14 -48 -12 -78
q9 -112 201 -244q39 -26 131 -80t139 -86q96 -65 161 -135t83 -159q9 -55 -10 -114t-58 -99z" />
    <glyph glyph-name="scaron" unicode="&#x161;" horiz-adv-x="831" 
d="M659 104q-79 -96 -256 -96q-109 0 -286 47q-38 14 -47 25q-33 33 -35 59q-5 55 32.5 92.5t88.5 24.5q13 -3 44 -10.5t47.5 -11.5t42 -9t47.5 -8t44 -4q59 -3 100 10l5 1q4 2 5.5 3.5t0.5 3.5l-6 10q-7 10 -9 11q-36 52 -139 127q-95 65 -152 129t-69 151q-19 120 41 222
q43 73 126 114t177 41q66 0 119.5 -20t124.5 -62q2 -1 15 -7t15 -7q27 -19 37 -37q28 -47 2.5 -97t-80.5 -54q-19 -2 -40 4t-35 13.5t-37.5 21.5t-34.5 20q-56 23 -92 23q-29 0 -60 -11.5t-51 -31.5q-21 -23 -26 -60.5t8 -64.5q14 -29 53 -64q27 -22 79.5 -60t73.5 -55
q163 -132 168 -264q3 -61 -41 -119zM635 1276q-63 -57 -162 -57q-92 0 -160 50t-102 138q-24 49 -9.5 103t64.5 67q20 4 31 4q35 0 62 -18t36 -50l6 -30q0 -2 2 -6t5 -9t4 -6q18 -28 28 -30q8 -5 26 -8t26 1q19 9 40 52t40.5 95t27.5 66q28 52 86 52q51 0 85.5 -41.5
t12.5 -98.5q-3 -8 -22 -56t-26.5 -64.5t-25 -51.5t-35.5 -58.5t-40 -43.5z" />
    <glyph glyph-name="Ydieresis" unicode="&#x178;" horiz-adv-x="1171" 
d="M811 1657q-30 -15 -61 -15q-68 0 -95 58q-11 24 -7.5 57.5t22.5 52.5q37 37 90 37q67 0 94 -59q18 -37 5.5 -75.5t-48.5 -55.5zM371 1618q-6 -1 -19 -4.5t-24 -5.5t-21 -2q-63 0 -91 54t7 107q18 24 50 37t65 13q61 0 89 -54.5t-7 -105.5q-20 -30 -49 -39zM1106 106
q-5 -42 -32.5 -72t-65.5 -30q-26 0 -55.5 16.5t-39.5 38.5q-58 122 -82.5 268t-35.5 335q-114 -156 -269 -156q-80 0 -148 34.5t-115 88.5t-85.5 133t-62 154.5t-41.5 168t-26.5 158t-14.5 139.5q-3 34 18 62q30 43 84 43q32 0 58 -17.5t38 -50.5q4 -11 9 -55q4 -39 8.5 -71
t13.5 -92t20.5 -108.5t27.5 -108.5t37.5 -105t47 -84.5t59.5 -60.5t72 -21q37 0 58 18q25 20 47 52.5t33.5 55t29.5 64.5q21 50 42.5 114.5t32 100t34 124t28.5 106.5q11 41 40.5 62.5t64.5 21.5q44 0 75 -31t27 -84q-4 -47 -14.5 -154.5t-16.5 -187.5t-8 -154
q-9 -260 43 -508q6 -24 23 -79t25 -70q18 -36 16 -58z" />
    <glyph glyph-name="Zcaron" unicode="&#x17d;" horiz-adv-x="1103" 
d="M700 1704q-66 -84 -141 -84q-91 0 -160 102q-27 38 -58 98.5t-28 88.5q5 42 33.5 72t67.5 30q22 0 46 -11t36 -28q5 -7 30.5 -57t30.5 -57q44 80 47 86q29 53 88 53q46 0 79 -35t24 -86q-1 -9 -9 -26.5t-21.5 -40.5t-24 -40.5t-24.5 -39.5t-16 -25zM752 -14
q-138 -27 -254 -27q-65 0 -124 8t-122 28t-111.5 60t-72.5 97q-21 58 -11 129q35 201 351 561q18 21 61 70t66.5 77t57.5 70t61.5 81t50.5 79q24 42 34 77q-44 13 -135 13q-85 0 -189 -9t-157 -18q-20 0 -35 -10q-30 -18 -33 -19q-20 -4 -30 -4q-47 0 -78.5 33t-29 77.5
t43.5 74.5q111 82 502 82q47 0 83 -2.5t84 -12t81 -26.5t61 -49.5t37 -77.5q11 -50 -10 -115q-29 -94 -121 -221q-38 -55 -85 -111.5t-108.5 -126.5t-91.5 -106q-85 -97 -167 -215.5t-101 -200.5q-5 -24 4 -33q14 -14 62 -33q56 -18 151 -22q106 0 231.5 21t227.5 55
q40 10 49 10q2 0 7 -1t7 -1q42 -8 65.5 -40.5t19.5 -72t-37 -67.5q-45 -37 -295 -82z" />
    <glyph glyph-name="zcaron" unicode="&#x17e;" horiz-adv-x="849" 
d="M567 1389q-35 -30 -80.5 -51t-85.5 -21q-54 0 -108 26q-64 36 -115 116.5t-41 146.5q8 37 40.5 63.5t70.5 26.5h10q47 -3 77 -38.5t21 -80.5q0 -1 -1 -6t-1 -6q8 -12 29 -33q11 -11 14 -10q29 8 56 40.5t45 67.5q19 33 65 146q13 32 40.5 50.5t58.5 18.5q30 0 57 -18
q29 -20 39.5 -54t-2.5 -65q-32 -79 -51 -120.5t-57 -101.5t-81 -97zM680 129q-210 -70 -363 -70q-196 0 -258 113q-30 52 -20 117q10 63 76 141q45 55 160.5 160t164.5 170q45 61 43 104q0 26 -32.5 38.5t-65.5 12.5q-68 0 -111 -32q-27 -17 -51 -17q-41 0 -74 26.5
t-36 63.5q-4 45 14 68q32 47 112 70.5t154 23.5q82 0 158 -36t111 -103q37 -70 24 -156q-18 -114 -121 -233q-43 -48 -128.5 -127.5t-117.5 -112.5q-49 -49 -67 -78q35 -6 70 -6q85 0 168.5 21t191.5 61q18 6 35 6q45 0 75.5 -32.5t26.5 -79.5q0 -33 -22 -58
q-7 -7 -17 -13.5t-17.5 -10.5t-20.5 -9.5t-19.5 -7.5t-22 -7t-20.5 -7z" />
    <glyph glyph-name="caron" unicode="&#x2c7;" horiz-adv-x="765" 
d="M711 1370q-6 -67 -48.5 -149.5t-112.5 -146.5t-140 -64q-78 0 -160 61q-18 13 -35.5 27t-38 33.5t-31 30l-36 36l-31.5 31.5q-36 37 -20.5 94.5t65.5 69.5q10 4 33 4q44 0 67 -23q143 -143 178 -157q27 20 63.5 74t39.5 83q18 99 104 99q54 0 84 -43q19 -34 19 -60z" />
    <glyph glyph-name="tilde" unicode="&#x2dc;" horiz-adv-x="987" 
d="M786 1184q-50 -50 -96 -76.5t-102 -26.5q-17 0 -41 4q-68 19 -121 66q-18 15 -47.5 44t-36.5 36q-33 -19 -90 -80q-1 -1 -9.5 -11t-11 -12.5l-10 -10t-12 -10t-11.5 -6.5t-14 -5q-18 -6 -39 -6q-19 0 -41 10.5t-32 25.5q-25 42 -23 68q4 36 14 49q46 68 132.5 133.5
t152.5 65.5q62 0 113 -41q5 -5 34.5 -36.5t54.5 -53.5t40 -25q24 13 60 50.5t52.5 57.5t49.5 62q33 39 77 39q56 0 90.5 -49.5t2.5 -106.5q-11 -19 -64 -79t-72 -76z" />
    <glyph glyph-name="Germandbls" unicode="&#x1e9e;" horiz-adv-x="1236" 
d="M315 -88q-38 -55 -92 -55q-37 0 -67 25t-39 63q-21 78 -27 166q-41 446 27 749q64 274 192 416q93 101 223 165t259 64q106 0 192.5 -44.5t112.5 -135.5q33 -116 -19 -248q-58 -150 -225 -274q126 -42 210.5 -128.5t102.5 -209.5t-31 -234t-149.5 -178t-224.5 -65
q-87 2 -172 36.5t-144 94.5q-40 40 -47 61q-20 52 13 95.5t84 43.5q29 0 51 -14q13 -7 32 -29t31 -30q70 -53 150 -53q43 0 85.5 17.5t69.5 47.5q59 70 50.5 162t-82.5 145q-15 10 -32.5 18t-30.5 14t-37 12t-33.5 8.5t-38.5 7t-34 5.5t-38.5 5t-34.5 4q-57 7 -86 43
q-30 37 -23 83.5t44 74.5q22 18 90 57q211 124 264 264q24 81 6 111q-5 8 -23.5 15t-31.5 9q-14 4 -47 4q-53 0 -133 -26q-114 -44 -185.5 -117.5t-114.5 -187.5q-103 -280 -77 -727q9 -138 16 -176q0 -3 4.5 -8t7.5 -7q24 -26 23.5 -67.5t-21.5 -71.5z" />
    <glyph glyph-name="quoteleft" unicode="&#x2018;" horiz-adv-x="483" 
d="M328 903q-50 -4 -78 -4q-74 0 -125.5 37.5t-58.5 110.5q-11 90 24 204q7 22 17.5 43t30 44t30 34.5t38.5 38.5t34 33q27 24 67 24q29 0 53.5 -13.5t36.5 -37.5q18 -42 11 -69q-8 -33 -23 -48q-86 -86 -96 -104q-12 -21 -21 -92q48 5 62 2q61 -10 79 -70t-26 -104
q-26 -26 -55 -29z" />
    <glyph glyph-name="quoteright" unicode="&#x2019;" horiz-adv-x="499" 
d="M248 1008q-36 -50 -88 -50q-51 0 -83.5 40.5t-13.5 97.5q12 37 56 75q5 5 28 24t39 33.5t31 33.5t16 32q2 41 -94 97q-44 26 -51.5 76t29.5 85q31 31 71 31q20 0 35 -6q12 -5 52.5 -31t54.5 -37q86 -69 104 -168q15 -81 -26 -159q-12 -23 -32.5 -47.5t-35.5 -39t-45 -41
t-41 -36.5q-1 -1 -6 -10z" />
    <glyph glyph-name="quotesinglbase" unicode="&#x201a;" horiz-adv-x="391" 
d="M201 -379q-37 -53 -92 -53q-39 0 -70 31q-47 47 -25 106q4 13 74 125q44 76 57 139q-36 0 -57 13q-51 31 -51 90t51 88q22 14 70 14q77 0 130.5 -35t63.5 -108q9 -70 -18 -148q-13 -44 -39 -96t-40.5 -77t-53.5 -89z" />
    <glyph glyph-name="quotedblleft" unicode="&#x201c;" horiz-adv-x="1064" 
d="M389 1130q-28 -31 -61 -34q-47 -3 -95 0q-66 8 -102 26q-43 23 -62.5 69t-7.5 93q20 77 74 150q35 45 83 86t87 41q43 -5 73.5 -34.5t27.5 -70.5q-4 -44 -25 -65q-9 -9 -30 -27.5t-35.5 -33.5t-24.5 -32q64 0 88 -24q32 -32 36 -73t-26 -71zM938 1004q-136 -37 -207 -37
q-62 0 -111.5 33.5t-64.5 91.5t-6.5 122.5t39.5 116.5q30 53 83 81t115 28q35 0 58 -13q40 -23 49.5 -65t-14 -79t-68.5 -46q-38 0 -49.5 -12.5t-11.5 -53.5q11 1 135 29q45 12 85.5 -22t37.5 -80q-4 -43 -25 -64q-21 -25 -45 -30z" />
    <glyph glyph-name="quotedblright" unicode="&#x201d;" horiz-adv-x="886" 
d="M258 1028q-22 -33 -40.5 -47t-53.5 -14q-37 0 -66 23t-35 61q-8 40 21 86q22 31 66.5 85t58.5 72q-49 4 -77.5 40.5t-21 81.5t49.5 69q35 18 94 18q100 0 164 -67.5t26 -151.5q-26 -57 -102 -151t-84 -105zM662 971q-29 -39 -78 -39q-40 0 -70 26t-33 68q-3 32 13 61
q13 18 43 53.5t51 65.5t33 60q-64 6 -85 67t25 107q30 30 76 30q45 0 98 -24q65 -36 85.5 -116t-13.5 -148q-35 -74 -145 -211z" />
    <glyph glyph-name="quotedblbase" unicode="&#x201e;" horiz-adv-x="905" 
d="M797 -162q-20 -42 -53.5 -67t-77.5 -25q-34 0 -54 14q-36 28 -43 56q-8 34 -4 51q12 48 53 74q30 61 33 135q-37 17 -49.5 54t2.5 74t53 54q16 8 41 8q59 0 106 -43.5t50 -103.5q12 -137 -57 -281zM229 -276q-31 -25 -65 -25q-46 0 -78.5 36t-22.5 87q1 6 13.5 67.5
t17.5 94.5q-22 14 -37 39t-14 49q4 51 39.5 80.5t81.5 29.5q80 0 117 -69q27 -49 20 -109q-23 -237 -72 -280z" />
    <glyph glyph-name="guilsinglleft" unicode="&#x2039;" horiz-adv-x="737" 
d="M608 338q-27 -8 -112 -8q-168 0 -250 16q-77 14 -121 53q-33 29 -50 70t-14 84q13 102 77.5 205t164.5 172t201 69h8q56 -11 77 -62t-11 -97q-20 -30 -50 -39q-5 -1 -23.5 -5.5t-26.5 -6.5t-22 -6.5t-25 -10.5t-21 -14q-41 -31 -86.5 -95.5t-55.5 -111.5q47 -14 303 -14
h2q64 0 92.5 -54.5t-8.5 -105.5q-20 -30 -49 -39z" />
    <glyph glyph-name="guilsinglright" unicode="&#x203a;" horiz-adv-x="729" 
d="M492 346q-76 -47 -180.5 -99t-151.5 -52q-53 0 -78 36q-25 38 -23 66q7 75 70 96q43 12 162.5 76t157.5 94q-27 32 -64 65t-66 53.5t-77.5 54t-71.5 50.5q-32 22 -38.5 60.5t12.5 72.5t55 44q20 4 32 4q32 0 56 -15q164 -109 250 -188q129 -111 129 -207q0 -42 -27 -88
q-45 -62 -147 -123z" />
    <glyph glyph-name="Euro" unicode="&#x20ac;" horiz-adv-x="1384" 
d="M1122 190q-184 -128 -366 -131q-299 0 -426 326q-104 -23 -164 -23q-15 0 -21 3q-43 11 -67.5 44.5t-14.5 73.5q29 77 84 82q28 2 79.5 10t58.5 9q-6 74 0 147q-56 -8 -86 -8q-18 0 -39.5 10.5t-32.5 24.5q-25 42 -23 67q5 38 26.5 67t57.5 32q40 5 138 22
q43 152 110 281q24 48 45.5 85t56 82.5t69 75t81 50t96.5 20.5q69 0 150.5 -33t120.5 -84q35 -50 41 -114q3 -27 8 -166q1 -46 -30.5 -75.5t-74.5 -29.5q-34 0 -66 25.5t-32 60.5q-2 23 -3 82t-7 90q-60 39 -100 39q-33 0 -73 -43.5t-74 -108.5t-57.5 -117.5t-37.5 -92.5
l252 24q46 3 80 -38t22 -85q-11 -44 -37 -59q-27 -20 -49 -22q-289 -27 -323 -31q-10 -76 -7 -144q247 45 326 62q43 10 61 6q53 -15 73 -59.5t-2 -88t-77 -55.5q-68 -16 -331 -63q38 -78 87.5 -117t129.5 -39q179 0 368 205q5 5 16 18.5t21 22.5t21 14q24 15 51 15
q39 0 68.5 -28t33 -66t-25.5 -76q-111 -127 -185 -179z" />
    <glyph glyph-name="minus" unicode="&#x2212;" horiz-adv-x="999" 
d="M217 461q-45 -27 -70 -27h-4q-43 5 -73 34.5t-27 70.5q4 57 54.5 89.5t117.5 43.5q88 14 264 14q163 -3 385 -20q36 -3 63.5 -35t24.5 -68q-5 -45 -34 -75t-70 -27q-207 20 -436 20q-2 0 -39 -1.5t-61 -3t-54 -5.5t-41 -10z" />
    <glyph glyph-name="null" horiz-adv-x="0" 
 />
    </font>
</defs>
</svg>
